<?xml version="1.0" encoding="UTF-8"?>
<svg version="1.1" xmlns="http://www.w3.org/2000/svg" width="2317" height="1290">
<path d="M0 0 C0.65677734 -0.03287109 1.31355469 -0.06574219 1.99023438 -0.09960938 C11.55693245 -0.20128443 19.73070853 6.13537717 27.32421875 11.35546875 C28.15786453 11.92098953 28.99151031 12.48651031 29.85041809 13.06916809 C31.6388873 14.28330378 33.42551927 15.50014954 35.21044922 16.71948242 C39.0381177 19.33412906 42.87479512 21.93541789 46.71109009 24.53738403 C48.68871761 25.87876459 50.66590822 27.22078951 52.64266968 28.56344604 C61.99458497 34.91227806 71.39810778 41.18185858 80.8125 47.4375 C95.313015 57.07899655 109.75470201 66.80482458 124.17791748 76.56149292 C140.14918146 87.35982558 156.22389912 97.99599112 172.36010742 108.54614258 C180.26247157 113.72193792 188.11049201 118.94255119 195.80078125 124.4296875 C204.42095079 130.58023598 213.24701051 136.39558455 222.10891724 142.19042969 C237.60600093 152.32861606 253.03715463 162.56003291 268.375 172.9375 C269.18732086 173.48691254 269.99964172 174.03632507 270.83657837 174.60238647 C275.81533545 177.97043611 280.79202559 181.34153007 285.76812744 184.71350098 C293.6959653 190.08519259 301.62712116 195.45195435 309.5625 200.8125 C310.44453094 201.4085202 311.32656189 202.00454041 312.23532104 202.61862183 C328.1900978 213.39365718 344.24647203 224.01089789 360.36035156 234.54638672 C368.26267442 239.72204363 376.11058229 244.9426156 383.80078125 250.4296875 C392.42095079 256.58023598 401.24701051 262.39558455 410.10891724 268.19042969 C425.60600093 278.32861606 441.03715463 288.56003291 456.375 298.9375 C457.18732086 299.48691254 457.99964172 300.03632507 458.83657837 300.60238647 C463.81533545 303.97043611 468.79202559 307.34153007 473.76812744 310.71350098 C481.6959653 316.08519259 489.62712116 321.45195435 497.5625 326.8125 C498.44453094 327.4085202 499.32656189 328.00454041 500.23532104 328.61862183 C516.1900978 339.39365718 532.24647203 350.01089789 548.36035156 360.54638672 C557.01244575 366.2130591 565.56834379 371.97267953 573.98800659 377.97964478 C579.14998202 381.65039465 584.38665969 385.1929043 589.671875 388.68359375 C590.44610809 389.19527603 591.22034119 389.70695831 592.01803589 390.23414612 C595.17198371 392.31557244 598.32817718 394.39350713 601.48828125 396.46557617 C603.84458942 398.01226028 606.19600184 399.56616555 608.546875 401.12109375 C609.60935455 401.81337318 609.60935455 401.81337318 610.69329834 402.51963806 C617.44691701 406.99893614 622.60776636 411.62722751 625.3125 419.4375 C625.8747398 423.52883437 625.85287252 427.57209133 625.82043457 431.69689941 C625.82667453 432.91907244 625.8329145 434.14124547 625.83934355 435.40045404 C625.85249968 438.77632171 625.84781749 442.15129403 625.83539867 445.52710652 C625.8263268 449.17408214 625.84032846 452.82098104 625.85131836 456.46794128 C625.86908546 463.60573837 625.86527171 470.743367 625.8536678 477.88117063 C625.8446266 483.68327106 625.84341244 489.48532435 625.84776306 495.28742981 C625.84837599 496.11386912 625.84898893 496.94030843 625.84962043 497.79179135 C625.85089936 499.47079624 625.85219621 501.14980112 625.8535108 502.82880598 C625.86491129 518.56515838 625.85181123 534.3014175 625.83030933 550.0377546 C625.81243882 563.53416826 625.81554308 577.03044429 625.83398438 590.52685547 C625.85540047 606.20769373 625.8638127 621.88845028 625.85153532 637.56930113 C625.85026115 639.24205747 625.84900367 640.91481382 625.84776306 642.58757019 C625.84714596 643.41055356 625.84652886 644.23353693 625.84589306 645.08145919 C625.84244237 650.87519302 625.84826242 656.66887492 625.85768127 662.46260071 C625.86891086 669.52525388 625.86584112 676.58772927 625.8445583 683.65036213 C625.83406068 687.25243227 625.82990375 690.85420622 625.84315491 694.45627403 C625.85731184 698.36371629 625.84038443 702.27067573 625.82043457 706.17810059 C625.82935746 707.31273444 625.83828034 708.44736829 625.84747362 709.61638498 C625.77079845 717.35322788 624.5331679 722.62582294 619.41796875 728.6796875 C614.11274423 733.19615155 609.91636825 735.10987561 602.875 735.75 C594.93828358 735.0537968 588.87510679 731.15543582 582.41796875 726.8203125 C581.5701886 726.26016449 580.72240845 725.70001648 579.84893799 725.12289429 C577.06061863 723.2773405 574.28024079 721.42019706 571.5 719.5625 C569.52971368 718.25405206 567.55908601 716.94611801 565.58813477 715.63867188 C544.18811047 701.42366657 522.90908373 687.02799178 501.63537598 672.625 C495.3838829 668.39292189 489.13054039 664.16359352 482.875 659.9375 C481.99928345 659.34568939 481.12356689 658.75387878 480.22131348 658.14413452 C464.235217 647.3467631 448.14499576 636.71086919 432.00024414 626.15234375 C424.68985484 621.36366243 417.39891845 616.57796983 410.32421875 611.4453125 C402.3132229 605.63348178 394.02353116 600.25196755 385.74240112 594.83544922 C370.17068598 584.64575228 354.66284889 574.36590336 339.25 563.9375 C338.43795105 563.38826874 337.6259021 562.83903748 336.78924561 562.27316284 C331.81021428 558.90492949 326.83324767 555.5336551 321.85687256 552.16149902 C313.9290347 546.78980741 305.99787884 541.42304565 298.0625 536.0625 C296.73945358 535.1684697 296.73945358 535.1684697 295.38967896 534.25637817 C279.4349022 523.48134282 263.37852797 512.86410211 247.26464844 502.32861328 C239.36624659 497.15552607 231.52213503 491.93773186 223.8359375 486.453125 C215.15633195 480.25980019 206.26750796 474.40578349 197.34469604 468.5703125 C182.40850352 458.79798247 167.52669239 448.94941096 152.75 438.9375 C152.00843658 438.43525909 151.26687317 437.93301819 150.50283813 437.41555786 C146.69359551 434.83515961 142.88552852 432.25303282 139.078125 429.66992188 C130.47477786 423.83352967 121.86497383 418.00671575 113.25 412.1875 C112.36265167 411.58793488 111.47530334 410.98836975 110.56106567 410.37063599 C94.54916892 399.55800821 78.43648687 388.90201301 62.26538086 378.32910156 C54.53610435 373.26670689 46.86479587 368.16413904 39.3515625 362.78515625 C26.8821686 354.02855941 14.05759245 345.78773299 1.3125 337.4375 C0.9825 406.0775 0.6525 474.7175 0.3125 545.4375 C3.6125 545.7675 6.9125 546.0975 10.3125 546.4375 C13.140625 547.5390625 13.140625 547.5390625 15.5625 549.0625 C16.59761719 549.7121875 17.63273438 550.361875 18.69921875 551.03125 C19.90646028 551.82909094 21.11069924 552.63148685 22.3125 553.4375 C22.96943848 553.87707031 23.62637695 554.31664062 24.30322266 554.76953125 C28.60447527 557.66368626 32.88011285 560.59447867 37.15234375 563.53125 C46.21420722 569.75722245 55.3251566 575.91074928 64.4375 582.0625 C65.34853485 582.67779572 66.2595697 583.29309143 67.19821167 583.92703247 C83.49857484 594.92972854 99.89574412 605.78148694 116.35595703 616.54345703 C124.25972178 621.72012634 132.10914846 626.94159255 139.80078125 632.4296875 C148.42095079 638.58023598 157.24701051 644.39558455 166.10891724 650.19042969 C181.60600093 660.32861606 197.03715463 670.56003291 212.375 680.9375 C213.18732086 681.48691254 213.99964172 682.03632507 214.83657837 682.60238647 C219.81533545 685.97043611 224.79202559 689.34153007 229.76812744 692.71350098 C237.6959653 698.08519259 245.62712116 703.45195435 253.5625 708.8125 C254.88554642 709.7065303 254.88554642 709.7065303 256.23532104 710.61862183 C272.1900978 721.39365718 288.24647203 732.01089789 304.36035156 742.54638672 C312.25875341 747.71947393 320.10286497 752.93726814 327.7890625 758.421875 C336.46866805 764.61519981 345.35749204 770.46921651 354.28030396 776.3046875 C369.21649648 786.07701753 384.09830761 795.92558904 398.875 805.9375 C399.61656342 806.43974091 400.35812683 806.94198181 401.12216187 807.45944214 C404.93140449 810.03984039 408.73947148 812.62196718 412.546875 815.20507812 C421.15022214 821.04147033 429.76002617 826.86828425 438.375 832.6875 C439.26234833 833.28706512 440.14969666 833.88663025 441.06393433 834.50436401 C457.07583108 845.31699179 473.18851313 855.97298699 489.35961914 866.54589844 C497.26218231 871.72172409 505.11034331 876.94244509 512.80078125 882.4296875 C521.42353602 888.58208055 530.25231906 894.39906225 539.11688232 900.19564819 C555.21553722 910.72733699 571.24189872 921.36306075 587.1875 932.125 C588.00799835 932.67777618 588.8284967 933.23055237 589.67385864 933.80007935 C594.20951314 936.85710556 598.73483156 939.92836628 603.24499512 943.02288818 C604.61643031 943.96124071 605.99084467 944.89525476 607.36828613 945.82476807 C609.2979731 947.12817375 611.21640372 948.44670734 613.1328125 949.76953125 C614.74953857 950.87325073 614.74953857 950.87325073 616.39892578 951.99926758 C620.57124535 955.49088443 623.58478642 959.25435927 625.3125 964.4375 C625.40684974 966.11277791 625.44340807 967.7915788 625.44672108 969.46950817 C625.45340784 971.03859551 625.45340784 971.03859551 625.46022969 972.63938159 C625.45995315 974.3690151 625.45995315 974.3690151 625.45967102 976.1335907 C625.46334771 977.35557515 625.4670244 978.57755961 625.4708125 979.8365739 C625.47994212 983.23483661 625.48454964 986.63305102 625.48720181 990.03132141 C625.49110422 993.69404023 625.50068261 997.35674506 625.50941467 1001.01945496 C625.529181 1009.86814925 625.53924556 1018.71684469 625.54814246 1027.56555554 C625.55252514 1031.73211299 625.55789201 1035.89866916 625.56313133 1040.0652256 C625.58014388 1053.91508947 625.59463815 1067.76495254 625.60188007 1081.61482525 C625.60378998 1085.2092813 625.60571031 1088.80373734 625.60766602 1092.39819336 C625.60814976 1093.2915828 625.6086335 1094.18497225 625.6091319 1095.1054341 C625.61743256 1109.57843116 625.64276998 1124.05134558 625.67524669 1138.52430656 C625.70831469 1153.38184487 625.7263286 1168.23934119 625.72952431 1183.0969165 C625.73168967 1191.43952261 625.74044196 1199.78200822 625.76598549 1208.12457848 C625.78768897 1215.22941443 625.79574468 1222.3341006 625.78601871 1229.43896594 C625.78147292 1233.06329688 625.783376 1236.68731877 625.80278015 1240.31160736 C625.82364842 1244.24336359 625.81342986 1248.1746938 625.80024719 1252.10649109 C625.81121644 1253.24842649 625.82218568 1254.39036188 625.83348733 1255.56690139 C625.77185734 1263.1735855 624.64410566 1268.49738189 619.6015625 1274.4609375 C613.11637158 1279.72825219 607.7768304 1280.65587964 599.5078125 1280.8984375 C592.0104853 1279.81691597 585.62225212 1274.81327359 579.49609375 1270.6171875 C578.65961807 1270.05025177 577.8231424 1269.48331604 576.96131897 1268.89920044 C575.16127532 1267.67853502 573.36268804 1266.45571972 571.56542969 1265.23095703 C566.72598897 1261.93332217 561.87576806 1258.65159272 557.02734375 1255.3671875 C556.03950897 1254.69733826 555.05167419 1254.02748901 554.03390503 1253.33734131 C544.66123269 1246.98533296 535.24195168 1240.70476873 525.8125 1234.4375 C509.8081442 1223.79355065 493.86144612 1213.06562835 477.93554688 1202.3046875 C470.56697055 1197.32642441 463.19799165 1192.34972457 455.79296875 1187.42578125 C450.17350651 1183.68901631 444.57668556 1179.91976515 438.98828125 1176.13671875 C418.09072132 1161.99466101 397.12515814 1147.96818313 376.00708008 1134.15698242 C368.69448006 1129.3666581 361.40114494 1124.57958513 354.32421875 1119.4453125 C346.3132229 1113.63348178 338.02353116 1108.25196755 329.74240112 1102.83544922 C314.17068598 1092.64575228 298.66284889 1082.36590336 283.25 1071.9375 C282.43795105 1071.38826874 281.6259021 1070.83903748 280.78924561 1070.27316284 C275.81021428 1066.90492949 270.83324767 1063.5336551 265.85687256 1060.16149902 C257.9290347 1054.78980741 249.99787884 1049.42304565 242.0625 1044.0625 C240.73945358 1043.1684697 240.73945358 1043.1684697 239.38967896 1042.25637817 C223.4349022 1031.48134282 207.37852797 1020.86410211 191.26464844 1010.32861328 C183.36624659 1005.15552607 175.52213503 999.93773186 167.8359375 994.453125 C159.15633195 988.25980019 150.26750796 982.40578349 141.34469604 976.5703125 C126.40850634 966.79798432 111.52660787 956.94953229 96.75 946.9375 C95.64214142 946.18712967 95.64214142 946.18712967 94.51190186 945.42160034 C90.71286119 942.84791862 86.91498353 940.27252675 83.11767578 937.69628906 C75.20809004 932.33094421 67.29168517 926.97570978 59.37136841 921.6262207 C56.84456984 919.9186456 54.31955878 918.20845531 51.79467773 916.49804688 C34.73915229 904.97710703 17.51852378 893.74431563 0.3125 882.4375 C0.3125 950.7475 0.3125 1019.0575 0.3125 1089.4375 C1.9625 1090.0975 3.6125 1090.7575 5.3125 1091.4375 C6.71663761 1092.27352046 8.09501436 1093.15409758 9.4465332 1094.07275391 C10.23055008 1094.60220612 11.01456696 1095.13165833 11.82234192 1095.67715454 C12.6608519 1096.25033417 13.49936188 1096.82351379 14.36328125 1097.4140625 C15.68588203 1098.30972427 15.68588203 1098.30972427 17.03520203 1099.22348022 C19.90134931 1101.1656098 22.76311144 1103.1141017 25.625 1105.0625 C27.61095353 1106.40940666 29.5972832 1107.75575887 31.58398438 1109.1015625 C34.5257411 1111.09433322 37.4673269 1113.08734731 40.40774536 1115.08209229 C47.02061257 1119.56774497 53.65263149 1124.02186777 60.3125 1128.4375 C71.33079953 1135.75454619 82.28837709 1143.16094932 93.25 1150.5625 C106.73250551 1159.66603245 120.23325174 1168.74008046 133.78106689 1177.74612427 C141.99571349 1183.20810198 150.19141461 1188.69683733 158.36328125 1194.22265625 C159.67369888 1195.10868782 159.67369888 1195.10868782 161.0105896 1196.01261902 C162.80802381 1197.22807904 164.60543773 1198.44356909 166.40283203 1199.65908813 C167.30114746 1200.26658905 168.19946289 1200.87408997 169.125 1201.5 C170.01735352 1202.10355316 170.90970703 1202.70710632 171.82910156 1203.32894897 C188.09146555 1214.32234366 204.45914315 1225.15080411 220.88598633 1235.89672852 C228.60869672 1240.95638341 236.26769617 1246.02997686 243.68310547 1251.53540039 C246.80766458 1253.79570123 250.00231036 1255.93017257 253.22265625 1258.05078125 C253.8092099 1258.4373439 254.39576355 1258.82390656 255.00009155 1259.22218323 C257.40738938 1260.80574925 259.81685355 1262.38590842 262.23022461 1263.96020508 C264.02277442 1265.13113531 265.81047896 1266.30917307 267.59765625 1267.48828125 C268.64832275 1268.17575439 269.69898926 1268.86322754 270.78149414 1269.5715332 C273.3125 1271.4375 273.3125 1271.4375 275.3125 1274.4375 C276.02457438 1279.32266144 276.04102643 1283.2475735 273.4375 1287.5 C269.99464618 1290.6390726 267.96641126 1290.56345942 263.3817277 1290.56745183 C261.46951748 1290.57274446 261.46951748 1290.57274446 259.51867676 1290.57814401 C258.08782189 1290.57702268 256.65696709 1290.57580937 255.22611237 1290.57451439 C253.71238687 1290.57676896 252.19866197 1290.57945984 250.68493795 1290.58255023 C246.49127626 1290.58981508 242.29763242 1290.59077949 238.10396529 1290.590773 C233.55434019 1290.59183901 229.00472314 1290.59862533 224.45510244 1290.6046797 C215.41609053 1290.61577506 206.3770825 1290.62140884 197.33806497 1290.62538858 C186.51735316 1290.63039005 175.69664893 1290.64111639 164.87594158 1290.65187032 C138.71725918 1290.67752425 112.55857382 1290.69254042 86.39988245 1290.70538078 C77.73773313 1290.7096334 69.07558403 1290.71419908 60.41343498 1290.7189641 C14.3835888 1290.7442226 -31.64625772 1290.76627684 -77.67610931 1290.77869225 C-87.67605267 1290.78143047 -97.67599601 1290.78420036 -107.67593934 1290.78703065 C-109.01452938 1290.7874087 -110.35311943 1290.78778499 -111.69170947 1290.78815953 C-154.67924403 1290.80018872 -197.66673811 1290.8298747 -240.6542536 1290.87157464 C-285.49356601 1290.91505791 -330.33285688 1290.94285098 -375.17219126 1290.94816696 C-381.40778838 1290.94890744 -387.64338546 1290.94981813 -393.87898254 1290.95082474 C-395.10625294 1290.95101535 -396.33352334 1290.95120597 -397.59798374 1290.95140236 C-417.36975357 1290.9549195 -437.14147225 1290.97523395 -456.91322327 1291.00162137 C-476.7789261 1291.02773486 -496.64456968 1291.03550664 -516.51028723 1291.02452008 C-528.31928062 1291.01853281 -540.12807339 1291.02650989 -551.93703652 1291.05435092 C-559.82126613 1291.07156669 -567.70535851 1291.07068453 -575.58959096 1291.05498323 C-580.08458062 1291.04654955 -584.57918667 1291.04606626 -589.0741412 1291.06759469 C-593.16459587 1291.08702869 -597.25436001 1291.08338324 -601.34479606 1291.06144121 C-602.8142268 1291.05758161 -604.28370977 1291.06207727 -605.75307935 1291.07602822 C-616.53138451 1291.17172144 -624.45179904 1289.55293394 -632.5625 1282.1875 C-639.86147733 1274.15264718 -640.2681167 1265.68179217 -640.19365788 1255.21820736 C-640.1981387 1253.77586767 -640.20436964 1252.33353255 -640.21218321 1250.89120707 C-640.22857537 1246.9282903 -640.22011278 1242.96575838 -640.20757158 1239.00284195 C-640.1983243 1234.69132261 -640.21225138 1230.37986759 -640.22321075 1226.06836087 C-640.23920044 1218.51207197 -640.24028722 1210.95589443 -640.23161316 1203.39959526 C-640.21874926 1192.16325505 -640.22869829 1180.92701566 -640.24311271 1169.69068152 C-640.26806084 1149.62383765 -640.26993286 1129.55704093 -640.26183859 1109.49018608 C-640.25476999 1091.93013306 -640.25470433 1074.37009836 -640.26170158 1056.81004524 C-640.26261291 1054.45595473 -640.26352367 1052.10186421 -640.26443387 1049.7477737 C-640.26581698 1046.20053632 -640.26720806 1042.65329895 -640.26862001 1039.10606159 C-640.28160316 1006.12219392 -640.286712 973.13833239 -640.2750864 940.15446377 C-640.27442945 938.28892939 -640.27442945 938.28892939 -640.27375922 936.38570744 C-640.27015226 926.28558299 -640.26631756 916.18545861 -640.26246829 906.08533425 C-640.24761719 866.67706238 -640.2564046 827.2688598 -640.28442383 787.8605957 C-640.31583228 743.60068399 -640.33082816 699.3408133 -640.32062382 655.08089024 C-640.31958701 650.3643065 -640.31859978 645.64772275 -640.3176403 640.93113899 C-640.31739142 639.76976733 -640.31714253 638.60839566 -640.3168861 637.41183091 C-640.31344229 619.86054745 -640.32276634 602.30930015 -640.33841133 584.75802422 C-640.35615552 564.80568475 -640.35634807 544.85343347 -640.33305968 524.90109783 C-640.32053272 513.72930589 -640.32185687 502.5577164 -640.34294054 491.38593622 C-640.35563204 483.92923133 -640.35023568 476.47268291 -640.32995573 469.01599512 C-640.31890104 464.76367904 -640.31581133 460.51176197 -640.33463103 456.2594642 C-640.35158579 452.39160688 -640.34556923 448.5244942 -640.32116519 444.65668292 C-640.31641901 443.26562041 -640.32005922 441.87449774 -640.33308421 440.48348811 C-640.41597926 430.97206307 -639.19213785 425.37553098 -632.78416443 418.3510437 C-627.79920852 414.19617985 -622.60828266 410.530149 -617.16015625 407.0078125 C-616.2631601 406.42051361 -615.36616394 405.83321472 -614.44198608 405.2281189 C-612.53405848 403.97963746 -610.62438909 402.73381431 -608.71310425 401.49047852 C-603.69876977 398.22784301 -598.69798683 394.94453653 -593.6953125 391.6640625 C-592.71761398 391.02370056 -591.73991547 390.38333862 -590.73258972 389.72357178 C-583.81872211 385.19184941 -576.94574273 380.60855716 -570.125 375.9375 C-568.21355183 374.63019348 -566.30209302 373.3229025 -564.390625 372.015625 C-563.36259766 371.31244141 -562.33457031 370.60925781 -561.27539062 369.88476562 C-553.32755873 364.45778188 -545.35068452 359.07342144 -537.375 353.6875 C-536.46737915 353.07441986 -535.5597583 352.46133972 -534.62463379 351.8296814 C-518.29582609 340.80674472 -501.86772045 329.93837612 -485.37963867 319.15527344 C-478.06780595 314.36558472 -470.77534303 309.57900335 -463.69921875 304.4453125 C-455.6882229 298.63348178 -447.39853116 293.25196755 -439.11740112 287.83544922 C-423.54568598 277.64575228 -408.03784889 267.36590336 -392.625 256.9375 C-391.81295105 256.38826874 -391.0009021 255.83903748 -390.16424561 255.27316284 C-385.18521428 251.90492949 -380.20824767 248.5336551 -375.23187256 245.16149902 C-367.30403468 239.7898074 -359.37286886 234.42306044 -351.4375 229.0625 C-350.55646606 228.46714447 -349.67543213 227.87178894 -348.7677002 227.25839233 C-332.72447657 216.42343818 -316.57795059 205.74878735 -300.37597656 195.15283203 C-293.06927255 190.36655593 -285.78180722 185.58356964 -278.7109375 180.453125 C-270.64097564 174.59797542 -262.28800785 169.17824661 -253.9460144 163.72119141 C-238.93513814 153.89743768 -223.97664579 144.00041489 -209.125 133.9375 C-208.3837085 133.43544037 -207.64241699 132.93338074 -206.87866211 132.41610718 C-203.06914542 129.83552493 -199.26080127 127.25321876 -195.453125 124.66992188 C-186.84977782 118.83352964 -178.23996313 113.00673164 -169.625 107.1875 C-168.73864868 106.58859955 -167.85229736 105.9896991 -166.93908691 105.37265015 C-150.83873968 94.50010854 -134.63590513 83.78670538 -118.37670898 73.15332031 C-111.07526221 68.37049372 -103.79249382 63.59139156 -96.7265625 58.46484375 C-87.65874398 51.88603757 -78.24461774 45.82423059 -68.875 39.6875 C-64.97032696 37.12526028 -61.06696242 34.56103339 -57.1640625 31.99609375 C-55.71015862 31.04098152 -55.71015862 31.04098152 -54.22688293 30.0665741 C-48.01435868 25.98101749 -41.82246274 21.86613927 -35.6484375 17.72265625 C-34.8810878 17.20816925 -34.1137381 16.69368225 -33.32313538 16.16360474 C-29.75396561 13.76958674 -26.18836829 11.37048851 -22.62768555 8.96386719 C-21.36779242 8.11766485 -20.10778949 7.27162597 -18.84765625 6.42578125 C-17.77136963 5.69915283 -16.69508301 4.97252441 -15.58618164 4.22387695 C-10.36926278 1.00883481 -6.08014201 0.05216518 0 0 Z M0.3125 44.4375 C-0.02999208 74.95189521 -0.29529775 105.46584923 -0.45347994 135.98170852 C-0.47223962 139.58766235 -0.49165455 143.19361239 -0.51147461 146.79956055 C-0.51540927 147.51741329 -0.51934392 148.23526604 -0.52339781 148.9748719 C-0.58859663 160.58514927 -0.7068221 172.19430796 -0.84479194 183.80392257 C-0.9852703 195.72440664 -1.06842361 207.64430657 -1.09882742 219.56558436 C-1.11753069 226.25896687 -1.1642166 232.94965986 -1.27345085 239.64225197 C-1.37550146 245.94596415 -1.40663162 252.24610783 -1.38411522 258.55056763 C-1.38823205 260.8601645 -1.41794535 263.16988423 -1.47558212 265.47876549 C-2.16256481 277.00501084 -2.16256481 277.00501084 1.78484178 287.43476772 C5.27855021 290.85138696 9.19373375 293.28442882 13.52496725 295.50386667 C15.94812743 296.76948998 18.14454986 298.30887403 20.37207031 299.88818359 C21.8756442 300.87475902 23.38185051 301.85733388 24.890625 302.8359375 C25.72850052 303.38476593 26.56637604 303.93359436 27.42964172 304.49905396 C29.21425884 305.66788921 30.99994463 306.83509428 32.78665161 308.00073242 C37.64982314 311.17487426 42.50277143 314.36456348 47.35546875 317.5546875 C48.35194931 318.20963196 49.34842987 318.86457642 50.37510681 319.53936768 C60.59231067 326.26394511 70.74132912 333.08790315 80.875 339.9375 C82.19934555 340.8322403 82.19934555 340.8322403 83.55044556 341.74505615 C90.69968556 346.5758325 97.84478798 351.41271371 104.98962402 356.25 C111.2411171 360.48207811 117.49445961 364.71140648 123.75 368.9375 C124.62571655 369.52931061 125.50143311 370.12112122 126.40368652 370.73086548 C142.389783 381.5282369 158.48000424 392.16413081 174.62475586 402.72265625 C181.91158945 407.49589855 189.18018052 412.26445659 196.23046875 417.3828125 C205.52961082 424.13292525 215.20063528 430.33329317 224.8125 436.625 C228.7281113 439.19295913 232.6420244 441.76348875 236.5546875 444.3359375 C237.49863373 444.95654556 238.44257996 445.57715363 239.41513062 446.21656799 C247.53355807 451.5639059 255.58314387 457.0040532 263.54882812 462.5769043 C264.30873047 463.10453369 265.06863281 463.63216309 265.8515625 464.17578125 C266.48271973 464.61962158 267.11387695 465.06346191 267.76416016 465.52075195 C269.29943038 466.60732626 269.29943038 466.60732626 271.3125 466.4375 C272.06753037 436.11209896 272.6504242 405.78767954 272.99765587 375.45501011 C273.03892249 371.86322048 273.08163577 368.27144942 273.12524414 364.6796875 C273.13390038 363.96472017 273.14255663 363.24975284 273.15147518 362.51311983 C273.29455993 350.9790817 273.55441911 339.45054593 273.85854227 327.91975819 C274.16865761 316.06164704 274.35073984 304.20638753 274.41742033 292.34438908 C274.45840927 285.6904121 274.55989054 279.04640234 274.80159187 272.39577866 C277.07173513 245.39718576 277.07173513 245.39718576 268.09456444 221.09450722 C260.76403863 213.77131357 251.67562655 209.25199031 242.24975872 205.21965313 C236.77008341 202.84052588 232.0445007 199.46499234 227.23046875 195.96484375 C225.60871262 194.8589663 223.98377975 193.75771771 222.35424805 192.66333008 C221.56319672 192.12737213 220.77214539 191.59141418 219.9571228 191.03921509 C202.07153889 178.92526679 184.08156892 166.97757693 166.00268555 155.15405273 C158.69545482 150.36730891 151.40737168 145.5839792 144.3359375 140.453125 C136.26597564 134.59797542 127.91300785 129.17824661 119.5710144 123.72119141 C104.56015804 113.8974507 89.60105141 104.00126746 74.75 93.9375 C74.01934326 93.44241943 73.28868652 92.94733887 72.53588867 92.43725586 C69.5370623 90.40475094 66.53865807 88.37162571 63.54089355 86.33755493 C54.40819525 80.14190993 45.25807527 73.97209836 36.10794067 67.80224609 C33.32937609 65.92852709 30.55124559 64.05416603 27.77319336 62.1796875 C23.67097658 59.41216474 19.56705409 56.64719162 15.46160889 53.88446045 C14.07649663 52.95188664 12.69189475 52.01855413 11.30792236 51.08428955 C9.58301073 49.9199615 7.85604864 48.75867267 6.12890625 47.59765625 C5.2066626 46.97640869 4.28441895 46.35516113 3.33422852 45.71508789 C1.57020277 44.34846596 1.57020277 44.34846596 0.3125 44.4375 Z M313.3125 254.4375 C313.06148102 285.00311859 312.86685345 315.56850115 312.75078138 346.1349045 C312.73702385 349.74472319 312.72278628 353.35453983 312.70825195 356.96435547 C312.70536654 357.68299515 312.70248112 358.40163482 312.69950827 359.14205146 C312.65166244 370.77347931 312.56494378 382.40430824 312.46381924 394.03538096 C312.36089772 405.97283321 312.29984235 417.90997213 312.27752656 429.84784985 C312.26379575 436.55233547 312.2294507 443.25537942 312.14946938 449.95944214 C312.07479163 456.27009714 312.05177439 462.57883578 312.06831551 468.88989067 C312.06528972 471.20549372 312.04341225 473.52116095 312.00123978 475.83638191 C311.30896399 487.84920646 311.30896399 487.84920646 315.67225838 498.51255798 C318.48480203 500.59699701 321.12293953 502.01926945 324.3125 503.4375 C325.97210208 504.51476539 327.61650062 505.61632048 329.23535156 506.75390625 C330.8895559 507.83856541 332.54553431 508.92052299 334.203125 510 C336.05277977 511.21217032 337.90238745 512.42441249 339.75195312 513.63671875 C340.70078369 514.25724121 341.64961426 514.87776367 342.62719727 515.51708984 C368.95120089 532.73946467 368.95120089 532.73946467 379.8125 540.4375 C390.51533187 548.01124733 401.47853802 555.17943086 412.4375 562.375 C426.30522016 571.48229038 440.1396522 580.63155371 453.875 589.9375 C454.61710724 590.44010345 455.35921448 590.94270691 456.12380981 591.46054077 C459.93250432 594.04057104 463.74001697 596.62233903 467.546875 599.20507812 C476.15022214 605.04147033 484.76002617 610.86828425 493.375 616.6875 C494.26234833 617.28706512 495.14969666 617.88663025 496.06393433 618.50436401 C512.07583108 629.31699179 528.18851313 639.97298699 544.35961914 650.54589844 C553.9434509 656.82290194 563.40349647 663.23198855 572.72412109 669.89428711 C578.11152903 674.34560015 578.11152903 674.34560015 584.3125 676.4375 C585.29760655 646.23303816 586.05648487 616.02940921 586.50830917 585.81246741 C586.56207697 582.22968829 586.61773403 578.64694084 586.67456055 575.06420898 C586.6858399 574.35107783 586.69711924 573.63794667 586.70874039 572.90320548 C586.89489956 561.41707858 587.23329485 549.94038942 587.63007023 538.45982776 C588.03505141 526.64148269 588.27158622 514.82800379 588.35830528 503.00300854 C588.41159206 496.37303544 588.54276188 489.7601025 588.85889244 483.13588905 C590.92913991 456.86524508 590.92913991 456.86524508 582.40246248 432.85858488 C572.53272838 422.20855671 559.47934448 415.48159455 546.60648537 409.14812279 C539.53307068 405.62815343 533.10969558 401.23554027 526.65015221 396.71207976 C523.41200655 394.46612979 520.11929087 392.30202711 516.83203125 390.12890625 C510.62495777 385.99507656 504.43951931 381.82977452 498.26171875 377.65234375 C497.38810699 377.06165604 496.51449524 376.47096832 495.6144104 375.86238098 C493.81697619 374.64692096 492.01956227 373.43143091 490.22216797 372.21591187 C489.32385254 371.60841095 488.42553711 371.00091003 487.5 370.375 C486.60764648 369.77144684 485.71529297 369.16789368 484.79589844 368.54605103 C468.53353445 357.55265634 452.16585685 346.72419589 435.73901367 335.97827148 C421.43324962 326.60561442 421.43324962 326.60561442 415.84765625 322.4609375 C408.3362509 316.88972334 400.44145162 311.87229943 392.61907959 306.75314331 C377.56886919 296.90104577 362.57040031 286.97819307 347.6875 276.875 C346.99124512 276.40253845 346.29499023 275.9300769 345.57763672 275.44329834 C342.92682255 273.64427475 340.27631061 271.84480787 337.62643433 270.04440308 C332.17996968 266.34448253 326.72236429 262.66153166 321.25 259 C320.52925293 258.51523193 319.80850586 258.03046387 319.06591797 257.53100586 C316.39806841 255.39504743 316.39806841 255.39504743 313.3125 254.4375 Z M0.3125 590.4375 C-0.67260655 620.64196184 -1.43148487 650.84559079 -1.88330917 681.06253259 C-1.93707697 684.64531171 -1.99273403 688.22805916 -2.04956055 691.81079102 C-2.0608399 692.52392217 -2.07211924 693.23705333 -2.08374039 693.97179452 C-2.26989956 705.45792142 -2.60829485 716.93461058 -3.00507023 728.41517224 C-3.41005141 740.23351731 -3.64658622 752.04699621 -3.73330528 763.87199146 C-3.78659206 770.50196456 -3.91776188 777.1148975 -4.23389244 783.73911095 C-6.29374061 809.99187988 -6.29374061 809.99187988 2.20111418 834.00213289 C11.99648165 844.62082822 24.99052816 851.24096969 37.776968 857.56585121 C45.83820002 861.61894406 53.17265646 866.75815609 60.57124257 871.89374363 C64.45776316 874.5707413 68.39723328 877.16816931 72.33203125 879.7734375 C85.24345435 888.37484005 98.09764308 897.06140816 110.953125 905.74609375 C112.6705577 906.90627253 114.38800519 908.06642941 116.10546875 909.2265625 C116.92957245 909.78327133 117.75367615 910.33998016 118.60275269 910.91355896 C122.83700426 913.77224175 127.0775567 916.62067007 131.33203125 919.44921875 C136.35334693 922.78830398 141.35024776 926.16251605 146.34375 929.54296875 C167.25100542 943.69103357 188.22419071 957.72692095 209.35351562 971.54174805 C218.0815489 977.25843999 226.71200288 983.0710348 235.20828247 989.12727356 C241.679956 993.73010183 248.27689 998.12544221 254.93017578 1002.46044922 C256.87155753 1003.72599846 258.80894672 1004.99751147 260.74609375 1006.26953125 C265.77606861 1010.30450664 265.77606861 1010.30450664 271.3125 1012.4375 C271.56351898 981.87188141 271.75814655 951.30649885 271.87421862 920.7400955 C271.88797615 917.13027681 271.90221372 913.52046017 271.91674805 909.91064453 C271.91963346 909.19200485 271.92251888 908.47336518 271.92549173 907.73294854 C271.97333756 896.10152069 272.06005622 884.47069176 272.16118076 872.83961904 C272.26410228 860.90216679 272.32515765 848.96502787 272.34747344 837.02715015 C272.36120425 830.32266453 272.3955493 823.61962058 272.47553062 816.91555786 C272.55020837 810.60490286 272.57322561 804.29616422 272.55668449 797.98510933 C272.55971028 795.66950628 272.58158775 793.35383905 272.62376022 791.03861809 C273.31663077 779.02194665 273.31663077 779.02194665 268.94660473 768.35853672 C266.13576047 766.27583925 263.50110025 764.85161615 260.3125 763.4375 C258.7110211 762.39732126 257.1245474 761.33310939 255.56420898 760.23217773 C253.98073951 759.19250153 252.39547737 758.15555137 250.80859375 757.12109375 C249.01618743 755.94532353 247.22378865 754.76954181 245.43139648 753.59375 C244.50559784 752.98789062 243.57979919 752.38203125 242.62594604 751.7578125 C228.10116179 742.24878663 213.61443541 732.68725217 199.25 722.9375 C198.57973785 722.48279327 197.90947571 722.02808655 197.21890259 721.55960083 C193.73964187 719.19887206 190.26146347 716.83655391 186.78369141 714.47363281 C178.3435023 708.74062984 169.89266405 703.0233892 161.4375 697.3125 C160.5458313 696.71005463 159.6541626 696.10760925 158.73547363 695.48690796 C142.57800625 684.57677428 126.31885938 673.82462326 110.00244141 663.15380859 C102.69682809 658.36824091 95.41008017 653.58613604 88.33984375 648.45703125 C79.33613956 641.92534388 69.99061674 635.90561432 60.6875 629.8125 C56.79188254 627.25555798 52.89770312 624.6964322 49.00390625 622.13671875 C48.02872543 621.49589859 47.05354462 620.85507843 46.04881287 620.19483948 C39.50417117 615.89032666 32.97752745 611.55973169 26.46484375 607.20703125 C25.62230042 606.64399292 24.77975708 606.08095459 23.91168213 605.50085449 C19.92812199 602.83733396 15.94708552 600.17010139 11.96826172 597.49951172 C10.55829427 596.55562517 9.14830228 595.61177526 7.73828125 594.66796875 C7.09567856 594.23507034 6.45307587 593.80217194 5.79100037 593.3561554 C3.25606852 591.32820741 3.25606852 591.32820741 0.3125 590.4375 Z M313.3125 800.4375 C313.03866142 831.00308382 312.8263406 861.56838676 312.69971605 892.1349045 C312.68470783 895.74472351 312.66917594 899.35454009 312.65332031 902.96435547 C312.65017259 903.68299515 312.64702486 904.40163482 312.64378175 905.14205146 C312.59158603 916.77353976 312.49698406 928.4043153 312.38666645 940.03538096 C312.27438848 951.9728261 312.20778271 963.90989836 312.18343806 975.84784985 C312.16845873 982.55245358 312.13099216 989.25534169 312.04373932 995.95944214 C311.96227145 1002.27019316 311.93716248 1008.57866375 311.95520782 1014.88989067 C311.95190694 1017.20551386 311.9280396 1019.52121341 311.8820343 1021.83638191 C311.1364851 1032.92954831 311.1364851 1032.92954831 314.48129082 1043.12948191 C317.63289959 1046.1890015 321.30525676 1047.79084772 325.3125 1049.4375 C326.87454981 1050.436228 328.41786747 1051.46615481 329.92382812 1052.54760742 C330.64342209 1053.03507446 331.36301605 1053.5225415 332.10441589 1054.02478027 C332.84339615 1054.52578247 333.5823764 1055.02678467 334.34375 1055.54296875 C355.3375544 1069.75160801 376.40119616 1083.84228433 397.6171875 1097.7175293 C404.9300281 1102.50802151 412.22361763 1107.29524261 419.30078125 1112.4296875 C427.3117771 1118.24151822 435.60146884 1123.62303245 443.88259888 1129.03955078 C459.45430176 1139.2292397 474.96253938 1149.50853813 490.375 1159.9375 C491.18239624 1160.48374023 491.98979248 1161.02998047 492.82165527 1161.59277344 C496.94567813 1164.38354886 501.06853742 1167.17603769 505.19091797 1169.96923828 C526.41086103 1184.34384041 547.6534516 1198.68697816 568.96234131 1212.92947388 C570.26838219 1213.80264984 571.57393288 1214.67655949 572.87896729 1215.55123901 C574.63912499 1216.73049693 576.40123993 1217.90676205 578.1640625 1219.08203125 C579.14197754 1219.73534424 580.11989258 1220.38865723 581.12744141 1221.06176758 C583.02319398 1222.52630012 583.02319398 1222.52630012 584.3125 1222.4375 C584.56351898 1191.87188141 584.75814655 1161.30649885 584.87421862 1130.7400955 C584.88797615 1127.13027681 584.90221372 1123.52046017 584.91674805 1119.91064453 C584.91963346 1119.19200485 584.92251888 1118.47336518 584.92549173 1117.73294854 C584.97333756 1106.10152069 585.06005622 1094.47069176 585.16118076 1082.83961904 C585.26410228 1070.90216679 585.32515765 1058.96502787 585.34747344 1047.02715015 C585.36120425 1040.32266453 585.3955493 1033.61962058 585.47553062 1026.91555786 C585.55020837 1020.60490286 585.57322561 1014.29616422 585.55668449 1007.98510933 C585.55971028 1005.66950628 585.58158775 1003.35383905 585.62376022 1001.03861809 C586.32127364 988.99037895 586.32127364 988.99037895 581.89640236 978.32614422 C579.0995737 976.25736947 576.4948144 974.81550344 573.3125 973.4375 C572.18654777 972.70485481 571.07516632 971.94835643 569.9921875 971.15356445 C569.06664062 970.542146 568.14109375 969.93072754 567.1875 969.30078125 C566.09228027 968.5744751 564.99706055 967.84816895 563.86865234 967.09985352 C563.29346863 966.71983185 562.71828491 966.33981018 562.12567139 965.94827271 C558.84285356 963.77875303 555.56586991 961.60045832 552.2890625 959.421875 C551.22288193 958.71316002 551.22288193 958.71316002 550.13516235 957.99012756 C544.51902348 954.25193572 538.92403041 950.48308691 533.3359375 946.703125 C532.47381653 946.12001556 531.61169556 945.53690613 530.72344971 944.93612671 C528.94630245 943.73396776 527.16918283 942.53176797 525.39208984 941.32952881 C507.26773266 929.06924702 489.05139112 916.95766991 470.73974609 904.97875977 C456.43311843 895.60551707 456.43311843 895.60551707 450.84765625 891.4609375 C443.33845605 885.8913589 435.44604421 880.87542615 427.62594604 875.7578125 C413.10118713 866.24880321 398.6137271 856.68826428 384.25 846.9375 C383.59136963 846.49043701 382.93273926 846.04337402 382.25415039 845.58276367 C379.52910236 843.73256981 376.80437648 841.88190322 374.0802002 840.03042603 C365.11670522 833.94075939 356.13029403 827.88501891 347.14529419 821.82714844 C344.31721572 819.92032012 341.48950886 818.01294182 338.66186523 816.10546875 C336.90871164 814.92314708 335.15553873 813.74085406 333.40234375 812.55859375 C332.61625732 812.02830063 331.8301709 811.49800751 331.02026367 810.9516449 C329.52954377 809.94671286 328.03779244 808.94330874 326.54489136 807.94161987 C324.96404911 806.8764947 323.38883851 805.80298904 321.81765747 804.72366333 C321.00972748 804.17298187 320.20179749 803.62230042 319.36938477 803.05493164 C318.63929703 802.55328995 317.90920929 802.05164825 317.15699768 801.5348053 C315.38373037 800.26707534 315.38373037 800.26707534 313.3125 800.4375 Z " fill="#1F4858" transform="translate(639.6875,-0.4375)"/>
<path d="M0 0 C0.65677734 -0.03287109 1.31355469 -0.06574219 1.99023438 -0.09960938 C11.55693245 -0.20128443 19.73070853 6.13537717 27.32421875 11.35546875 C28.15786453 11.92098953 28.99151031 12.48651031 29.85041809 13.06916809 C31.6388873 14.28330378 33.42551927 15.50014954 35.21044922 16.71948242 C39.0381177 19.33412906 42.87479512 21.93541789 46.71109009 24.53738403 C48.68871761 25.87876459 50.66590822 27.22078951 52.64266968 28.56344604 C61.99458497 34.91227806 71.39810778 41.18185858 80.8125 47.4375 C95.313015 57.07899655 109.75470201 66.80482458 124.17791748 76.56149292 C140.14918146 87.35982558 156.22389912 97.99599112 172.36010742 108.54614258 C180.26247157 113.72193792 188.11049201 118.94255119 195.80078125 124.4296875 C204.42095079 130.58023598 213.24701051 136.39558455 222.10891724 142.19042969 C237.60600093 152.32861606 253.03715463 162.56003291 268.375 172.9375 C269.18732086 173.48691254 269.99964172 174.03632507 270.83657837 174.60238647 C275.81533545 177.97043611 280.79202559 181.34153007 285.76812744 184.71350098 C293.6959653 190.08519259 301.62712116 195.45195435 309.5625 200.8125 C310.44453094 201.4085202 311.32656189 202.00454041 312.23532104 202.61862183 C328.1900978 213.39365718 344.24647203 224.01089789 360.36035156 234.54638672 C368.26267442 239.72204363 376.11058229 244.9426156 383.80078125 250.4296875 C392.42095079 256.58023598 401.24701051 262.39558455 410.10891724 268.19042969 C425.60600093 278.32861606 441.03715463 288.56003291 456.375 298.9375 C457.18732086 299.48691254 457.99964172 300.03632507 458.83657837 300.60238647 C463.81533545 303.97043611 468.79202559 307.34153007 473.76812744 310.71350098 C481.6959653 316.08519259 489.62712116 321.45195435 497.5625 326.8125 C498.44453094 327.4085202 499.32656189 328.00454041 500.23532104 328.61862183 C516.1900978 339.39365718 532.24647203 350.01089789 548.36035156 360.54638672 C557.01244575 366.2130591 565.56834379 371.97267953 573.98800659 377.97964478 C579.14998202 381.65039465 584.38665969 385.1929043 589.671875 388.68359375 C590.44610809 389.19527603 591.22034119 389.70695831 592.01803589 390.23414612 C595.17198371 392.31557244 598.32817718 394.39350713 601.48828125 396.46557617 C603.84458942 398.01226028 606.19600184 399.56616555 608.546875 401.12109375 C609.60935455 401.81337318 609.60935455 401.81337318 610.69329834 402.51963806 C617.44691701 406.99893614 622.60776636 411.62722751 625.3125 419.4375 C625.8747398 423.52883437 625.85287252 427.57209133 625.82043457 431.69689941 C625.82667453 432.91907244 625.8329145 434.14124547 625.83934355 435.40045404 C625.85249968 438.77632171 625.84781749 442.15129403 625.83539867 445.52710652 C625.8263268 449.17408214 625.84032846 452.82098104 625.85131836 456.46794128 C625.86908546 463.60573837 625.86527171 470.743367 625.8536678 477.88117063 C625.8446266 483.68327106 625.84341244 489.48532435 625.84776306 495.28742981 C625.84837599 496.11386912 625.84898893 496.94030843 625.84962043 497.79179135 C625.85089936 499.47079624 625.85219621 501.14980112 625.8535108 502.82880598 C625.86491129 518.56515838 625.85181123 534.3014175 625.83030933 550.0377546 C625.81243882 563.53416826 625.81554308 577.03044429 625.83398438 590.52685547 C625.85540047 606.20769373 625.8638127 621.88845028 625.85153532 637.56930113 C625.85026115 639.24205747 625.84900367 640.91481382 625.84776306 642.58757019 C625.84714596 643.41055356 625.84652886 644.23353693 625.84589306 645.08145919 C625.84244237 650.87519302 625.84826242 656.66887492 625.85768127 662.46260071 C625.86891086 669.52525388 625.86584112 676.58772927 625.8445583 683.65036213 C625.83406068 687.25243227 625.82990375 690.85420622 625.84315491 694.45627403 C625.85731184 698.36371629 625.84038443 702.27067573 625.82043457 706.17810059 C625.82935746 707.31273444 625.83828034 708.44736829 625.84747362 709.61638498 C625.77079845 717.35322788 624.5331679 722.62582294 619.41796875 728.6796875 C614.11274423 733.19615155 609.91636825 735.10987561 602.875 735.75 C594.93828358 735.0537968 588.87510679 731.15543582 582.41796875 726.8203125 C581.5701886 726.26016449 580.72240845 725.70001648 579.84893799 725.12289429 C577.06061863 723.2773405 574.28024079 721.42019706 571.5 719.5625 C569.52971368 718.25405206 567.55908601 716.94611801 565.58813477 715.63867188 C544.18811047 701.42366657 522.90908373 687.02799178 501.63537598 672.625 C495.3838829 668.39292189 489.13054039 664.16359352 482.875 659.9375 C481.99928345 659.34568939 481.12356689 658.75387878 480.22131348 658.14413452 C464.235217 647.3467631 448.14499576 636.71086919 432.00024414 626.15234375 C424.68985484 621.36366243 417.39891845 616.57796983 410.32421875 611.4453125 C402.3132229 605.63348178 394.02353116 600.25196755 385.74240112 594.83544922 C370.17068598 584.64575228 354.66284889 574.36590336 339.25 563.9375 C338.43795105 563.38826874 337.6259021 562.83903748 336.78924561 562.27316284 C331.81021428 558.90492949 326.83324767 555.5336551 321.85687256 552.16149902 C313.9290347 546.78980741 305.99787884 541.42304565 298.0625 536.0625 C296.73945358 535.1684697 296.73945358 535.1684697 295.38967896 534.25637817 C279.4349022 523.48134282 263.37852797 512.86410211 247.26464844 502.32861328 C239.36624659 497.15552607 231.52213503 491.93773186 223.8359375 486.453125 C215.15633195 480.25980019 206.26750796 474.40578349 197.34469604 468.5703125 C182.40850352 458.79798247 167.52669239 448.94941096 152.75 438.9375 C152.00843658 438.43525909 151.26687317 437.93301819 150.50283813 437.41555786 C146.69359551 434.83515961 142.88552852 432.25303282 139.078125 429.66992188 C130.47477786 423.83352967 121.86497383 418.00671575 113.25 412.1875 C112.36265167 411.58793488 111.47530334 410.98836975 110.56106567 410.37063599 C94.54916892 399.55800821 78.43648687 388.90201301 62.26538086 378.32910156 C54.53610435 373.26670689 46.86479587 368.16413904 39.3515625 362.78515625 C26.8821686 354.02855941 14.05759245 345.78773299 1.3125 337.4375 C0.9825 406.0775 0.6525 474.7175 0.3125 545.4375 C-3.3175 546.4275 -6.9475 547.4175 -10.6875 548.4375 C-13.37807121 549.83919083 -15.74272004 551.17965114 -18.23046875 552.85546875 C-18.90087692 553.29054245 -19.5712851 553.72561615 -20.26200867 554.1738739 C-22.41509174 555.57880834 -24.55217607 557.00574402 -26.6875 558.4375 C-28.13230147 559.3966814 -29.5771259 560.35582822 -31.02197266 561.31494141 C-34.8699072 563.88100899 -38.7007766 566.47155632 -42.5267334 569.07025146 C-45.09439385 570.81410871 -47.66457995 572.55418989 -50.23535156 574.29345703 C-53.88320914 576.7618799 -57.53018512 579.23159545 -61.17626953 581.70263672 C-70.09255501 587.74536583 -79.01201011 593.78337333 -87.9375 599.8125 C-88.81599609 600.40613342 -89.69449219 600.99976685 -90.59960938 601.61138916 C-106.64539418 612.44808952 -122.79445492 623.12451587 -138.99902344 633.72216797 C-146.30572745 638.50844407 -153.59319278 643.29143036 -160.6640625 648.421875 C-168.73402436 654.27702458 -177.08699215 659.69675339 -185.4289856 665.15380859 C-200.43986186 674.97756232 -215.39835421 684.87458511 -230.25 694.9375 C-230.9912915 695.43955963 -231.73258301 695.94161926 -232.49633789 696.45889282 C-236.30585458 699.03947507 -240.11419873 701.62178124 -243.921875 704.20507812 C-252.52522218 710.04147036 -261.13503687 715.86826836 -269.75 721.6875 C-270.63635132 722.28640045 -271.52270264 722.8853009 -272.43591309 723.50234985 C-288.53626032 734.37489146 -304.73909487 745.08829462 -320.99829102 755.72167969 C-328.3052356 760.50812369 -335.59295536 765.29125809 -342.6640625 770.421875 C-350.73402436 776.27702458 -359.08699215 781.69675339 -367.4289856 787.15380859 C-382.43986186 796.97756232 -397.39835421 806.87458511 -412.25 816.9375 C-412.9912915 817.43955963 -413.73258301 817.94161926 -414.49633789 818.45889282 C-418.30585458 821.03947507 -422.11419873 823.62178124 -425.921875 826.20507812 C-434.52522214 832.04147033 -443.13502617 837.86828425 -451.75 843.6875 C-452.63734833 844.28706512 -453.52469666 844.88663025 -454.43893433 845.50436401 C-470.45083108 856.31699179 -486.56351313 866.97298699 -502.73461914 877.54589844 C-510.6332613 882.71915438 -518.477626 887.93709763 -526.1640625 893.421875 C-534.84608357 899.6169234 -543.73743923 905.47251156 -552.66271973 911.30963135 C-568.1624101 921.45012871 -583.59831333 931.68079256 -598.9375 942.0625 C-600.04780579 942.81350479 -600.04780579 942.81350479 -601.18054199 943.5796814 C-604.66703903 945.93904188 -608.15000976 948.3033397 -611.62695312 950.67675781 C-614.44114651 952.59664634 -617.269793 954.49286889 -620.10742188 956.37792969 C-621.54562895 957.34301546 -622.98378182 958.30818201 -624.421875 959.2734375 C-625.07867249 959.70403473 -625.73546997 960.13463196 -626.41217041 960.57827759 C-632.13458161 964.44302301 -636.50182768 968.68178556 -638.6875 975.4375 C-639.0175 975.4375 -639.3475 975.4375 -639.6875 975.4375 C-639.77308257 923.4011419 -639.85268686 871.36477828 -639.8992157 819.32836914 C-639.89990598 818.55834716 -639.90059627 817.78832518 -639.90130747 816.9949692 C-639.91627163 800.26075394 -639.9301226 783.52653792 -639.94282665 766.79232079 C-639.94906339 758.58599364 -639.95554615 750.3796667 -639.9621582 742.17333984 C-639.962812 741.35670696 -639.96346579 740.54007408 -639.9641394 739.69869475 C-639.98545026 713.22409469 -640.02300987 686.74954794 -640.0689861 660.27498019 C-640.11614263 633.07138135 -640.14692572 605.86781203 -640.15707495 578.66417301 C-640.15851575 574.82280716 -640.16014393 570.98144141 -640.16188622 567.14007568 C-640.16222333 566.38403175 -640.16256045 565.62798783 -640.16290778 564.84903347 C-640.16881886 552.67347594 -640.19201585 540.4980096 -640.22166017 528.32248927 C-640.25108664 516.0851858 -640.26234236 503.84797284 -640.25500689 491.61063522 C-640.2515362 484.97884015 -640.256801 478.34725717 -640.28352737 471.71549416 C-640.30780661 465.64677921 -640.30912172 459.57851312 -640.29199447 453.50977778 C-640.28987676 451.31179441 -640.29626401 449.11378336 -640.31191591 446.91585469 C-640.33193582 443.93154684 -640.32119703 440.94886646 -640.30273914 437.96458435 C-640.32244175 436.67974308 -640.32244175 436.67974308 -640.34254238 435.36894542 C-640.24236142 428.21804148 -637.54614578 423.57117731 -632.78416443 418.3510437 C-627.79920852 414.19617985 -622.60828266 410.530149 -617.16015625 407.0078125 C-616.2631601 406.42051361 -615.36616394 405.83321472 -614.44198608 405.2281189 C-612.53405848 403.97963746 -610.62438909 402.73381431 -608.71310425 401.49047852 C-603.69876977 398.22784301 -598.69798683 394.94453653 -593.6953125 391.6640625 C-592.71761398 391.02370056 -591.73991547 390.38333862 -590.73258972 389.72357178 C-583.81872211 385.19184941 -576.94574273 380.60855716 -570.125 375.9375 C-568.21355183 374.63019348 -566.30209302 373.3229025 -564.390625 372.015625 C-563.36259766 371.31244141 -562.33457031 370.60925781 -561.27539062 369.88476562 C-553.32755873 364.45778188 -545.35068452 359.07342144 -537.375 353.6875 C-536.46737915 353.07441986 -535.5597583 352.46133972 -534.62463379 351.8296814 C-518.29582609 340.80674472 -501.86772045 329.93837612 -485.37963867 319.15527344 C-478.06780595 314.36558472 -470.77534303 309.57900335 -463.69921875 304.4453125 C-455.6882229 298.63348178 -447.39853116 293.25196755 -439.11740112 287.83544922 C-423.54568598 277.64575228 -408.03784889 267.36590336 -392.625 256.9375 C-391.81295105 256.38826874 -391.0009021 255.83903748 -390.16424561 255.27316284 C-385.18521428 251.90492949 -380.20824767 248.5336551 -375.23187256 245.16149902 C-367.30403468 239.7898074 -359.37286886 234.42306044 -351.4375 229.0625 C-350.55646606 228.46714447 -349.67543213 227.87178894 -348.7677002 227.25839233 C-332.72447657 216.42343818 -316.57795059 205.74878735 -300.37597656 195.15283203 C-293.06927255 190.36655593 -285.78180722 185.58356964 -278.7109375 180.453125 C-270.64097564 174.59797542 -262.28800785 169.17824661 -253.9460144 163.72119141 C-238.93513814 153.89743768 -223.97664579 144.00041489 -209.125 133.9375 C-208.3837085 133.43544037 -207.64241699 132.93338074 -206.87866211 132.41610718 C-203.06914542 129.83552493 -199.26080127 127.25321876 -195.453125 124.66992188 C-186.84977782 118.83352964 -178.23996313 113.00673164 -169.625 107.1875 C-168.73864868 106.58859955 -167.85229736 105.9896991 -166.93908691 105.37265015 C-150.83873968 94.50010854 -134.63590513 83.78670538 -118.37670898 73.15332031 C-111.07526221 68.37049372 -103.79249382 63.59139156 -96.7265625 58.46484375 C-87.65874398 51.88603757 -78.24461774 45.82423059 -68.875 39.6875 C-64.97032696 37.12526028 -61.06696242 34.56103339 -57.1640625 31.99609375 C-55.71015862 31.04098152 -55.71015862 31.04098152 -54.22688293 30.0665741 C-48.01435868 25.98101749 -41.82246274 21.86613927 -35.6484375 17.72265625 C-34.8810878 17.20816925 -34.1137381 16.69368225 -33.32313538 16.16360474 C-29.75396561 13.76958674 -26.18836829 11.37048851 -22.62768555 8.96386719 C-21.36779242 8.11766485 -20.10778949 7.27162597 -18.84765625 6.42578125 C-17.77136963 5.69915283 -16.69508301 4.97252441 -15.58618164 4.22387695 C-10.36926278 1.00883481 -6.08014201 0.05216518 0 0 Z M0.3125 44.4375 C-0.02999208 74.95189521 -0.29529775 105.46584923 -0.45347994 135.98170852 C-0.47223962 139.58766235 -0.49165455 143.19361239 -0.51147461 146.79956055 C-0.51540927 147.51741329 -0.51934392 148.23526604 -0.52339781 148.9748719 C-0.58859663 160.58514927 -0.7068221 172.19430796 -0.84479194 183.80392257 C-0.9852703 195.72440664 -1.06842361 207.64430657 -1.09882742 219.56558436 C-1.11753069 226.25896687 -1.1642166 232.94965986 -1.27345085 239.64225197 C-1.37550146 245.94596415 -1.40663162 252.24610783 -1.38411522 258.55056763 C-1.38823205 260.8601645 -1.41794535 263.16988423 -1.47558212 265.47876549 C-2.16256481 277.00501084 -2.16256481 277.00501084 1.78484178 287.43476772 C5.27855021 290.85138696 9.19373375 293.28442882 13.52496725 295.50386667 C15.94812743 296.76948998 18.14454986 298.30887403 20.37207031 299.88818359 C21.8756442 300.87475902 23.38185051 301.85733388 24.890625 302.8359375 C25.72850052 303.38476593 26.56637604 303.93359436 27.42964172 304.49905396 C29.21425884 305.66788921 30.99994463 306.83509428 32.78665161 308.00073242 C37.64982314 311.17487426 42.50277143 314.36456348 47.35546875 317.5546875 C48.35194931 318.20963196 49.34842987 318.86457642 50.37510681 319.53936768 C60.59231067 326.26394511 70.74132912 333.08790315 80.875 339.9375 C82.19934555 340.8322403 82.19934555 340.8322403 83.55044556 341.74505615 C90.69968556 346.5758325 97.84478798 351.41271371 104.98962402 356.25 C111.2411171 360.48207811 117.49445961 364.71140648 123.75 368.9375 C124.62571655 369.52931061 125.50143311 370.12112122 126.40368652 370.73086548 C142.389783 381.5282369 158.48000424 392.16413081 174.62475586 402.72265625 C181.91158945 407.49589855 189.18018052 412.26445659 196.23046875 417.3828125 C205.52961082 424.13292525 215.20063528 430.33329317 224.8125 436.625 C228.7281113 439.19295913 232.6420244 441.76348875 236.5546875 444.3359375 C237.49863373 444.95654556 238.44257996 445.57715363 239.41513062 446.21656799 C247.53355807 451.5639059 255.58314387 457.0040532 263.54882812 462.5769043 C264.30873047 463.10453369 265.06863281 463.63216309 265.8515625 464.17578125 C266.48271973 464.61962158 267.11387695 465.06346191 267.76416016 465.52075195 C269.29943038 466.60732626 269.29943038 466.60732626 271.3125 466.4375 C272.06753037 436.11209896 272.6504242 405.78767954 272.99765587 375.45501011 C273.03892249 371.86322048 273.08163577 368.27144942 273.12524414 364.6796875 C273.13390038 363.96472017 273.14255663 363.24975284 273.15147518 362.51311983 C273.29455993 350.9790817 273.55441911 339.45054593 273.85854227 327.91975819 C274.16865761 316.06164704 274.35073984 304.20638753 274.41742033 292.34438908 C274.45840927 285.6904121 274.55989054 279.04640234 274.80159187 272.39577866 C277.07173513 245.39718576 277.07173513 245.39718576 268.09456444 221.09450722 C260.76403863 213.77131357 251.67562655 209.25199031 242.24975872 205.21965313 C236.77008341 202.84052588 232.0445007 199.46499234 227.23046875 195.96484375 C225.60871262 194.8589663 223.98377975 193.75771771 222.35424805 192.66333008 C221.56319672 192.12737213 220.77214539 191.59141418 219.9571228 191.03921509 C202.07153889 178.92526679 184.08156892 166.97757693 166.00268555 155.15405273 C158.69545482 150.36730891 151.40737168 145.5839792 144.3359375 140.453125 C136.26597564 134.59797542 127.91300785 129.17824661 119.5710144 123.72119141 C104.56015804 113.8974507 89.60105141 104.00126746 74.75 93.9375 C74.01934326 93.44241943 73.28868652 92.94733887 72.53588867 92.43725586 C69.5370623 90.40475094 66.53865807 88.37162571 63.54089355 86.33755493 C54.40819525 80.14190993 45.25807527 73.97209836 36.10794067 67.80224609 C33.32937609 65.92852709 30.55124559 64.05416603 27.77319336 62.1796875 C23.67097658 59.41216474 19.56705409 56.64719162 15.46160889 53.88446045 C14.07649663 52.95188664 12.69189475 52.01855413 11.30792236 51.08428955 C9.58301073 49.9199615 7.85604864 48.75867267 6.12890625 47.59765625 C5.2066626 46.97640869 4.28441895 46.35516113 3.33422852 45.71508789 C1.57020277 44.34846596 1.57020277 44.34846596 0.3125 44.4375 Z M313.3125 254.4375 C313.06148102 285.00311859 312.86685345 315.56850115 312.75078138 346.1349045 C312.73702385 349.74472319 312.72278628 353.35453983 312.70825195 356.96435547 C312.70536654 357.68299515 312.70248112 358.40163482 312.69950827 359.14205146 C312.65166244 370.77347931 312.56494378 382.40430824 312.46381924 394.03538096 C312.36089772 405.97283321 312.29984235 417.90997213 312.27752656 429.84784985 C312.26379575 436.55233547 312.2294507 443.25537942 312.14946938 449.95944214 C312.07479163 456.27009714 312.05177439 462.57883578 312.06831551 468.88989067 C312.06528972 471.20549372 312.04341225 473.52116095 312.00123978 475.83638191 C311.30896399 487.84920646 311.30896399 487.84920646 315.67225838 498.51255798 C318.48480203 500.59699701 321.12293953 502.01926945 324.3125 503.4375 C325.97210208 504.51476539 327.61650062 505.61632048 329.23535156 506.75390625 C330.8895559 507.83856541 332.54553431 508.92052299 334.203125 510 C336.05277977 511.21217032 337.90238745 512.42441249 339.75195312 513.63671875 C340.70078369 514.25724121 341.64961426 514.87776367 342.62719727 515.51708984 C368.95120089 532.73946467 368.95120089 532.73946467 379.8125 540.4375 C390.51533187 548.01124733 401.47853802 555.17943086 412.4375 562.375 C426.30522016 571.48229038 440.1396522 580.63155371 453.875 589.9375 C454.61710724 590.44010345 455.35921448 590.94270691 456.12380981 591.46054077 C459.93250432 594.04057104 463.74001697 596.62233903 467.546875 599.20507812 C476.15022214 605.04147033 484.76002617 610.86828425 493.375 616.6875 C494.26234833 617.28706512 495.14969666 617.88663025 496.06393433 618.50436401 C512.07583108 629.31699179 528.18851313 639.97298699 544.35961914 650.54589844 C553.9434509 656.82290194 563.40349647 663.23198855 572.72412109 669.89428711 C578.11152903 674.34560015 578.11152903 674.34560015 584.3125 676.4375 C585.29760655 646.23303816 586.05648487 616.02940921 586.50830917 585.81246741 C586.56207697 582.22968829 586.61773403 578.64694084 586.67456055 575.06420898 C586.6858399 574.35107783 586.69711924 573.63794667 586.70874039 572.90320548 C586.89489956 561.41707858 587.23329485 549.94038942 587.63007023 538.45982776 C588.03505141 526.64148269 588.27158622 514.82800379 588.35830528 503.00300854 C588.41159206 496.37303544 588.54276188 489.7601025 588.85889244 483.13588905 C590.92913991 456.86524508 590.92913991 456.86524508 582.40246248 432.85858488 C572.53272838 422.20855671 559.47934448 415.48159455 546.60648537 409.14812279 C539.53307068 405.62815343 533.10969558 401.23554027 526.65015221 396.71207976 C523.41200655 394.46612979 520.11929087 392.30202711 516.83203125 390.12890625 C510.62495777 385.99507656 504.43951931 381.82977452 498.26171875 377.65234375 C497.38810699 377.06165604 496.51449524 376.47096832 495.6144104 375.86238098 C493.81697619 374.64692096 492.01956227 373.43143091 490.22216797 372.21591187 C489.32385254 371.60841095 488.42553711 371.00091003 487.5 370.375 C486.60764648 369.77144684 485.71529297 369.16789368 484.79589844 368.54605103 C468.53353445 357.55265634 452.16585685 346.72419589 435.73901367 335.97827148 C421.43324962 326.60561442 421.43324962 326.60561442 415.84765625 322.4609375 C408.3362509 316.88972334 400.44145162 311.87229943 392.61907959 306.75314331 C377.56886919 296.90104577 362.57040031 286.97819307 347.6875 276.875 C346.99124512 276.40253845 346.29499023 275.9300769 345.57763672 275.44329834 C342.92682255 273.64427475 340.27631061 271.84480787 337.62643433 270.04440308 C332.17996968 266.34448253 326.72236429 262.66153166 321.25 259 C320.52925293 258.51523193 319.80850586 258.03046387 319.06591797 257.53100586 C316.39806841 255.39504743 316.39806841 255.39504743 313.3125 254.4375 Z " fill="#1F4858" transform="translate(639.6875,-0.4375)"/>
<path d="M0 0 C0 68.64 0 137.28 0 208 C2.475 208.99 2.475 208.99 5 210 C6.40413761 210.83602046 7.78251436 211.71659758 9.1340332 212.63525391 C10.31005852 213.42943222 10.31005852 213.42943222 11.50984192 214.23965454 C12.3483519 214.81283417 13.18686188 215.38601379 14.05078125 215.9765625 C14.93251511 216.57367035 15.81424896 217.1707782 16.72270203 217.78598022 C19.58884931 219.7281098 22.45061144 221.6766017 25.3125 223.625 C27.29845353 224.97190666 29.2847832 226.31825887 31.27148438 227.6640625 C34.2132411 229.65683322 37.1548269 231.64984731 40.09524536 233.64459229 C46.70811257 238.13024497 53.34013149 242.58436777 60 247 C71.01829953 254.31704619 81.97587709 261.72344932 92.9375 269.125 C106.42000551 278.22853245 119.92075174 287.30258046 133.46856689 296.30862427 C141.68321349 301.77060198 149.87891461 307.25933733 158.05078125 312.78515625 C158.92439301 313.37584396 159.79800476 313.96653168 160.6980896 314.57511902 C162.49552381 315.79057904 164.29293773 317.00606909 166.09033203 318.22158813 C166.98864746 318.82908905 167.88696289 319.43658997 168.8125 320.0625 C170.15103027 320.96782974 170.15103027 320.96782974 171.51660156 321.89144897 C187.77896555 332.88484366 204.14664315 343.71330411 220.57348633 354.45922852 C228.29619672 359.51888341 235.95519617 364.59247686 243.37060547 370.09790039 C246.49516458 372.35820123 249.68981036 374.49267257 252.91015625 376.61328125 C253.4967099 376.9998439 254.08326355 377.38640656 254.68759155 377.78468323 C257.09488938 379.36824925 259.50435355 380.94840842 261.91772461 382.52270508 C263.71027442 383.69363531 265.49797896 384.87167307 267.28515625 386.05078125 C268.33582275 386.73825439 269.38648926 387.42572754 270.46899414 388.1340332 C273 390 273 390 275 393 C275.71207438 397.88516144 275.72852643 401.8100735 273.125 406.0625 C269.69292126 409.19174826 267.6844925 409.12484843 263.11542928 409.1241985 C261.85096098 409.12644579 260.58649267 409.12869308 259.28370714 409.13100848 C257.86454979 409.12844232 256.44539261 409.12578539 255.02623558 409.12304783 C253.52483313 409.12378677 252.02343084 409.12496461 250.52202904 409.12654433 C246.36264554 409.12963073 242.20328625 409.12642391 238.04390454 409.12226619 C233.53159393 409.1188468 229.01928591 409.12119995 224.50697482 409.12284368 C216.5875144 409.12492272 208.66806147 409.12326465 200.74860191 409.11920547 C188.97253627 409.11318628 177.19647537 409.11286819 165.42040847 409.11374746 C145.61404545 409.1150634 125.80768575 409.11171226 106.0013237 409.10573006 C86.38163613 409.09981939 66.76194995 409.0959654 47.14226151 409.09487724 C45.31456949 409.09477413 45.31456949 409.09477413 43.44995441 409.09466894 C37.26237285 409.09433062 31.07479129 409.09402923 24.88720973 409.09374207 C-18.97525956 409.0916399 -62.83772704 409.08489765 -106.70019531 409.07543945 C-149.32031255 409.06625974 -191.94042885 409.05917381 -234.56054688 409.05493164 C-235.87355897 409.05480011 -237.18657106 409.05466859 -238.5393714 409.05453308 C-251.72480069 409.05321459 -264.91022999 409.05193877 -278.09565928 409.05069422 C-304.95752085 409.04815779 -331.81938238 409.04533654 -358.6812439 409.04234314 C-359.91639408 409.04220585 -361.15154426 409.04206856 -362.42412324 409.04192711 C-444.94941625 409.03272156 -527.47470825 409.0168758 -610 409 C-597.329019 398.82982842 -583.61779584 390.01772168 -570.03219604 381.1328125 C-555.09600352 371.36048247 -540.21419239 361.51191096 -525.4375 351.5 C-524.32515488 350.74663864 -524.32515488 350.74663864 -523.19033813 349.97805786 C-519.38109551 347.39765961 -515.57302852 344.81553282 -511.765625 342.23242188 C-503.16227782 336.39602964 -494.55246313 330.56923164 -485.9375 324.75 C-484.60797302 323.85164932 -484.60797302 323.85164932 -483.25158691 322.93515015 C-467.15123968 312.06260854 -450.94840513 301.34920538 -434.68920898 290.71582031 C-427.3822644 285.92937631 -420.09454464 281.14624191 -413.0234375 276.015625 C-404.95347564 270.16047542 -396.60050785 264.74074661 -388.2585144 259.28369141 C-373.24763814 249.45993768 -358.28914579 239.56291489 -343.4375 229.5 C-342.6962085 228.99794037 -341.95491699 228.49588074 -341.19116211 227.97860718 C-337.38164542 225.39802493 -333.57330127 222.81571876 -329.765625 220.23242188 C-321.16227782 214.39602964 -312.55246313 208.56923164 -303.9375 202.75 C-303.05114868 202.15109955 -302.16479736 201.5521991 -301.25158691 200.93515015 C-285.15123968 190.06260854 -268.94840513 179.34920538 -252.68920898 168.71582031 C-245.3822644 163.92937631 -238.09454464 159.14624191 -231.0234375 154.015625 C-222.95347564 148.16047542 -214.60050785 142.74074661 -206.2585144 137.28369141 C-191.24763814 127.45993768 -176.28914579 117.56291489 -161.4375 107.5 C-160.6962085 106.99794037 -159.95491699 106.49588074 -159.19116211 105.97860718 C-155.38164542 103.39802493 -151.57330127 100.81571876 -147.765625 98.23242188 C-139.16227782 92.39602964 -130.55246313 86.56923164 -121.9375 80.75 C-121.05114868 80.15109955 -120.16479736 79.5521991 -119.25158691 78.93515015 C-103.15123968 68.06260854 -86.94840513 57.34920538 -70.68920898 46.71582031 C-62.8314445 41.56861128 -55.03801481 36.38138592 -47.43505859 30.86412048 C-39.62112593 25.23045742 -31.53301427 19.99544399 -23.48168945 14.70996094 C-20.64475722 12.84693056 -17.81149154 10.97841463 -14.97851562 9.109375 C-13.17729511 7.92415726 -11.37587069 6.73924932 -9.57421875 5.5546875 C-8.72647385 4.995466 -7.87872894 4.43624451 -7.0052948 3.8600769 C-6.22970718 3.35179352 -5.45411957 2.84351013 -4.6550293 2.31982422 C-3.97111618 1.87033417 -3.28720306 1.42084412 -2.58256531 0.95773315 C-1 0 -1 0 0 0 Z " fill="#FBB421" transform="translate(640,881)"/>
<path d="M0 0 C0 69.3 0 138.6 0 210 C-3.63 210.99 -7.26 211.98 -11 213 C-13.69057121 214.40169083 -16.05522004 215.74215114 -18.54296875 217.41796875 C-19.21337692 217.85304245 -19.8837851 218.28811615 -20.57450867 218.7363739 C-22.72759174 220.14130834 -24.86467607 221.56824402 -27 223 C-28.44480147 223.9591814 -29.8896259 224.91832822 -31.33447266 225.87744141 C-35.1824072 228.44350899 -39.0132766 231.03405632 -42.8392334 233.63275146 C-45.40689385 235.37660871 -47.97707995 237.11668989 -50.54785156 238.85595703 C-54.19570914 241.3243799 -57.84268512 243.79409545 -61.48876953 246.26513672 C-70.40505501 252.30786583 -79.32451011 258.34587333 -88.25 264.375 C-89.12849609 264.96863342 -90.00699219 265.56226685 -90.91210938 266.17388916 C-106.95789418 277.01058952 -123.10695492 287.68701587 -139.31152344 298.28466797 C-146.61822745 303.07094407 -153.90569278 307.85393036 -160.9765625 312.984375 C-169.04652436 318.83952458 -177.39949215 324.25925339 -185.7414856 329.71630859 C-200.75236186 339.54006232 -215.71085421 349.43708511 -230.5625 359.5 C-231.3037915 360.00205963 -232.04508301 360.50411926 -232.80883789 361.02139282 C-236.61835458 363.60197507 -240.42669873 366.18428124 -244.234375 368.76757812 C-252.83772218 374.60397036 -261.44753687 380.43076836 -270.0625 386.25 C-270.94885132 386.84890045 -271.83520264 387.4478009 -272.74841309 388.06484985 C-288.84876032 398.93739146 -305.05159487 409.65079462 -321.31079102 420.28417969 C-328.6177356 425.07062369 -335.90545536 429.85375809 -342.9765625 434.984375 C-351.04652436 440.83952458 -359.39949215 446.25925339 -367.7414856 451.71630859 C-382.75236186 461.54006232 -397.71085421 471.43708511 -412.5625 481.5 C-413.3037915 482.00205963 -414.04508301 482.50411926 -414.80883789 483.02139282 C-418.61835458 485.60197507 -422.42669873 488.18428124 -426.234375 490.76757812 C-434.83772214 496.60397033 -443.44752617 502.43078425 -452.0625 508.25 C-452.94984833 508.84956512 -453.83719666 509.44913025 -454.75143433 510.06686401 C-470.76333108 520.87949179 -486.87601313 531.53548699 -503.04711914 542.10839844 C-510.9457613 547.28165438 -518.790126 552.49959763 -526.4765625 557.984375 C-535.15858357 564.1794234 -544.04993923 570.03501156 -552.97521973 575.87213135 C-568.4749101 586.01262871 -583.91081333 596.24329256 -599.25 606.625 C-600.36030579 607.37600479 -600.36030579 607.37600479 -601.49304199 608.1421814 C-604.97953903 610.50154188 -608.46250976 612.8658397 -611.93945312 615.23925781 C-614.75364651 617.15914634 -617.582293 619.05536889 -620.41992188 620.94042969 C-621.85812895 621.90551546 -623.29628182 622.87068201 -624.734375 623.8359375 C-625.39117249 624.26653473 -626.04796997 624.69713196 -626.72467041 625.14077759 C-632.44708161 629.00552301 -636.81432768 633.24428556 -639 640 C-639.33 640 -639.66 640 -640 640 C-640.25697584 612.62744286 -640.45094475 585.2550665 -640.56993389 557.88154602 C-640.62665173 545.17143428 -640.70397487 532.46207205 -640.82983398 519.75244141 C-640.93948264 508.6745097 -641.01044226 497.59712077 -641.03497344 486.5186615 C-641.0493135 480.65248421 -641.08300307 474.78785967 -641.16303062 468.92218018 C-641.23776854 463.39939801 -641.26071453 457.87880587 -641.24418449 452.35556602 C-641.24720771 450.3302081 -641.26905192 448.30477605 -641.31126022 446.27985573 C-641.6143251 430.98882513 -641.6143251 430.98882513 -637.64079952 426.09349918 C-634.83904249 424.0211289 -632.13644075 422.50230816 -629 421 C-627.33803832 419.91290541 -625.68891833 418.80556575 -624.0612793 417.66772461 C-622.40066824 416.57660779 -620.73826031 415.4882216 -619.07421875 414.40234375 C-618.17326477 413.81099136 -617.27231079 413.21963898 -616.34405518 412.61036682 C-614.43936579 411.36027727 -612.533969 410.11126495 -610.62789917 408.86328125 C-606.62825832 406.24376162 -602.63297815 403.61764449 -598.63874817 400.98988342 C-596.74566822 399.74446276 -594.85198536 398.49995782 -592.95756531 397.25657654 C-584.92080159 391.97351728 -576.95988164 386.5822937 -569.03515625 381.1328125 C-560.34568482 375.16856978 -551.6095265 369.27296455 -542.875 363.375 C-541.50559265 362.45006241 -541.50559265 362.45006241 -540.10852051 361.50643921 C-523.72260585 350.44589292 -507.2381736 339.53879347 -490.69287109 328.71826172 C-483.38472365 323.93097825 -476.09573173 319.14710323 -469.0234375 314.015625 C-460.95347564 308.16047542 -452.60050785 302.74074661 -444.2585144 297.28369141 C-429.24763814 287.45993768 -414.28914579 277.56291489 -399.4375 267.5 C-398.6962085 266.99794037 -397.95491699 266.49588074 -397.19116211 265.97860718 C-393.38164542 263.39802493 -389.57330127 260.81571876 -385.765625 258.23242188 C-377.16227782 252.39602964 -368.55246313 246.56923164 -359.9375 240.75 C-359.05114868 240.15109955 -358.16479736 239.5521991 -357.25158691 238.93515015 C-341.15123968 228.06260854 -324.94840513 217.34920538 -308.68920898 206.71582031 C-301.3822644 201.92937631 -294.09454464 197.14624191 -287.0234375 192.015625 C-278.95347564 186.16047542 -270.60050785 180.74074661 -262.2585144 175.28369141 C-247.24763814 165.45993768 -232.28914579 155.56291489 -217.4375 145.5 C-216.6962085 144.99794037 -215.95491699 144.49588074 -215.19116211 143.97860718 C-211.38164542 141.39802493 -207.57330127 138.81571876 -203.765625 136.23242188 C-195.16227782 130.39602964 -186.55246313 124.56923164 -177.9375 118.75 C-177.05114868 118.15109955 -176.16479736 117.5521991 -175.25158691 116.93515015 C-159.15123968 106.06260854 -142.94840513 95.34920538 -126.68920898 84.71582031 C-119.3822644 79.92937631 -112.09454464 75.14624191 -105.0234375 70.015625 C-96.95107644 64.15873468 -88.5955587 58.73744759 -80.25109863 53.27874756 C-64.676771 43.08674917 -49.16417626 32.80766358 -33.75 22.375 C-33.01006805 21.87451141 -32.27013611 21.37402283 -31.50778198 20.85836792 C-25.13503524 16.54584527 -18.76711926 12.22713082 -12.43945312 7.84863281 C-11.6981012 7.33620026 -10.95674927 6.8237677 -10.19293213 6.29580688 C-8.76838244 5.30998719 -7.34526624 4.322092 -5.92376709 3.33187866 C-1.11024376 0 -1.11024376 0 0 0 Z " fill="#FBB421" transform="translate(640,335)"/>
<path d="M0 0 C15.93940519 14.17893357 27.8838935 29.82878753 36.6171875 49.328125 C37.14828125 50.46894531 37.679375 51.60976563 38.2265625 52.78515625 C45.23223243 68.87291889 48.99826078 86.89838151 50.6171875 104.328125 C50.72675781 105.32457031 50.83632812 106.32101562 50.94921875 107.34765625 C54.79722987 147.31566504 49.14382405 189.92356633 29.6171875 225.328125 C29.10285156 226.27042969 28.58851563 227.21273438 28.05859375 228.18359375 C24.50514969 234.39489841 20.23414958 239.87481858 15.6171875 245.328125 C14.95074219 246.14152344 14.28429688 246.95492188 13.59765625 247.79296875 C-0.49305434 264.34105743 -19.61486541 275.4314465 -40.3828125 281.328125 C-41.11886719 281.53840332 -41.85492187 281.74868164 -42.61328125 281.96533203 C-76.88194772 291.2771491 -111.43164632 284.12205675 -141.94140625 267.34375 C-145.3828125 265.328125 -145.3828125 265.328125 -149.3828125 262.328125 C-149.3828125 304.238125 -149.3828125 346.148125 -149.3828125 389.328125 C-177.7628125 389.328125 -206.1428125 389.328125 -235.3828125 389.328125 C-235.3828125 253.698125 -235.3828125 118.068125 -235.3828125 -21.671875 C-208.9828125 -21.671875 -182.5828125 -21.671875 -155.3828125 -21.671875 C-155.0528125 -15.071875 -154.7228125 -8.471875 -154.3828125 -1.671875 C-152.0728125 -3.981875 -149.7628125 -6.291875 -147.3828125 -8.671875 C-145.14152363 -10.324174 -142.98620447 -11.83967878 -140.6328125 -13.296875 C-139.71786011 -13.86970215 -139.71786011 -13.86970215 -138.78442383 -14.45410156 C-95.5820122 -41.01411917 -37.91762426 -31.5773002 0 0 Z M-149.3828125 61.328125 C-149.49212154 63.03740491 -149.53135147 64.75119938 -149.54344177 66.46392822 C-149.5534874 67.57715958 -149.56353302 68.69039093 -149.57388306 69.83735657 C-149.57971405 71.06955429 -149.58554504 72.30175201 -149.59155273 73.57128906 C-149.60133652 74.86062851 -149.6111203 76.14996796 -149.62120056 77.4783783 C-149.65264183 81.76680475 -149.67286065 86.05525093 -149.69140625 90.34375 C-149.69470357 91.07282531 -149.69800089 91.80190062 -149.70139813 92.55306911 C-149.73218484 99.42680679 -149.75889857 106.30054873 -149.77581692 113.17433548 C-149.79772436 121.97286099 -149.83968579 130.77077622 -149.90925449 139.5690577 C-149.95648353 145.75169172 -149.98074907 151.93416105 -149.9880138 158.11696982 C-149.9929726 161.81126834 -150.00807224 165.5048798 -150.0477581 169.19898224 C-150.09146774 173.32215831 -150.08773012 177.44398267 -150.07983398 181.56738281 C-150.09983459 182.79148361 -150.11983521 184.01558441 -150.14044189 185.27677917 C-150.26536059 191.02507492 -150.26536059 191.02507492 -148.11001778 196.15717316 C-146.37344215 197.73005313 -146.37344215 197.73005313 -143.3828125 199.328125 C-142.35285156 199.94816406 -141.32289062 200.56820312 -140.26171875 201.20703125 C-121.27784924 210.84430776 -101.06133454 213.83220705 -80.31640625 208.546875 C-66.34049683 203.93462609 -56.87882013 195.71323796 -50.1953125 182.828125 C-36.15590113 154.27367188 -36.34664451 114.28454151 -45.68310547 84.33837891 C-50.37480205 70.8591641 -57.838949 58.62197651 -70.63671875 51.57421875 C-93.98296145 40.98040449 -130.2025049 42.1478174 -149.3828125 61.328125 Z " fill="#1F4859" transform="translate(1690.3828125,813.671875)"/>
<path d="M0 0 C0.74765625 0.61488281 1.4953125 1.22976563 2.265625 1.86328125 C7.99574131 6.58949923 12.44295688 12.16104424 17 18 C17.72058594 18.87011719 18.44117187 19.74023438 19.18359375 20.63671875 C45.69543878 53.76471048 52.86178457 98.45963772 48.38671875 139.72265625 C44.03470778 171.57720959 30.25380747 200.83713176 8 224 C6.66195312 225.43279297 6.66195312 225.43279297 5.296875 226.89453125 C-24.07443599 257.79778116 -67.89975374 273.09873217 -109.91796875 274.203125 C-156.67897833 274.78624482 -201.17660882 262.16849477 -236 230 C-236.88171875 229.20078125 -237.7634375 228.4015625 -238.671875 227.578125 C-267.36411864 200.34790651 -282.04530042 159.92483731 -283.125 120.9296875 C-283.90168994 79.60521368 -271.25956295 39.0688394 -242.58911133 8.68481445 C-241.07117434 7.11112926 -239.53954959 5.55252893 -238 4 C-237.07703125 3.06414063 -236.1540625 2.12828125 -235.203125 1.1640625 C-222.68521929 -10.90430516 -207.79437158 -19.88210138 -192 -27 C-190.84886719 -27.53109375 -189.69773437 -28.0621875 -188.51171875 -28.609375 C-173.02965697 -35.2912882 -155.77602361 -39.39334102 -139 -41 C-137.32164062 -41.16435547 -137.32164062 -41.16435547 -135.609375 -41.33203125 C-86.43899162 -45.46631236 -37.23276361 -33.17007255 0 0 Z M-176.125 61.20703125 C-192.32087486 80.28146981 -196.17939844 102.60040211 -195 127 C-193.21235758 146.18016339 -183.42573618 165.20373011 -168.75 177.6875 C-149.74885981 192.57258939 -128.58613897 196.62457576 -105 195 C-99.46097981 194.28051873 -94.28509176 192.8113505 -89 191 C-87.94941406 190.649375 -86.89882812 190.29875 -85.81640625 189.9375 C-67.28743345 182.99817078 -54.14502585 169.2900517 -45.42578125 151.8515625 C-36.62668142 131.71668541 -34.68282739 107.56757285 -42.51171875 86.7578125 C-50.50341261 67.09197761 -63.06438491 52.66208831 -82.2578125 43.43359375 C-114.08301915 30.33599642 -151.8346123 35.97896314 -176.125 61.20703125 Z " fill="#1F4859" transform="translate(2268,826)"/>
<path d="M0 0 C2.32862196 0.85709434 4.1734616 1.94650935 6.24449158 3.31489563 C7.06054871 3.85023422 7.87660583 4.38557281 8.71739197 4.93713379 C9.59645203 5.52239334 10.47551208 6.10765289 11.38121033 6.71064758 C12.30474304 7.31971451 13.22827576 7.92878143 14.17979431 8.55630493 C16.14520029 9.85416135 18.10877494 11.15479459 20.07066345 12.45796204 C22.99815157 14.40207161 25.9312665 16.33741478 28.86558533 18.27119446 C38.06208359 24.34709316 47.19092077 30.50093676 56.19761658 36.85517883 C65.4240464 43.36411537 74.81284783 49.6009286 84.26283264 55.77949524 C99.12436198 65.50036876 113.92947328 75.30052032 128.63121033 85.26142883 C129.37304565 85.76385101 130.11488098 86.26627319 130.87919617 86.78392029 C134.68816473 89.36413455 138.49595455 91.94608194 142.30308533 94.52900696 C150.90643254 100.36539921 159.5162579 106.19218128 168.13121033 112.01142883 C169.01656464 112.60966461 169.90191895 113.20790039 170.81410217 113.82426453 C187.00289824 124.75672136 203.29586567 135.52756465 219.64317322 146.22138977 C227.36560066 151.28074171 235.02423001 156.35414588 242.4393158 161.85932922 C245.56387491 164.11963006 248.75852069 166.2541014 251.97886658 168.37471008 C252.56542023 168.76127274 253.15197388 169.14783539 253.75630188 169.54611206 C256.16359971 171.12967808 258.57306388 172.70983725 260.98643494 174.28413391 C262.77898475 175.45506415 264.56668928 176.63310191 266.35386658 177.81221008 C267.40453308 178.49968323 268.45519958 179.18715637 269.53770447 179.89546204 C272.06871033 181.76142883 272.06871033 181.76142883 274.06871033 184.76142883 C274.78078471 189.64659027 274.79723676 193.57150233 272.19371033 197.82392883 C268.12120038 201.53709967 264.20538786 200.89970916 258.95194817 200.88447666 C257.99064422 200.88563051 257.02934028 200.88678435 256.03890592 200.88797316 C252.78082861 200.89064409 249.52279959 200.88611375 246.26472473 200.88168335 C243.9201119 200.88211895 241.57549911 200.88299366 239.23088658 200.88427252 C233.43936374 200.88628346 227.64785591 200.88361552 221.85633484 200.87903184 C214.92297012 200.87380716 207.98960906 200.87437523 201.05624285 200.8751763 C188.25948169 200.87649194 175.46272569 200.87314218 162.66596603 200.86715889 C149.99050242 200.86124746 137.31504094 200.85739408 124.63957596 200.85630608 C123.85226847 200.85623734 123.06496097 200.8561686 122.25379568 200.85609777 C118.25566809 200.85575945 114.2575405 200.85545807 110.2594129 200.8551709 C81.92029053 200.85306894 53.58117096 200.84632727 25.24205017 200.83686829 C-2.29375697 200.82768802 -29.82956334 200.82060237 -57.3653717 200.81636047 C-58.21373241 200.81622895 -59.06209312 200.81609742 -59.93616172 200.81596191 C-68.45553363 200.81464342 -76.97490555 200.8133676 -85.49427747 200.81212305 C-102.85014315 200.80958665 -120.20600878 200.8067654 -137.56187439 200.80377197 C-138.35991752 200.80363468 -139.15796065 200.80349739 -139.9801869 200.80335594 C-193.29722234 200.79415098 -246.61425617 200.77828452 -299.93128967 200.76142883 C-296.78162608 197.52680788 -293.61279467 195.06564996 -289.83363342 192.57783508 C-289.2248938 192.17479156 -288.61615417 191.77174805 -287.9889679 191.35649109 C-286.65727795 190.47532053 -285.32422105 189.59621316 -283.98997498 188.71891785 C-280.26074944 186.26640762 -276.54195122 183.79815794 -272.82191467 181.33174133 C-271.62739937 180.5405616 -271.62739937 180.5405616 -270.40875244 179.73339844 C-261.83617524 174.04892324 -253.32055118 168.28092054 -244.80250549 162.51521301 C-226.83717503 150.35664344 -208.77661979 138.35138032 -190.62147522 126.47798157 C-183.3142445 121.69123774 -176.02616135 116.90790803 -168.95472717 111.77705383 C-160.88476532 105.92190425 -152.53179753 100.50217545 -144.18980408 95.04512024 C-129.1789401 85.22137455 -114.22006997 75.32486778 -99.36878967 65.26142883 C-98.63015686 64.76103088 -97.89152405 64.26063293 -97.13050842 63.74507141 C-94.10343103 61.69384547 -91.07683558 59.64191136 -88.05091858 57.588974 C-74.02491348 48.07346367 -59.97070922 38.59970695 -45.90733337 29.13954163 C-40.57651357 25.55106362 -35.25770846 21.94556764 -29.94781494 18.32620239 C-26.59469703 16.04333767 -23.23492573 13.77040616 -19.873703 11.49949646 C-18.29843174 10.4318025 -16.72616951 9.35965427 -15.15708923 8.28288269 C-13.00740604 6.80837903 -10.84783963 5.34964193 -8.68519592 3.89424133 C-8.05501556 3.45625717 -7.42483521 3.01827301 -6.77555847 2.5670166 C-2.46043295 -0.30393595 -2.46043295 -0.30393595 0 0 Z " fill="#1F4858" transform="translate(640.9312896728516,1089.2385711669922)"/>
<path d="M0 0 C0 27.39 0 54.78 0 83 C-8.58 83.66 -17.16 84.32 -26 85 C-30.47642288 85.64821234 -34.73752397 86.29365583 -39.125 87.25 C-40.15157715 87.46615967 -41.1781543 87.68231934 -42.23583984 87.9050293 C-64.26737662 92.75958237 -87.21150004 103.3647138 -102 121 C-102.60581304 121.71513231 -102.60581304 121.71513231 -103.22386473 122.44471174 C-106.70017562 126.86076129 -107.62711947 129.88174648 -107.63923645 135.63731384 C-107.65176996 136.74271911 -107.65176996 136.74271911 -107.66455668 137.8704558 C-107.68638441 140.32290065 -107.67291222 142.77383318 -107.65942383 145.22631836 C-107.66788147 146.99088675 -107.67852761 148.7554458 -107.69119263 150.51998901 C-107.71930916 155.29847824 -107.71687262 160.07651812 -107.70889878 164.85506511 C-107.70577147 169.85327812 -107.73081467 174.85134858 -107.75285339 179.84950256 C-107.79029148 189.30889997 -107.80244125 198.76815362 -107.8054778 208.2276178 C-107.81104633 221.01391236 -107.85573517 233.80006654 -107.89821911 246.58628178 C-107.96409997 266.72422277 -107.97776131 286.86185403 -108 307 C-136.38 307 -164.76 307 -194 307 C-194 208 -194 109 -194 7 C-165.62 7 -137.24 7 -108 7 C-107.505 24.82 -107.505 24.82 -107 43 C-102.545 38.05 -102.545 38.05 -98 33 C-77.74894199 13.92372713 -51.21485566 4.86246327 -24.125 1.1875 C-23.21073242 1.06334717 -22.29646484 0.93919434 -21.35449219 0.8112793 C-14.09877778 -0.07062715 -7.44126381 0 0 0 Z " fill="#1F4859" transform="translate(1973,785)"/>
<path d="M0 0 C0 9.9 0 19.8 0 30 C-6.69807692 27.76730769 -6.69807692 27.76730769 -10.01171875 26.15234375 C-52.06076253 6.15546458 -103.20412866 -5.06527081 -148.51708984 10.53027344 C-162.18467424 15.49647345 -174.03890171 22.2312451 -184 33 C-184.51820312 33.50144531 -185.03640625 34.00289063 -185.5703125 34.51953125 C-199.957834 49.32641997 -204.47901786 71.18196951 -204.21484375 91.09765625 C-203.60322129 110.73415611 -194.82694653 127.44457961 -181 141 C-159.66915129 159.83343529 -132.00557258 169.05096255 -105.71728516 178.64355469 C-33.49423877 204.99789895 -33.49423877 204.99789895 -8 229 C-7.31164063 229.61230469 -6.62328125 230.22460938 -5.9140625 230.85546875 C10.15568364 245.7501544 19.10750454 269.12665016 20.12646484 290.67431641 C20.92747399 321.05654218 16.25720684 351.72515997 -5 375 C-5.4547168 375.50241211 -5.90943359 376.00482422 -6.37792969 376.52246094 C-32.35982189 404.88957603 -69.62276929 414.90462957 -107 417 C-151.64002819 418.79639492 -201.23593115 410.1760459 -239 385 C-239.34057617 382.01904297 -239.34057617 382.01904297 -239.29296875 378.2421875 C-239.28660149 377.24761032 -239.28660149 377.24761032 -239.28010559 376.23294067 C-239.26329971 374.11321559 -239.22564701 371.99443812 -239.1875 369.875 C-239.17245549 368.43881581 -239.15876668 367.00261672 -239.14648438 365.56640625 C-239.1133909 362.04396236 -239.0615968 358.52207364 -239 355 C-235.754365 355.66045168 -233.21013134 356.84396395 -230.31640625 358.44140625 C-182.93716553 384.15061984 -126.26233639 396.53094606 -73.37597656 381.70751953 C-57.89647992 377.098027 -44.45499729 369.45499729 -33 358 C-32.43796875 357.43796875 -31.8759375 356.8759375 -31.296875 356.296875 C-16.24435726 339.97677682 -12.21210861 317.68103855 -12.6953125 296.25390625 C-13.5220071 277.3731582 -21.78464319 260.30794496 -35.46191406 247.40039062 C-58.27769776 226.6271628 -89.51449753 217.15020163 -118 207 C-207.37402933 175.14782478 -207.37402933 175.14782478 -228.47265625 133.0625 C-240.226693 106.60693104 -240.4009534 73.81647964 -230.57421875 46.7265625 C-225.96205348 35.42265317 -220.07883759 25.17640796 -212 16 C-211.236875 14.989375 -210.47375 13.97875 -209.6875 12.9375 C-185.91237058 -13.04926937 -148.92155362 -24.08180026 -114.74487305 -25.85742188 C-75.18187283 -27.26860926 -34.98920937 -18.66091167 0 0 Z " fill="#1F4859" transform="translate(1687,239)"/>
<path d="M0 0 C26.69378354 23.33921716 38.03331661 52.89198686 40.921875 87.5546875 C40.921875 96.7946875 40.921875 106.0346875 40.921875 115.5546875 C-31.018125 115.5546875 -102.958125 115.5546875 -177.078125 115.5546875 C-177.078125 153.21378786 -174.01157202 192.24958223 -149.078125 222.5546875 C-148.26730469 223.54082031 -147.45648437 224.52695312 -146.62109375 225.54296875 C-129.95885532 245.06815609 -105.3522309 256.51472511 -80.078125 259.5546875 C-79.16675781 259.66554688 -78.25539063 259.77640625 -77.31640625 259.890625 C-38.56935086 263.98089904 -1.59137875 250.83464409 31.921875 232.5546875 C31.921875 242.7846875 31.921875 253.0146875 31.921875 263.5546875 C5.51150253 278.34449608 -24.55074914 288.6670394 -55.078125 289.5546875 C-55.75343262 289.57515137 -56.42874023 289.59561523 -57.12451172 289.61669922 C-97.64803418 290.67505152 -134.26582611 279.12088234 -164.7890625 252.16015625 C-190.04986821 228.13450035 -202.78289506 193.51064749 -207.078125 159.5546875 C-207.1723877 158.85980225 -207.26665039 158.16491699 -207.36376953 157.44897461 C-208.39295275 148.83347752 -208.32187571 140.15635574 -208.328125 131.4921875 C-208.32879974 130.65076202 -208.32947449 129.80933655 -208.33016968 128.94241333 C-208.27425421 84.88258956 -198.3442733 40.23176307 -167.078125 7.5546875 C-166.46710938 6.88050781 -165.85609375 6.20632813 -165.2265625 5.51171875 C-124.28254264 -38.13286412 -44.56433784 -36.30749352 0 0 Z M-143.078125 25.5546875 C-143.69300781 26.09480469 -144.30789063 26.63492188 -144.94140625 27.19140625 C-161.11262783 41.9499694 -169.88616241 66.69711755 -174.078125 87.5546875 C-174.078125 88.5446875 -174.078125 89.5346875 -174.078125 90.5546875 C-113.028125 90.5546875 -51.978125 90.5546875 10.921875 90.5546875 C10.921875 68.05334896 4.38990602 47.89757565 -10.078125 30.5546875 C-10.85414063 29.57886719 -11.63015625 28.60304688 -12.4296875 27.59765625 C-23.66175816 14.18127845 -41.3993802 6.33626448 -58.078125 2.5546875 C-59.01398438 2.33039063 -59.94984375 2.10609375 -60.9140625 1.875 C-91.15377401 -4.30847042 -120.97737064 4.44295141 -143.078125 25.5546875 Z " fill="#1F4859" transform="translate(1969.078125,366.4453125)"/>
<path d="M0 0 C9.57 0 19.14 0 29 0 C29 27.39 29 54.78 29 83 C55.4 83 81.8 83 109 83 C109 92.24 109 101.48 109 111 C82.6 111 56.2 111 29 111 C29.06298151 135.49667627 29.13825253 159.99321543 29.23571491 184.48977661 C29.28058355 195.86524526 29.32001863 207.24068323 29.34643555 218.61621094 C29.36948816 228.53697334 29.40296673 238.45763791 29.44870156 248.3783226 C29.47253617 253.62592749 29.49132869 258.87343607 29.49761391 264.12109375 C29.50370921 269.07217599 29.52386744 274.02301213 29.55427551 278.97400284 C29.56298509 280.77977914 29.56679323 282.5855877 29.56500816 284.39138412 C29.55155469 304.3017282 31.71405219 324.95799387 46.03125 340.15625 C59.27375802 352.65270123 75.27715115 354.38527983 92.875 354.6875 C94.25654009 354.72079599 95.6380517 354.75529614 97.01953125 354.79101562 C100.34608718 354.87243483 103.67302709 354.93791363 107 355 C107 364.24 107 373.48 107 383 C47.11165147 383.92346397 47.11165147 383.92346397 24.28125 362.28515625 C15.83166112 353.82109889 9.94716331 345.18931259 5.8125 333.9375 C5.4556311 332.9940271 5.4556311 332.9940271 5.09155273 332.03149414 C0.10972851 317.70722265 -0.43367407 302.98023243 -0.34057617 287.98608398 C-0.33972764 286.04271457 -0.34020945 284.0993442 -0.34190369 282.15597534 C-0.34275624 276.9359875 -0.32525185 271.71621104 -0.30418181 266.49627185 C-0.28529014 261.02039871 -0.28365481 255.54451948 -0.28010559 250.06861877 C-0.27082153 239.72413469 -0.24625755 229.37974695 -0.21605712 219.03530508 C-0.18239912 207.24796614 -0.16599857 195.46062234 -0.15097082 183.67324722 C-0.11970433 159.44876594 -0.06473832 135.22441655 0 111 C-20.46 111 -40.92 111 -62 111 C-62 101.76 -62 92.52 -62 83 C-41.54 83 -21.08 83 0 83 C0 55.61 0 28.22 0 0 Z " fill="#1F4859" transform="translate(2115,265)"/>
<path d="M0 0 C3 2.5625 3 2.5625 5 5 C5 5.66 5 6.32 5 7 C5.556875 6.52949219 6.11375 6.05898437 6.6875 5.57421875 C14.31505082 -0.64893504 20.27148894 -3.67570535 30.2578125 -3.34375 C37.42293563 -2.44555793 42.29422998 0.57781516 46.80859375 6.12109375 C49.30279745 10.05457565 50.25053118 13.5200916 50.22705078 18.1574707 C50.22689972 19.15813065 50.22674866 20.15879059 50.22659302 21.18977356 C50.21627045 22.2576561 50.20594788 23.32553864 50.1953125 24.42578125 C50.1924826 25.52850876 50.18965271 26.63123627 50.18673706 27.76737976 C50.17555981 31.28253114 50.15045937 34.79742589 50.125 38.3125 C50.11496704 40.69856402 50.10584174 43.08463205 50.09765625 45.47070312 C50.07562849 51.31388935 50.04217514 57.15692634 50 63 C47.36 63 44.72 63 42 63 C41.99413376 62.43703217 41.98826752 61.87406433 41.98222351 61.29403687 C41.918163 55.42112064 41.83371096 49.548746 41.73754883 43.67626953 C41.7043469 41.48623812 41.6763003 39.29612211 41.65356445 37.10595703 C41.61993191 33.9530847 41.56761052 30.80098427 41.51171875 27.6484375 C41.50532883 26.67321136 41.4989389 25.69798523 41.49235535 24.69320679 C41.3768816 19.32325155 40.8184932 15.72201903 38 11 C38 10.34 38 9.68 38 9 C31.34871173 6.30353178 26.4389944 4.81413986 19.375 7.25 C13.77384901 10.14734838 13.77384901 10.14734838 10 15 C9.88177029 16.54142175 9.82300189 18.08761097 9.79467773 19.63330078 C9.77473251 20.59414581 9.75478729 21.55499084 9.73423767 22.54495239 C9.70916893 24.10438065 9.70916893 24.10438065 9.68359375 25.6953125 C9.66281265 26.75789276 9.64203156 27.82047302 9.62062073 28.91525269 C9.55509739 32.31843438 9.49622727 35.72169489 9.4375 39.125 C9.39431743 41.42839366 9.35070323 43.73177926 9.30664062 46.03515625 C9.19941318 51.69002021 9.09765198 57.34496303 9 63 C6.36 63 3.72 63 1 63 C0.98541748 61.70900391 0.97083496 60.41800781 0.95581055 59.08789062 C0.8975869 54.27186176 0.82035586 49.45628871 0.73754883 44.640625 C0.7044124 42.5612735 0.67634576 40.48183448 0.65356445 38.40234375 C0.61981049 35.40326854 0.5674844 32.40498713 0.51171875 29.40625 C0.50532883 28.48509399 0.4989389 27.56393799 0.49235535 26.61486816 C0.3383022 19.76363746 -0.36957596 13.56466344 -5.5 8.5625 C-9.83505733 5.85308917 -13.99060129 5.24354717 -19 6 C-24.38579886 7.99178952 -28.88190203 10.03868145 -32 15 C-32.46630351 17.33369571 -32.46630351 17.33369571 -32.43237305 19.86035156 C-32.45216721 20.82104553 -32.47196136 21.7817395 -32.49235535 22.77154541 C-32.50194023 24.31548981 -32.50194023 24.31548981 -32.51171875 25.890625 C-32.52966995 26.95037537 -32.54762115 28.01012573 -32.56611633 29.10198975 C-32.6202702 32.48461944 -32.65413199 35.8671076 -32.6875 39.25 C-32.72066852 41.54429055 -32.75515773 43.83856241 -32.79101562 46.1328125 C-32.87599955 51.75508143 -32.94432802 57.37736856 -33 63 C-35.64 63 -38.28 63 -41 63 C-41 41.88 -41 20.76 -41 -1 C-38.36 -1 -35.72 -1 -33 -1 C-32.67 0.32 -32.34 1.64 -32 3 C-31.13375 2.38125 -30.2675 1.7625 -29.375 1.125 C-20.32524029 -4.57299685 -9.51955288 -4.84328129 0 0 Z " fill="#1F4859" transform="translate(2075,1198)"/>
<path d="M0 0 C2.64 0 5.28 0 8 0 C8.33 9.57 8.66 19.14 9 29 C14.445 27.02 14.445 27.02 20 25 C27.77198178 23.76664 35.27067581 24.83099108 42 29 C49.25680126 34.82552904 52.41005902 41.96033557 54 51 C54.93014416 61.34919025 54.14041237 70.95179839 49.3125 80.25 C43.73229908 86.88591461 38.60448004 91.42892739 29.703125 92.3359375 C21.92024854 92.42397909 15.9484939 91.58631943 9 88 C8.67 88.99 8.34 89.98 8 91 C5.36 91 2.72 91 0 91 C0 60.97 0 30.94 0 0 Z M8 39 C7.70762701 44.50290384 7.68593723 50.00838199 7.64990234 55.51831055 C7.63334751 57.37585991 7.60606355 59.2333457 7.56787109 61.09057617 C7.5131277 63.76514821 7.49123222 66.43822456 7.4765625 69.11328125 C7.45389313 69.94257645 7.43122375 70.77187164 7.40786743 71.626297 C7.41037132 76.57717494 7.41037132 76.57717494 10.36865234 80.47729492 C17.18751557 84.42322645 24.59566697 85.38121033 32.27734375 83.41796875 C38.08276215 80.97768731 41.19900725 76.50506534 44 71 C46.64511487 63.6936766 46.31869409 51.91395446 43.3125 44.75 C40.21025109 39.11152655 36.10993835 35.14979312 30 33 C22.20647803 31.88137145 13.82567862 33.17432138 8 39 Z " fill="#1F4859" transform="translate(1665,1170)"/>
<path d="M0 0 C0 2.97 0 5.94 0 9 C-1.340625 8.54625 -2.68125 8.0925 -4.0625 7.625 C-4.89265625 7.35300781 -5.7228125 7.08101562 -6.578125 6.80078125 C-8.49894743 6.16567061 -10.40807841 5.49521717 -12.3125 4.8125 C-20.54055269 2.99953924 -28.4578549 3.09424629 -36 7 C-40.35264033 11.57585266 -41.30339612 14.61036923 -41.21484375 20.75 C-40.80536744 25.03833367 -38.87881373 27.23141548 -35.7265625 29.98828125 C-33.03289446 31.97572973 -30.66882142 33.16004488 -27.5625 34.375 C-26.51707031 34.7978125 -25.47164062 35.220625 -24.39453125 35.65625 C-22.06133195 36.57986399 -19.72521561 37.4961323 -17.38671875 38.40625 C-8.80407488 41.872495 -2.07834899 45.1900797 3 53.125 C5.4457825 60.2853501 5.06873724 68.5512403 2.0625 75.4375 C-1.48439018 81.61692623 -6.63591237 84.82742138 -13.25 87.1328125 C-17.46655495 88.10789083 -21.31382347 88.38335409 -25.625 88.375 C-26.4075415 88.37483887 -27.19008301 88.37467773 -27.99633789 88.37451172 C-36.20520761 88.21521387 -44.07064243 86.61957171 -51 82 C-51.29296875 79.8359375 -51.29296875 79.8359375 -51.1875 77.375 C-51.16042969 76.55773438 -51.13335938 75.74046875 -51.10546875 74.8984375 C-51.07066406 74.27195312 -51.03585937 73.64546875 -51 73 C-47.71949124 74.04016132 -44.59227882 75.17882508 -41.4375 76.5625 C-33.30411186 79.96373504 -22.7990292 80.62050973 -14.375 77.8125 C-9.78514961 75.34758035 -7.64028286 72.92084858 -6 68 C-5.59817142 63.87352957 -5.57536157 60.16775569 -7 56.25 C-13.1128475 49.37304657 -22.49923407 46.63465502 -30.8671875 43.48242188 C-38.51934208 40.48833092 -46.46684976 36.89762995 -50 29 C-51.97860345 22.52714014 -52.23225009 14.74342256 -49.3125 8.5625 C-45.56028281 2.22571362 -39.95549075 -2.71870016 -32.71875 -4.58984375 C-21.34483792 -6.30573566 -10.36369651 -5.18184825 0 0 Z " fill="#1F4859" transform="translate(1911,1174)"/>
<path d="M0 0 C8.11144251 6.71917999 12.28779468 13.66405668 13.46875 24.171875 C14.18812876 34.74020297 11.52411352 43.03094335 5.46875 51.609375 C-0.64397221 57.86102271 -7.29803164 60.98097296 -16.078125 61.7578125 C-28.08525379 61.87646002 -37.31209703 60.3589213 -46.3359375 51.70703125 C-53.70702196 43.04822722 -55.02505846 33.44125967 -54.28125 22.421875 C-52.7537701 13.5158905 -48.54870345 5.8026045 -41.53125 0.046875 C-29.4223386 -8.17804595 -12.08277331 -8.35863085 0 0 Z M-40.69140625 11.03515625 C-45.0754259 17.20857167 -46.5309578 24.36327829 -46.16015625 31.875 C-45.01750734 38.61309458 -41.5825873 44.75541026 -36.25 49.0625 C-29.18694683 53.64821363 -22.62112391 54.13702182 -14.28125 53.421875 C-6.71275532 51.67439105 -1.55651667 46.75788172 2.71875 40.421875 C5.58665764 33.46766757 6.05769135 25.79136664 3.84375 18.56640625 C0.59847057 11.51005854 -3.95618559 6.66955943 -11.09375 3.546875 C-21.38256374 0.20350806 -33.42374783 2.72063291 -40.69140625 11.03515625 Z " fill="#1F4859" transform="translate(1993.28125,1200.578125)"/>
<path d="M0 0 C3.3 0 6.6 0 10 0 C15.94 15.51 21.88 31.02 28 47 C30.64783769 41.04236519 33.15197167 35.1576213 35.41796875 29.0625 C35.72068192 28.25635254 36.02339508 27.45020508 36.33528137 26.61962891 C37.28859405 24.08070794 38.23848471 21.54053013 39.1875 19 C40.44874664 15.62383689 41.71348955 12.24901539 42.98046875 8.875 C43.26899216 8.09906494 43.55751556 7.32312988 43.8547821 6.52368164 C45.88718975 1.11281025 45.88718975 1.11281025 47 0 C48.51928038 -0.07179964 50.04167482 -0.08392007 51.5625 -0.0625 C52.38878906 -0.05347656 53.21507812 -0.04445313 54.06640625 -0.03515625 C54.70449219 -0.02355469 55.34257813 -0.01195312 56 0 C51.37029784 13.40577583 46.5821301 26.74428517 41.59326172 40.02075195 C40.86030013 41.97624372 40.13150189 43.93330072 39.40673828 45.8918457 C26.97883211 79.47168086 26.97883211 79.47168086 15.74609375 85.13671875 C12.28940375 86.22338801 9.30389888 86.19259624 5.6875 86.125 C4.43324219 86.10695313 3.17898438 86.08890625 1.88671875 86.0703125 C0.93410156 86.04710937 -0.01851562 86.02390625 -1 86 C-1 83.36 -1 80.72 -1 78 C-0.28714844 77.97421875 0.42570312 77.9484375 1.16015625 77.921875 C9.84947962 77.46192948 9.84947962 77.46192948 17 73 C19.74485273 69.52433742 21.96777583 66.3270003 23 62 C21.47659041 54.39846344 18.18633739 47.07756632 15.33203125 39.90234375 C14.89235519 38.78686661 14.45267914 37.67138947 13.99967957 36.52210999 C12.60777544 32.99238297 11.21046679 29.46482975 9.8125 25.9375 C8.40466198 22.37771185 6.99798427 18.8174736 5.59318542 15.25648499 C4.72153945 13.04773305 3.84798151 10.83973453 2.97236633 8.6325531 C2.58163437 7.6438472 2.1909024 6.6551413 1.78833008 5.63647461 C1.44208084 4.76284775 1.0958316 3.88922089 0.73908997 2.98912048 C0 1 0 1 0 0 Z " fill="#1F4859" transform="translate(1737,1197)"/>
<path d="M0 0 C2.97 0 5.94 0 9 0 C14.31863118 13.18987701 19.6025526 26.38630893 24.57421875 39.71166992 C24.88101563 40.52869385 25.1878125 41.34571777 25.50390625 42.1875 C25.77017822 42.90292969 26.0364502 43.61835937 26.31079102 44.35546875 C26.88096177 46.00724183 26.88096177 46.00724183 28 47 C28.196008 46.47017517 28.39201599 45.94035034 28.59396362 45.39447021 C30.63527494 39.87801574 32.67975453 34.36274306 34.72607422 28.84814453 C35.4892572 26.79017768 36.25163303 24.73191132 37.01318359 22.67333984 C38.10822663 19.71372549 39.20617194 16.75520193 40.3046875 13.796875 C40.6443454 12.87694763 40.9840033 11.95702026 41.33395386 11.00921631 C41.65413483 10.1486261 41.9743158 9.28803589 42.30419922 8.40136719 C42.58399628 7.64635925 42.86379333 6.89135132 43.15206909 6.11346436 C43.98915416 4.02703321 44.99462382 2.01075236 46 0 C48.97 0 51.94 0 55 0 C52.76991979 7.75050921 50.14374597 15.28553099 47.32421875 22.83984375 C46.87657669 24.04258438 46.42893463 25.24532501 45.96772766 26.48451233 C45.02459829 29.01589198 44.07865735 31.54620121 43.13110352 34.07592773 C41.92993465 37.2844252 40.73944977 40.49677373 39.55153179 43.7101965 C38.39981799 46.81868234 37.23621056 49.92268563 36.07421875 53.02734375 C35.65524826 54.16413071 35.23627777 55.30091766 34.80461121 56.47215271 C30.52247671 67.82774717 26.07650662 79.40062543 14.6796875 85.17578125 C11.40499159 86.18301279 8.60734088 86.19408769 5.1875 86.125 C4.02605469 86.10695313 2.86460937 86.08890625 1.66796875 86.0703125 C0.78753906 86.04710937 -0.09289063 86.02390625 -1 86 C-1 83.36 -1 80.72 -1 78 C-0.11957031 77.90203125 0.76085938 77.8040625 1.66796875 77.703125 C2.82941406 77.55359375 3.99085938 77.4040625 5.1875 77.25 C6.91033203 77.04117187 6.91033203 77.04117187 8.66796875 76.828125 C13.28308087 75.68111003 15.78313448 73.61660879 18.6171875 69.8515625 C19.03226563 69.11679688 19.44734375 68.38203125 19.875 67.625 C20.30554687 66.89539062 20.73609375 66.16578125 21.1796875 65.4140625 C23.10840363 59.73812645 19.91350388 53.71476324 17.83203125 48.41015625 C17.51473557 47.58857529 17.19743988 46.76699432 16.87052917 45.92051697 C15.85652106 43.29907386 14.83455783 40.68081361 13.8125 38.0625 C13.14467662 36.33808637 12.47735443 34.61347856 11.81054688 32.88867188 C8.0506923 23.1747312 8.0506923 23.1747312 4.17333984 13.50732422 C3.89189621 12.81601913 3.61045258 12.12471405 3.32048035 11.41246033 C2.56445021 9.56261635 1.80140658 7.71564312 1.0378418 5.86889648 C0 3 0 3 0 0 Z " fill="#1F4859" transform="translate(2200,1197)"/>
<path d="M0 0 C0 2.64 0 5.28 0 8 C-0.81984375 8.10957031 -1.6396875 8.21914062 -2.484375 8.33203125 C-3.56203125 8.49058594 -4.6396875 8.64914062 -5.75 8.8125 C-6.81734375 8.96332031 -7.8846875 9.11414062 -8.984375 9.26953125 C-12.10253152 10.024836 -13.70720617 10.78756109 -16 13 C-17.00259507 16.00778521 -17.30314642 18.53820647 -17.5625 21.6875 C-17.706875 23.440625 -17.85125 25.19375 -18 27 C-12.72 27 -7.44 27 -2 27 C-2 29.31 -2 31.62 -2 34 C-7.28 34 -12.56 34 -18 34 C-18 52.81 -18 71.62 -18 91 C-20.64 91 -23.28 91 -26 91 C-26 72.19 -26 53.38 -26 34 C-30.29 34 -34.58 34 -39 34 C-39 31.69 -39 29.38 -39 27 C-34.71 27 -30.42 27 -26 27 C-26.061875 24.999375 -26.12375 22.99875 -26.1875 20.9375 C-26.16352531 13.57726954 -25.53417686 9.59177179 -20.25 4.1875 C-13.7371411 -0.19615503 -7.58521808 -0.27471615 0 0 Z " fill="#1F4859" transform="translate(2187,1170)"/>
</svg>
