<svg width="52" height="35" viewBox="0 0 52 35" fill="none" xmlns="http://www.w3.org/2000/svg">
<path d="M50.5293 0.0501952C50.6672 0.0502892 50.7998 0.104849 50.8975 0.201562C50.995 0.298342 51.0498 0.429838 51.0498 0.566797V4.32363C51.0498 4.46076 50.9952 4.59303 50.8975 4.68984C50.7998 4.78652 50.6672 4.84014 50.5293 4.84023H49.2822C49.2965 4.94742 49.3165 5.19615 49.3408 5.7543C49.3922 6.93617 49.4651 9.51412 49.5498 15.099L49.4502 15.102C49.2606 9.5168 49.1665 6.93975 49.1045 5.75918C49.089 5.46436 49.0759 5.25676 49.0635 5.11172C49.0509 4.96571 49.0398 4.88485 49.0293 4.84219C49.0284 4.83836 49.0262 4.83535 49.0254 4.83242C49.0179 4.83491 49.01 4.84023 49 4.84023C48.999 4.84023 48.998 4.84022 48.9971 4.84023C48.996 4.8448 48.9965 4.85056 48.9932 4.85586C48.9854 4.86806 48.9733 4.87575 48.9609 4.87832C48.9502 4.88051 48.941 4.87859 48.9365 4.87734C48.9281 4.87489 48.9219 4.87097 48.9199 4.86953C48.9149 4.86586 48.9115 4.86158 48.9092 4.85879C48.9049 4.8767 48.9002 4.90059 48.8955 4.93105C48.8705 5.09331 48.8441 5.43208 48.8154 6.11465C48.758 7.47988 48.694 10.2117 48.625 15.6322L48.5254 15.6312V4.84023H46.1875V30.8021H47.8779C48.0159 30.8022 48.1484 30.8568 48.2461 30.9535C48.3438 31.0503 48.3984 31.1817 48.3984 31.3187V33.6332C48.3984 33.7702 48.3437 33.9016 48.2461 33.9984C48.1484 34.0952 48.0159 34.1498 47.8779 34.1498H10.6768C10.5388 34.1497 10.4063 34.0952 10.3086 33.9984C10.211 33.9017 10.1562 33.7702 10.1562 33.6332V31.3187C10.1563 31.1817 10.2109 31.0503 10.3086 30.9535C10.4063 30.8568 10.5388 30.8022 10.6768 30.8021H12.3545V4.84023H9.4707C9.33283 4.84014 9.2002 4.78652 9.10254 4.68984C9.00477 4.59303 8.9502 4.46076 8.9502 4.32363V0.566797C8.9502 0.429838 9.00499 0.298341 9.10254 0.201562C9.20021 0.10485 9.3328 0.0502896 9.4707 0.0501952H50.5293ZM11.1982 33.1176H47.3564V31.8354H11.1982V33.1176ZM13.3965 30.8021H45.1455V4.84023H13.3965V30.8021ZM9.99219 3.80801H50.0078V1.08242H9.99219V3.80801Z" fill="#363636" stroke="#363636" stroke-width="0.1"/>
<rect x="13" y="7.1" width="33" height="1.2" fill="#363636"/>
<rect x="13" y="10.1" width="33" height="1.2" fill="#363636"/>
<rect x="13" y="13.1" width="33" height="1.2" fill="#363636"/>
<rect x="13" y="16.1" width="33" height="1.2" fill="#363636"/>
<rect x="13" y="19.1" width="33" height="1.2" fill="#363636"/>
<rect x="13" y="22.1" width="33" height="1.2" fill="#363636"/>
<rect x="13" y="25.1" width="33" height="1.2" fill="#363636"/>
<rect x="13" y="28.1" width="33" height="1.2" fill="#363636"/>
<path d="M48 4.88906H48.8233H50L51 16.1H48V4.88906Z" fill="white"/>
<path d="M11.3536 28.4536C11.5488 28.2583 11.5488 27.9417 11.3536 27.7464L8.17157 24.5645C7.97631 24.3692 7.65973 24.3692 7.46447 24.5645C7.2692 24.7597 7.2692 25.0763 7.46447 25.2716L10.2929 28.1L7.46447 30.9284C7.2692 31.1237 7.2692 31.4403 7.46447 31.6355C7.65973 31.8308 7.97631 31.8308 8.17157 31.6355L11.3536 28.4536ZM-4.37114e-08 28.6L11 28.6L11 27.6L4.37114e-08 27.6L-4.37114e-08 28.6Z" fill="#F59E0B"/>
</svg>
