<svg width="40" height="40" viewBox="0 0 40 40" fill="none" xmlns="http://www.w3.org/2000/svg">
<circle cx="20" cy="20" r="20" fill="white"/>
<circle cx="20" cy="20" r="19" stroke="#A4A4A4" stroke-opacity="0.5" stroke-width="2"/>
<path d="M23.8571 14.2143H16.1429C15.6314 14.2143 15.1408 14.4175 14.7792 14.7792C14.4175 15.1408 14.2143 15.6314 14.2143 16.1429V23.8571C14.2143 24.3686 14.4175 24.8592 14.7792 25.2208C15.1408 25.5825 15.6314 25.7857 16.1429 25.7857H23.8571C24.3686 25.7857 24.8592 25.5825 25.2208 25.2208C25.5825 24.8592 25.7857 24.3686 25.7857 23.8571V16.1429C25.7857 15.6314 25.5825 15.1408 25.2208 14.7792C24.8592 14.4175 24.3686 14.2143 23.8571 14.2143ZM18.5259 23.0259C18.4664 23.0858 18.3955 23.1334 18.3175 23.1658C18.2395 23.1983 18.1559 23.215 18.0714 23.215C17.987 23.215 17.9033 23.1983 17.8253 23.1658C17.7473 23.1334 17.6765 23.0858 17.6169 23.0259L15.0455 20.4545C14.925 20.3339 14.8573 20.1705 14.8573 20C14.8573 19.8295 14.925 19.6661 15.0455 19.5455L17.6169 16.9741C17.6762 16.9127 17.7472 16.8637 17.8256 16.83C17.904 16.7963 17.9884 16.7786 18.0737 16.7778C18.1591 16.7771 18.2438 16.7934 18.3228 16.8257C18.4018 16.858 18.4735 16.9057 18.5339 16.9661C18.5943 17.0265 18.642 17.0982 18.6743 17.1772C18.7066 17.2562 18.7229 17.3409 18.7222 17.4263C18.7214 17.5116 18.7037 17.596 18.67 17.6744C18.6363 17.7528 18.5873 17.8238 18.5259 17.8831L16.409 20L18.5259 22.1169C18.6464 22.2375 18.7141 22.401 18.7141 22.5714C18.7141 22.7419 18.6464 22.9054 18.5259 23.0259ZM20.9984 21.2182L20.6429 21.0401V21.2857C20.6429 21.4562 20.5751 21.6197 20.4546 21.7403C20.334 21.8608 20.1705 21.9286 20 21.9286C19.8295 21.9286 19.666 21.8608 19.5454 21.7403C19.4249 21.6197 19.3571 21.4562 19.3571 21.2857V21.0401L19.0016 21.2182C18.849 21.294 18.6725 21.3062 18.5109 21.2522C18.3492 21.1983 18.2155 21.0825 18.1389 20.9302C18.1012 20.8547 18.0786 20.7724 18.0727 20.6882C18.0667 20.6039 18.0774 20.5193 18.1041 20.4392C18.1309 20.3591 18.1732 20.285 18.2286 20.2212C18.2839 20.1574 18.3513 20.1052 18.4269 20.0675L18.5619 20L18.4269 19.9325C18.3514 19.8948 18.284 19.8425 18.2286 19.7787C18.1733 19.715 18.131 19.6409 18.1043 19.5608C18.0775 19.4807 18.0668 19.3961 18.0728 19.3118C18.0787 19.2276 18.1012 19.1453 18.1389 19.0698C18.1767 18.9942 18.2289 18.9268 18.2927 18.8715C18.3565 18.8161 18.4305 18.7739 18.5106 18.7471C18.5907 18.7204 18.6753 18.7097 18.7596 18.7156C18.8438 18.7216 18.9261 18.744 19.0016 18.7818L19.3571 18.9599V18.7143C19.3571 18.5438 19.4249 18.3803 19.5454 18.2597C19.666 18.1392 19.8295 18.0714 20 18.0714C20.1705 18.0714 20.334 18.1392 20.4546 18.2597C20.5751 18.3803 20.6429 18.5438 20.6429 18.7143V18.9599L20.9984 18.7818C21.3159 18.6243 21.7016 18.7522 21.8611 19.0698C21.8988 19.1453 21.9214 19.2276 21.9273 19.3118C21.9333 19.3961 21.9226 19.4807 21.8959 19.5608C21.8691 19.6409 21.8268 19.715 21.7714 19.7788C21.7161 19.8426 21.6487 19.8948 21.5731 19.9325L21.4381 20L21.5731 20.0675C21.6486 20.1052 21.716 20.1575 21.7714 20.2213C21.8267 20.285 21.869 20.3591 21.8957 20.4392C21.9225 20.5193 21.9332 20.6039 21.9272 20.6882C21.9213 20.7724 21.8988 20.8547 21.8611 20.9302C21.8233 21.0058 21.7711 21.0732 21.7073 21.1285C21.6435 21.1839 21.5695 21.2261 21.4894 21.2529C21.4093 21.2796 21.3247 21.2903 21.2404 21.2844C21.1562 21.2784 21.0739 21.256 20.9984 21.2182ZM24.9545 20.4545L22.3831 23.0259C22.3235 23.0858 22.2527 23.1334 22.1747 23.1658C22.0967 23.1983 22.013 23.215 21.9286 23.215C21.8441 23.215 21.7605 23.1983 21.6825 23.1658C21.6045 23.1334 21.5336 23.0858 21.4741 23.0259C21.3536 22.9054 21.2859 22.7419 21.2859 22.5714C21.2859 22.401 21.3536 22.2375 21.4741 22.1169L23.591 20L21.4741 17.8831C21.4127 17.8238 21.3637 17.7528 21.33 17.6744C21.2963 17.596 21.2786 17.5116 21.2778 17.4263C21.2771 17.3409 21.2934 17.2562 21.3257 17.1772C21.358 17.0982 21.4057 17.0265 21.4661 16.9661C21.5265 16.9057 21.5982 16.858 21.6772 16.8257C21.7562 16.7934 21.8409 16.7771 21.9263 16.7778C22.0116 16.7786 22.096 16.7963 22.1744 16.83C22.2528 16.8637 22.3238 16.9127 22.3831 16.9741L24.9545 19.5455C25.075 19.6661 25.1427 19.8295 25.1427 20C25.1427 20.1705 25.075 20.3339 24.9545 20.4545ZM17.4286 11.6429C17.4286 11.4724 17.3608 11.3088 17.2403 11.1883C17.1197 11.0677 16.9562 11 16.7857 11C16.6152 11 16.4517 11.0677 16.3311 11.1883C16.2106 11.3088 16.1429 11.4724 16.1429 11.6429V13.5714H17.4286V11.6429ZM20.6429 11.6429C20.6429 11.4724 20.5751 11.3088 20.4546 11.1883C20.334 11.0677 20.1705 11 20 11C19.8295 11 19.666 11.0677 19.5454 11.1883C19.4249 11.3088 19.3571 11.4724 19.3571 11.6429V13.5714H20.6429V11.6429ZM23.8571 11.6429C23.8571 11.4724 23.7894 11.3088 23.6689 11.1883C23.5483 11.0677 23.3848 11 23.2143 11C23.0438 11 22.8803 11.0677 22.7597 11.1883C22.6392 11.3088 22.5714 11.4724 22.5714 11.6429V13.5714H23.8571V11.6429ZM29 16.7857C29 16.6152 28.9323 16.4517 28.8117 16.3311C28.6912 16.2106 28.5276 16.1429 28.3571 16.1429H26.4286V17.4286H28.3571C28.5276 17.4286 28.6912 17.3608 28.8117 17.2403C28.9323 17.1197 29 16.9562 29 16.7857ZM28.3571 19.3571H26.4286V20.6429H28.3571C28.5276 20.6429 28.6912 20.5751 28.8117 20.4546C28.9323 20.334 29 20.1705 29 20C29 19.8295 28.9323 19.666 28.8117 19.5454C28.6912 19.4249 28.5276 19.3571 28.3571 19.3571ZM28.3571 22.5714H26.4286V23.8571H28.3571C28.5276 23.8571 28.6912 23.7894 28.8117 23.6689C28.9323 23.5483 29 23.3848 29 23.2143C29 23.0438 28.9323 22.8803 28.8117 22.7597C28.6912 22.6392 28.5276 22.5714 28.3571 22.5714ZM16.1429 28.3571C16.1429 28.5276 16.2106 28.6912 16.3311 28.8117C16.4517 28.9323 16.6152 29 16.7857 29C16.9562 29 17.1197 28.9323 17.2403 28.8117C17.3608 28.6912 17.4286 28.5276 17.4286 28.3571V26.4286H16.1429V28.3571ZM19.3571 28.3571C19.3571 28.5276 19.4249 28.6912 19.5454 28.8117C19.666 28.9323 19.8295 29 20 29C20.1705 29 20.334 28.9323 20.4546 28.8117C20.5751 28.6912 20.6429 28.5276 20.6429 28.3571V26.4286H19.3571V28.3571ZM22.5714 28.3571C22.5714 28.5276 22.6392 28.6912 22.7597 28.8117C22.8803 28.9323 23.0438 29 23.2143 29C23.3848 29 23.5483 28.9323 23.6689 28.8117C23.7894 28.6912 23.8571 28.5276 23.8571 28.3571V26.4286H22.5714V28.3571ZM11 16.7857C11 16.9562 11.0677 17.1197 11.1883 17.2403C11.3088 17.3608 11.4724 17.4286 11.6429 17.4286H13.5714V16.1429H11.6429C11.4724 16.1429 11.3088 16.2106 11.1883 16.3311C11.0677 16.4517 11 16.6152 11 16.7857ZM11 20C11 20.1705 11.0677 20.334 11.1883 20.4546C11.3088 20.5751 11.4724 20.6429 11.6429 20.6429H13.5714V19.3571H11.6429C11.4724 19.3571 11.3088 19.4249 11.1883 19.5454C11.0677 19.666 11 19.8295 11 20ZM11 23.2143C11 23.3848 11.0677 23.5483 11.1883 23.6689C11.3088 23.7894 11.4724 23.8571 11.6429 23.8571H13.5714V22.5714H11.6429C11.4724 22.5714 11.3088 22.6392 11.1883 22.7597C11.0677 22.8803 11 23.0438 11 23.2143Z" fill="#A4A4A4"/>
<path d="M23.8571 14.2143H16.1429C15.6314 14.2143 15.1408 14.4175 14.7792 14.7792C14.4175 15.1408 14.2143 15.6314 14.2143 16.1429V23.8571C14.2143 24.3686 14.4175 24.8592 14.7792 25.2208C15.1408 25.5825 15.6314 25.7857 16.1429 25.7857H23.8571C24.3686 25.7857 24.8592 25.5825 25.2208 25.2208C25.5825 24.8592 25.7857 24.3686 25.7857 23.8571V16.1429C25.7857 15.6314 25.5825 15.1408 25.2208 14.7792C24.8592 14.4175 24.3686 14.2143 23.8571 14.2143ZM18.5259 23.0259C18.4664 23.0858 18.3955 23.1334 18.3175 23.1658C18.2395 23.1983 18.1559 23.215 18.0714 23.215C17.987 23.215 17.9033 23.1983 17.8253 23.1658C17.7473 23.1334 17.6765 23.0858 17.6169 23.0259L15.0455 20.4545C14.925 20.3339 14.8573 20.1705 14.8573 20C14.8573 19.8295 14.925 19.6661 15.0455 19.5455L17.6169 16.9741C17.6762 16.9127 17.7472 16.8637 17.8256 16.83C17.904 16.7963 17.9884 16.7786 18.0737 16.7778C18.1591 16.7771 18.2438 16.7934 18.3228 16.8257C18.4018 16.858 18.4735 16.9057 18.5339 16.9661C18.5943 17.0265 18.642 17.0982 18.6743 17.1772C18.7066 17.2562 18.7229 17.3409 18.7222 17.4263C18.7214 17.5116 18.7037 17.596 18.67 17.6744C18.6363 17.7528 18.5873 17.8238 18.5259 17.8831L16.409 20L18.5259 22.1169C18.6464 22.2375 18.7141 22.401 18.7141 22.5714C18.7141 22.7419 18.6464 22.9054 18.5259 23.0259ZM20.9984 21.2182L20.6429 21.0401V21.2857C20.6429 21.4562 20.5751 21.6197 20.4546 21.7403C20.334 21.8608 20.1705 21.9286 20 21.9286C19.8295 21.9286 19.666 21.8608 19.5454 21.7403C19.4249 21.6197 19.3571 21.4562 19.3571 21.2857V21.0401L19.0016 21.2182C18.849 21.294 18.6725 21.3062 18.5109 21.2522C18.3492 21.1983 18.2155 21.0825 18.1389 20.9302C18.1012 20.8547 18.0786 20.7724 18.0727 20.6882C18.0667 20.6039 18.0774 20.5193 18.1041 20.4392C18.1309 20.3591 18.1732 20.285 18.2286 20.2212C18.2839 20.1574 18.3513 20.1052 18.4269 20.0675L18.5619 20L18.4269 19.9325C18.3514 19.8948 18.284 19.8425 18.2286 19.7787C18.1733 19.715 18.131 19.6409 18.1043 19.5608C18.0775 19.4807 18.0668 19.3961 18.0728 19.3118C18.0787 19.2276 18.1012 19.1453 18.1389 19.0698C18.1767 18.9942 18.2289 18.9268 18.2927 18.8715C18.3565 18.8161 18.4305 18.7739 18.5106 18.7471C18.5907 18.7204 18.6753 18.7097 18.7596 18.7156C18.8438 18.7216 18.9261 18.744 19.0016 18.7818L19.3571 18.9599V18.7143C19.3571 18.5438 19.4249 18.3803 19.5454 18.2597C19.666 18.1392 19.8295 18.0714 20 18.0714C20.1705 18.0714 20.334 18.1392 20.4546 18.2597C20.5751 18.3803 20.6429 18.5438 20.6429 18.7143V18.9599L20.9984 18.7818C21.3159 18.6243 21.7016 18.7522 21.8611 19.0698C21.8988 19.1453 21.9214 19.2276 21.9273 19.3118C21.9333 19.3961 21.9226 19.4807 21.8959 19.5608C21.8691 19.6409 21.8268 19.715 21.7714 19.7788C21.7161 19.8426 21.6487 19.8948 21.5731 19.9325L21.4381 20L21.5731 20.0675C21.6486 20.1052 21.716 20.1575 21.7714 20.2213C21.8267 20.285 21.869 20.3591 21.8957 20.4392C21.9225 20.5193 21.9332 20.6039 21.9272 20.6882C21.9213 20.7724 21.8988 20.8547 21.8611 20.9302C21.8233 21.0058 21.7711 21.0732 21.7073 21.1285C21.6435 21.1839 21.5695 21.2261 21.4894 21.2529C21.4093 21.2796 21.3247 21.2903 21.2404 21.2844C21.1562 21.2784 21.0739 21.256 20.9984 21.2182ZM24.9545 20.4545L22.3831 23.0259C22.3235 23.0858 22.2527 23.1334 22.1747 23.1658C22.0967 23.1983 22.013 23.215 21.9286 23.215C21.8441 23.215 21.7605 23.1983 21.6825 23.1658C21.6045 23.1334 21.5336 23.0858 21.4741 23.0259C21.3536 22.9054 21.2859 22.7419 21.2859 22.5714C21.2859 22.401 21.3536 22.2375 21.4741 22.1169L23.591 20L21.4741 17.8831C21.4127 17.8238 21.3637 17.7528 21.33 17.6744C21.2963 17.596 21.2786 17.5116 21.2778 17.4263C21.2771 17.3409 21.2934 17.2562 21.3257 17.1772C21.358 17.0982 21.4057 17.0265 21.4661 16.9661C21.5265 16.9057 21.5982 16.858 21.6772 16.8257C21.7562 16.7934 21.8409 16.7771 21.9263 16.7778C22.0116 16.7786 22.096 16.7963 22.1744 16.83C22.2528 16.8637 22.3238 16.9127 22.3831 16.9741L24.9545 19.5455C25.075 19.6661 25.1427 19.8295 25.1427 20C25.1427 20.1705 25.075 20.3339 24.9545 20.4545ZM17.4286 11.6429C17.4286 11.4724 17.3608 11.3088 17.2403 11.1883C17.1197 11.0677 16.9562 11 16.7857 11C16.6152 11 16.4517 11.0677 16.3311 11.1883C16.2106 11.3088 16.1429 11.4724 16.1429 11.6429V13.5714H17.4286V11.6429ZM20.6429 11.6429C20.6429 11.4724 20.5751 11.3088 20.4546 11.1883C20.334 11.0677 20.1705 11 20 11C19.8295 11 19.666 11.0677 19.5454 11.1883C19.4249 11.3088 19.3571 11.4724 19.3571 11.6429V13.5714H20.6429V11.6429ZM23.8571 11.6429C23.8571 11.4724 23.7894 11.3088 23.6689 11.1883C23.5483 11.0677 23.3848 11 23.2143 11C23.0438 11 22.8803 11.0677 22.7597 11.1883C22.6392 11.3088 22.5714 11.4724 22.5714 11.6429V13.5714H23.8571V11.6429ZM29 16.7857C29 16.6152 28.9323 16.4517 28.8117 16.3311C28.6912 16.2106 28.5276 16.1429 28.3571 16.1429H26.4286V17.4286H28.3571C28.5276 17.4286 28.6912 17.3608 28.8117 17.2403C28.9323 17.1197 29 16.9562 29 16.7857ZM28.3571 19.3571H26.4286V20.6429H28.3571C28.5276 20.6429 28.6912 20.5751 28.8117 20.4546C28.9323 20.334 29 20.1705 29 20C29 19.8295 28.9323 19.666 28.8117 19.5454C28.6912 19.4249 28.5276 19.3571 28.3571 19.3571ZM28.3571 22.5714H26.4286V23.8571H28.3571C28.5276 23.8571 28.6912 23.7894 28.8117 23.6689C28.9323 23.5483 29 23.3848 29 23.2143C29 23.0438 28.9323 22.8803 28.8117 22.7597C28.6912 22.6392 28.5276 22.5714 28.3571 22.5714ZM16.1429 28.3571C16.1429 28.5276 16.2106 28.6912 16.3311 28.8117C16.4517 28.9323 16.6152 29 16.7857 29C16.9562 29 17.1197 28.9323 17.2403 28.8117C17.3608 28.6912 17.4286 28.5276 17.4286 28.3571V26.4286H16.1429V28.3571ZM19.3571 28.3571C19.3571 28.5276 19.4249 28.6912 19.5454 28.8117C19.666 28.9323 19.8295 29 20 29C20.1705 29 20.334 28.9323 20.4546 28.8117C20.5751 28.6912 20.6429 28.5276 20.6429 28.3571V26.4286H19.3571V28.3571ZM22.5714 28.3571C22.5714 28.5276 22.6392 28.6912 22.7597 28.8117C22.8803 28.9323 23.0438 29 23.2143 29C23.3848 29 23.5483 28.9323 23.6689 28.8117C23.7894 28.6912 23.8571 28.5276 23.8571 28.3571V26.4286H22.5714V28.3571ZM11 16.7857C11 16.9562 11.0677 17.1197 11.1883 17.2403C11.3088 17.3608 11.4724 17.4286 11.6429 17.4286H13.5714V16.1429H11.6429C11.4724 16.1429 11.3088 16.2106 11.1883 16.3311C11.0677 16.4517 11 16.6152 11 16.7857ZM11 20C11 20.1705 11.0677 20.334 11.1883 20.4546C11.3088 20.5751 11.4724 20.6429 11.6429 20.6429H13.5714V19.3571H11.6429C11.4724 19.3571 11.3088 19.4249 11.1883 19.5454C11.0677 19.666 11 19.8295 11 20ZM11 23.2143C11 23.3848 11.0677 23.5483 11.1883 23.6689C11.3088 23.7894 11.4724 23.8571 11.6429 23.8571H13.5714V22.5714H11.6429C11.4724 22.5714 11.3088 22.6392 11.1883 22.7597C11.0677 22.8803 11 23.0438 11 23.2143Z" fill="#A4A4A4"/>
</svg>
