<svg width="38" height="32" viewBox="0 0 38 32" fill="none" xmlns="http://www.w3.org/2000/svg">
<mask id="path-1-inside-1_1542_985" fill="white">
<path d="M0 0.5C0 0.223858 0.223858 0 0.5 0H37.5C37.7761 0 38 0.223858 38 0.5V5H0V0.5Z"/>
</mask>
<path d="M0 0.5C0 0.223858 0.223858 0 0.5 0H37.5C37.7761 0 38 0.223858 38 0.5V5H0V0.5Z" stroke="#363636" stroke-width="2" mask="url(#path-1-inside-1_1542_985)"/>
<mask id="path-2-outside-2_1542_985" maskUnits="userSpaceOnUse" x="0" y="4" width="7" height="28" fill="black">
<rect fill="white" y="4" width="7" height="28"/>
<path d="M2 5H5.57143V30.5C5.57143 30.7761 5.34757 31 5.07143 31H2.5C2.22386 31 2 30.7761 2 30.5V5Z"/>
</mask>
<path d="M0.8 4.5H6.07143L5.07143 5.5H3.2L0.8 4.5ZM6.07143 30.5C6.07143 31.0523 5.62371 31.5 5.07143 31.5H1.8C1.24772 31.5 0.8 31.0523 0.8 30.5H3.2H5.07143H6.07143ZM1.8 31.5C1.24772 31.5 0.8 31.0523 0.8 30.5V4.5L3.2 5.5V30.5L1.8 31.5ZM6.07143 4.5V30.5C6.07143 31.0523 5.62371 31.5 5.07143 31.5V30.5V5.5L6.07143 4.5Z" fill="#363636" mask="url(#path-2-outside-2_1542_985)"/>
<path d="M10.2856 4.75V30.5C10.2856 30.9142 9.94986 31.25 9.53564 31.25H6.96436C6.55014 31.25 6.21436 30.9142 6.21436 30.5V4.75H10.2856Z" stroke="#363636" stroke-width="0.5"/>
<path d="M14.7498 4.75V30.5C14.7498 30.9142 14.414 31.25 13.9998 31.25H11.4285C11.0143 31.25 10.6785 30.9142 10.6785 30.5V4.75H14.7498Z" stroke="#363636" stroke-width="0.5"/>
<path d="M27.3213 4.75V30.5C27.3213 30.9142 26.9855 31.25 26.5713 31.25H24C23.5858 31.25 23.25 30.9142 23.25 30.5V4.75H27.3213Z" stroke="#363636" stroke-width="0.5"/>
<path d="M31.7856 4.75V30.5C31.7856 30.9142 31.4499 31.25 31.0356 31.25H28.4644C28.0501 31.25 27.7144 30.9142 27.7144 30.5V4.75H31.7856Z" stroke="#363636" stroke-width="0.5"/>
<mask id="path-8-outside-3_1542_985" maskUnits="userSpaceOnUse" x="31.4285" y="4" width="6" height="28" fill="black">
<rect fill="white" x="31.4285" y="4" width="6" height="28"/>
<path d="M32.4285 5H35.9999V30.5C35.9999 30.7761 35.776 31 35.4999 31H32.9285C32.6523 31 32.4285 30.7761 32.4285 30.5V5Z"/>
</mask>
<path d="M31.9285 4.5H37.1999L34.7999 5.5H32.9285L31.9285 4.5ZM37.1999 30.5C37.1999 31.0523 36.7522 31.5 36.1999 31.5H32.9285C32.3762 31.5 31.9285 31.0523 31.9285 30.5H32.9285H34.7999H37.1999ZM32.9285 31.5C32.3762 31.5 31.9285 31.0523 31.9285 30.5V4.5L32.9285 5.5V30.5V31.5ZM37.1999 4.5V30.5C37.1999 31.0523 36.7522 31.5 36.1999 31.5L34.7999 30.5V5.5L37.1999 4.5Z" fill="#363636" mask="url(#path-8-outside-3_1542_985)"/>
<rect x="14.5" y="18.7" width="9" height="0.7" fill="#363636"/>
<rect x="14.5" y="16" width="9" height="0.7" fill="#363636"/>
</svg>
