<svg width="40" height="40" viewBox="0 0 40 40" fill="none" xmlns="http://www.w3.org/2000/svg">
<circle cx="20" cy="20" r="20" fill="white"/>
<circle cx="20" cy="20" r="19" stroke="#A4A4A4" stroke-opacity="0.5" stroke-width="2"/>
<ellipse cx="19.9996" cy="20.0001" rx="5.21053" ry="5.21053" fill="#A4A4A4"/>
<path fill-rule="evenodd" clip-rule="evenodd" d="M19.9854 22.1167C19.4311 22.6493 19.5306 22.6773 18.9762 22.1307L16.8584 20.0704C16.7446 19.9443 16.7589 19.8182 16.8868 19.692L17.8675 18.6969C18.0097 18.5428 18.1376 18.5568 18.2798 18.6969L19.5164 19.8462L21.62 17.7299C21.8333 17.5196 21.9612 17.3514 22.217 17.6177L23.0557 18.4587C23.3257 18.725 23.3115 18.8791 23.0557 19.1314" fill="white"/>
<path fill-rule="evenodd" clip-rule="evenodd" d="M24.5496 12.2968C24.3587 12.1643 24.1238 12.0907 23.9036 12.1496C23.6687 12.1937 23.4778 12.3262 23.3457 12.5175L22.5675 13.6064C22.2886 13.4887 22.0096 13.3857 21.7013 13.3121C21.393 13.2385 21.114 13.1796 20.8057 13.1355L20.5561 11.7082C20.5121 11.458 20.3946 11.2814 20.2038 11.149C20.0129 11.0166 19.7927 10.9724 19.5578 11.0166L17.7813 11.3109C17.5464 11.355 17.3702 11.458 17.2234 11.664C17.0912 11.8553 17.0325 12.076 17.0766 12.3115L17.2968 13.6211C17.0032 13.7388 16.7389 13.886 16.4746 14.0478C16.2103 14.195 15.9607 14.3863 15.7258 14.5628L14.5072 13.7241C14.3017 13.5917 14.0962 13.5181 13.8759 13.5769C13.641 13.6211 13.4502 13.7388 13.318 13.9448L12.2903 15.4163C12.1582 15.6223 12.0994 15.843 12.1435 16.0638C12.1875 16.3139 12.305 16.4905 12.5105 16.6229L13.597 17.4028C13.4795 17.6824 13.3768 17.962 13.3033 18.271C13.2299 18.58 13.1712 18.8596 13.1272 19.1686L11.703 19.4188C10.4991 19.6395 11.1745 21.3906 11.3213 22.2146C11.3653 22.45 11.4681 22.6266 11.6737 22.7738C11.8645 22.9062 12.0848 22.9651 12.3197 22.9209L13.6263 22.6855C13.7438 22.9798 13.8906 23.2446 14.0521 23.5095C14.1989 23.7744 14.3898 24.0245 14.566 24.2747L13.7291 25.4813C13.597 25.6726 13.5236 25.8933 13.5823 26.114C13.6263 26.3495 13.7438 26.5408 13.9493 26.6732L15.4322 27.718C15.6377 27.8504 15.858 27.8945 16.0782 27.8504C16.3131 27.8063 16.504 27.7032 16.6508 27.4972L17.4289 26.3936C17.7079 26.5113 17.9868 26.6143 18.2951 26.6879C18.6035 26.7615 18.8824 26.8204 19.1907 26.8645L19.4403 28.2918C19.4844 28.542 19.6165 28.7186 19.7927 28.851C19.9836 28.9834 20.2038 29.0276 20.4387 28.9834L22.2299 28.6597C22.4648 28.6156 22.641 28.5126 22.7878 28.3066C22.9199 28.1153 22.9786 27.8945 22.9346 27.6591L22.6997 26.3495C22.9933 26.2318 23.2576 26.0846 23.5219 25.9227C23.7861 25.7756 24.0357 25.5843 24.2853 25.4077L25.4892 26.2465C25.6801 26.3789 25.9003 26.4378 26.1352 26.3936C26.3848 26.3495 26.561 26.217 26.6931 26.0258L27.7355 24.5395C27.8677 24.3483 27.9117 24.1128 27.8677 23.8921C27.8236 23.6567 27.7208 23.4654 27.5153 23.3182L26.3995 22.5972C26.5169 22.3176 26.6197 22.038 26.6931 21.729C26.7665 21.42 26.8253 21.1404 26.8693 20.8314L28.2934 20.5812C28.543 20.5371 28.7192 20.4047 28.8513 20.2281C28.9835 20.0368 29.0275 19.8161 28.9835 19.5806L28.6605 17.7854C28.6164 17.55 28.5137 17.3734 28.3081 17.2262C28.1173 17.0938 27.897 17.0349 27.6621 17.0791L26.3554 17.3145C26.238 17.0349 26.0912 16.7701 25.9297 16.4905C25.7829 16.2109 25.592 15.9755 25.4158 15.74L26.2527 14.5187C26.3848 14.3127 26.4435 14.1067 26.3995 13.886C26.3554 13.6652 26.2233 13.4592 26.0324 13.3268L24.5936 12.282L24.5496 12.2968ZM19.9982 14.4598C23.052 14.4598 25.5333 16.9467 25.5333 20.0074C25.5333 23.0681 23.052 25.5549 19.9982 25.5549C16.9444 25.5549 14.4632 23.0681 14.4632 20.0074C14.4632 16.9467 16.9444 14.4598 19.9982 14.4598Z" fill="#A4A4A4"/>
</svg>
