<svg width="8" height="11" viewBox="0 0 8 11" fill="none" xmlns="http://www.w3.org/2000/svg">
<mask id="path-1-outside-1_2294_128263" maskUnits="userSpaceOnUse" x="-0.5" y="-0.642822" width="9" height="12" fill="black">
<rect fill="white" x="-0.5" y="-0.642822" width="9" height="12"/>
<path d="M6.90477 0.357178C7.06235 0.358082 7.2132 0.418921 7.32463 0.526505C7.43605 0.634089 7.49906 0.779746 7.5 0.93189V9.78247C7.5 10.0972 7.23072 10.3572 6.90477 10.3572H0.952463C0.626515 10.3572 0.357233 10.0972 0.357233 9.78247V0.93189C0.357233 0.617178 0.626515 0.357178 0.952463 0.357178H6.90477ZM5.83335 1.9089C5.44169 1.9089 5.11908 2.2204 5.11908 2.59856C5.11908 2.97672 5.44169 3.28821 5.83335 3.28821C6.22502 3.28821 6.54763 2.97672 6.54763 2.59856C6.54763 2.2204 6.22502 1.9089 5.83335 1.9089ZM3.92862 1.9089C3.53695 1.9089 3.21434 2.2204 3.21434 2.59856C3.21434 2.97672 3.53695 3.28821 3.92862 3.28821C4.32028 3.28821 4.64289 2.97672 4.64289 2.59856C4.64289 2.2204 4.32028 1.9089 3.92862 1.9089ZM2.02388 1.9089C1.63222 1.9089 1.3096 2.2204 1.3096 2.59856C1.3096 2.97672 1.63222 3.28821 2.02388 3.28821C2.41554 3.28821 2.73815 2.97672 2.73815 2.59856C2.73815 2.2204 2.41554 1.9089 2.02388 1.9089ZM5.83335 2.36867C5.96764 2.36867 6.07145 2.4689 6.07145 2.59856C6.07145 2.72821 5.96764 2.82844 5.83335 2.82844C5.69907 2.82844 5.59526 2.72821 5.59526 2.59856C5.59526 2.4689 5.69907 2.36867 5.83335 2.36867ZM3.92862 2.36867C4.0629 2.36867 4.16671 2.4689 4.16671 2.59856C4.16671 2.72821 4.0629 2.82844 3.92862 2.82844C3.79433 2.82844 3.69052 2.72821 3.69052 2.59856C3.69052 2.4689 3.79433 2.36867 3.92862 2.36867ZM2.02388 2.36867C2.15816 2.36867 2.26197 2.4689 2.26197 2.59856C2.26197 2.72821 2.15816 2.82844 2.02388 2.82844C1.88959 2.82844 1.78579 2.72821 1.78579 2.59856C1.78579 2.4689 1.88959 2.36867 2.02388 2.36867ZM5.83335 3.74798C5.44169 3.74798 5.11908 4.05948 5.11908 4.43764C5.11908 4.8158 5.44169 5.12729 5.83335 5.12729C6.22502 5.12729 6.54763 4.8158 6.54763 4.43764C6.54763 4.05948 6.22502 3.74798 5.83335 3.74798ZM3.92862 3.74798C3.53695 3.74798 3.21434 4.05948 3.21434 4.43764C3.21434 4.8158 3.53695 5.12729 3.92862 5.12729C4.32028 5.12729 4.64289 4.8158 4.64289 4.43764C4.64289 4.05948 4.32028 3.74798 3.92862 3.74798ZM2.02388 3.74798C1.63222 3.74798 1.3096 4.05948 1.3096 4.43764C1.3096 4.8158 1.63222 5.12729 2.02388 5.12729C2.41554 5.12729 2.73815 4.8158 2.73815 4.43764C2.73815 4.05948 2.41554 3.74798 2.02388 3.74798ZM5.83335 4.20775C5.96764 4.20775 6.07145 4.30798 6.07145 4.43764C6.07145 4.56729 5.96764 4.66752 5.83335 4.66752C5.69907 4.66752 5.59526 4.56729 5.59526 4.43764C5.59526 4.30798 5.69907 4.20775 5.83335 4.20775ZM3.92862 4.20775C4.0629 4.20775 4.16671 4.30798 4.16671 4.43764C4.16671 4.56729 4.0629 4.66752 3.92862 4.66752C3.79433 4.66752 3.69052 4.56729 3.69052 4.43764C3.69052 4.30798 3.79433 4.20775 3.92862 4.20775ZM2.02388 4.20775C2.15816 4.20775 2.26197 4.30798 2.26197 4.43764C2.26197 4.56729 2.15816 4.66752 2.02388 4.66752C1.88959 4.66752 1.78579 4.56729 1.78579 4.43764C1.78579 4.30798 1.88959 4.20775 2.02388 4.20775ZM5.83335 5.58706C5.44169 5.58706 5.11908 5.89856 5.11908 6.27672C5.11908 6.65488 5.44169 6.96637 5.83335 6.96637C6.22502 6.96637 6.54763 6.65488 6.54763 6.27672C6.54763 5.89856 6.22502 5.58706 5.83335 5.58706ZM3.92862 5.58706C3.53695 5.58706 3.21434 5.89856 3.21434 6.27672C3.21434 6.65488 3.53695 6.96637 3.92862 6.96637C4.32028 6.96637 4.64289 6.65488 4.64289 6.27672C4.64289 5.89856 4.32028 5.58706 3.92862 5.58706ZM2.02388 5.58706C1.63222 5.58706 1.3096 5.89856 1.3096 6.27672C1.3096 6.65488 1.63222 6.96637 2.02388 6.96637C2.41554 6.96637 2.73815 6.65488 2.73815 6.27672C2.73815 5.89856 2.41554 5.58706 2.02388 5.58706ZM5.83335 6.04683C5.96764 6.04683 6.07145 6.14706 6.07145 6.27672C6.07145 6.40637 5.96764 6.5066 5.83335 6.5066C5.69907 6.5066 5.59526 6.40637 5.59526 6.27672C5.59526 6.14706 5.69907 6.04683 5.83335 6.04683ZM3.92862 6.04683C4.0629 6.04683 4.16671 6.14706 4.16671 6.27672C4.16671 6.40637 4.0629 6.5066 3.92862 6.5066C3.79433 6.5066 3.69052 6.40637 3.69052 6.27672C3.69052 6.14706 3.79433 6.04683 3.92862 6.04683ZM2.02388 6.04683C2.15816 6.04683 2.26197 6.14706 2.26197 6.27672C2.26197 6.40637 2.15816 6.5066 2.02388 6.5066C1.88959 6.5066 1.78579 6.40637 1.78579 6.27672C1.78579 6.14706 1.88959 6.04683 2.02388 6.04683ZM5.83335 7.42614C5.44169 7.42614 5.11908 7.73764 5.11908 8.1158C5.11908 8.49396 5.44169 8.80545 5.83335 8.80545C6.22502 8.80545 6.54763 8.49396 6.54763 8.1158C6.54763 7.73764 6.22502 7.42614 5.83335 7.42614ZM3.92862 7.42614C3.53695 7.42614 3.21434 7.73764 3.21434 8.1158C3.21434 8.49396 3.53695 8.80545 3.92862 8.80545C4.32028 8.80545 4.64289 8.49396 4.64289 8.1158C4.64289 7.73764 4.32028 7.42614 3.92862 7.42614ZM2.02388 7.42614C1.63222 7.42614 1.3096 7.73764 1.3096 8.1158C1.3096 8.49396 1.63222 8.80545 2.02388 8.80545C2.41554 8.80545 2.73815 8.49396 2.73815 8.1158C2.73815 7.73764 2.41554 7.42614 2.02388 7.42614ZM5.83335 7.88591C5.96764 7.88591 6.07145 7.98614 6.07145 8.1158C6.07145 8.24545 5.96764 8.34568 5.83335 8.34568C5.69907 8.34568 5.59526 8.24545 5.59526 8.1158C5.59526 7.98614 5.69907 7.88591 5.83335 7.88591ZM3.92862 7.88591C4.0629 7.88591 4.16671 7.98614 4.16671 8.1158C4.16671 8.24545 4.0629 8.34568 3.92862 8.34568C3.79433 8.34568 3.69052 8.24545 3.69052 8.1158C3.69052 7.98614 3.79433 7.88591 3.92862 7.88591ZM2.02388 7.88591C2.15816 7.88591 2.26197 7.98614 2.26197 8.1158C2.26197 8.24545 2.15816 8.34568 2.02388 8.34568C1.88959 8.34568 1.78579 8.24545 1.78579 8.1158C1.78579 7.98614 1.88959 7.88591 2.02388 7.88591Z"/>
</mask>
<path d="M6.90477 0.357178C7.06235 0.358082 7.2132 0.418921 7.32463 0.526505C7.43605 0.634089 7.49906 0.779746 7.5 0.93189V9.78247C7.5 10.0972 7.23072 10.3572 6.90477 10.3572H0.952463C0.626515 10.3572 0.357233 10.0972 0.357233 9.78247V0.93189C0.357233 0.617178 0.626515 0.357178 0.952463 0.357178H6.90477ZM5.83335 1.9089C5.44169 1.9089 5.11908 2.2204 5.11908 2.59856C5.11908 2.97672 5.44169 3.28821 5.83335 3.28821C6.22502 3.28821 6.54763 2.97672 6.54763 2.59856C6.54763 2.2204 6.22502 1.9089 5.83335 1.9089ZM3.92862 1.9089C3.53695 1.9089 3.21434 2.2204 3.21434 2.59856C3.21434 2.97672 3.53695 3.28821 3.92862 3.28821C4.32028 3.28821 4.64289 2.97672 4.64289 2.59856C4.64289 2.2204 4.32028 1.9089 3.92862 1.9089ZM2.02388 1.9089C1.63222 1.9089 1.3096 2.2204 1.3096 2.59856C1.3096 2.97672 1.63222 3.28821 2.02388 3.28821C2.41554 3.28821 2.73815 2.97672 2.73815 2.59856C2.73815 2.2204 2.41554 1.9089 2.02388 1.9089ZM5.83335 2.36867C5.96764 2.36867 6.07145 2.4689 6.07145 2.59856C6.07145 2.72821 5.96764 2.82844 5.83335 2.82844C5.69907 2.82844 5.59526 2.72821 5.59526 2.59856C5.59526 2.4689 5.69907 2.36867 5.83335 2.36867ZM3.92862 2.36867C4.0629 2.36867 4.16671 2.4689 4.16671 2.59856C4.16671 2.72821 4.0629 2.82844 3.92862 2.82844C3.79433 2.82844 3.69052 2.72821 3.69052 2.59856C3.69052 2.4689 3.79433 2.36867 3.92862 2.36867ZM2.02388 2.36867C2.15816 2.36867 2.26197 2.4689 2.26197 2.59856C2.26197 2.72821 2.15816 2.82844 2.02388 2.82844C1.88959 2.82844 1.78579 2.72821 1.78579 2.59856C1.78579 2.4689 1.88959 2.36867 2.02388 2.36867ZM5.83335 3.74798C5.44169 3.74798 5.11908 4.05948 5.11908 4.43764C5.11908 4.8158 5.44169 5.12729 5.83335 5.12729C6.22502 5.12729 6.54763 4.8158 6.54763 4.43764C6.54763 4.05948 6.22502 3.74798 5.83335 3.74798ZM3.92862 3.74798C3.53695 3.74798 3.21434 4.05948 3.21434 4.43764C3.21434 4.8158 3.53695 5.12729 3.92862 5.12729C4.32028 5.12729 4.64289 4.8158 4.64289 4.43764C4.64289 4.05948 4.32028 3.74798 3.92862 3.74798ZM2.02388 3.74798C1.63222 3.74798 1.3096 4.05948 1.3096 4.43764C1.3096 4.8158 1.63222 5.12729 2.02388 5.12729C2.41554 5.12729 2.73815 4.8158 2.73815 4.43764C2.73815 4.05948 2.41554 3.74798 2.02388 3.74798ZM5.83335 4.20775C5.96764 4.20775 6.07145 4.30798 6.07145 4.43764C6.07145 4.56729 5.96764 4.66752 5.83335 4.66752C5.69907 4.66752 5.59526 4.56729 5.59526 4.43764C5.59526 4.30798 5.69907 4.20775 5.83335 4.20775ZM3.92862 4.20775C4.0629 4.20775 4.16671 4.30798 4.16671 4.43764C4.16671 4.56729 4.0629 4.66752 3.92862 4.66752C3.79433 4.66752 3.69052 4.56729 3.69052 4.43764C3.69052 4.30798 3.79433 4.20775 3.92862 4.20775ZM2.02388 4.20775C2.15816 4.20775 2.26197 4.30798 2.26197 4.43764C2.26197 4.56729 2.15816 4.66752 2.02388 4.66752C1.88959 4.66752 1.78579 4.56729 1.78579 4.43764C1.78579 4.30798 1.88959 4.20775 2.02388 4.20775ZM5.83335 5.58706C5.44169 5.58706 5.11908 5.89856 5.11908 6.27672C5.11908 6.65488 5.44169 6.96637 5.83335 6.96637C6.22502 6.96637 6.54763 6.65488 6.54763 6.27672C6.54763 5.89856 6.22502 5.58706 5.83335 5.58706ZM3.92862 5.58706C3.53695 5.58706 3.21434 5.89856 3.21434 6.27672C3.21434 6.65488 3.53695 6.96637 3.92862 6.96637C4.32028 6.96637 4.64289 6.65488 4.64289 6.27672C4.64289 5.89856 4.32028 5.58706 3.92862 5.58706ZM2.02388 5.58706C1.63222 5.58706 1.3096 5.89856 1.3096 6.27672C1.3096 6.65488 1.63222 6.96637 2.02388 6.96637C2.41554 6.96637 2.73815 6.65488 2.73815 6.27672C2.73815 5.89856 2.41554 5.58706 2.02388 5.58706ZM5.83335 6.04683C5.96764 6.04683 6.07145 6.14706 6.07145 6.27672C6.07145 6.40637 5.96764 6.5066 5.83335 6.5066C5.69907 6.5066 5.59526 6.40637 5.59526 6.27672C5.59526 6.14706 5.69907 6.04683 5.83335 6.04683ZM3.92862 6.04683C4.0629 6.04683 4.16671 6.14706 4.16671 6.27672C4.16671 6.40637 4.0629 6.5066 3.92862 6.5066C3.79433 6.5066 3.69052 6.40637 3.69052 6.27672C3.69052 6.14706 3.79433 6.04683 3.92862 6.04683ZM2.02388 6.04683C2.15816 6.04683 2.26197 6.14706 2.26197 6.27672C2.26197 6.40637 2.15816 6.5066 2.02388 6.5066C1.88959 6.5066 1.78579 6.40637 1.78579 6.27672C1.78579 6.14706 1.88959 6.04683 2.02388 6.04683ZM5.83335 7.42614C5.44169 7.42614 5.11908 7.73764 5.11908 8.1158C5.11908 8.49396 5.44169 8.80545 5.83335 8.80545C6.22502 8.80545 6.54763 8.49396 6.54763 8.1158C6.54763 7.73764 6.22502 7.42614 5.83335 7.42614ZM3.92862 7.42614C3.53695 7.42614 3.21434 7.73764 3.21434 8.1158C3.21434 8.49396 3.53695 8.80545 3.92862 8.80545C4.32028 8.80545 4.64289 8.49396 4.64289 8.1158C4.64289 7.73764 4.32028 7.42614 3.92862 7.42614ZM2.02388 7.42614C1.63222 7.42614 1.3096 7.73764 1.3096 8.1158C1.3096 8.49396 1.63222 8.80545 2.02388 8.80545C2.41554 8.80545 2.73815 8.49396 2.73815 8.1158C2.73815 7.73764 2.41554 7.42614 2.02388 7.42614ZM5.83335 7.88591C5.96764 7.88591 6.07145 7.98614 6.07145 8.1158C6.07145 8.24545 5.96764 8.34568 5.83335 8.34568C5.69907 8.34568 5.59526 8.24545 5.59526 8.1158C5.59526 7.98614 5.69907 7.88591 5.83335 7.88591ZM3.92862 7.88591C4.0629 7.88591 4.16671 7.98614 4.16671 8.1158C4.16671 8.24545 4.0629 8.34568 3.92862 8.34568C3.79433 8.34568 3.69052 8.24545 3.69052 8.1158C3.69052 7.98614 3.79433 7.88591 3.92862 7.88591ZM2.02388 7.88591C2.15816 7.88591 2.26197 7.98614 2.26197 8.1158C2.26197 8.24545 2.15816 8.34568 2.02388 8.34568C1.88959 8.34568 1.78579 8.24545 1.78579 8.1158C1.78579 7.98614 1.88959 7.88591 2.02388 7.88591Z" stroke="black" stroke-width="0.714286" mask="url(#path-1-outside-1_2294_128263)"/>
</svg>
