<svg width="14" height="12" viewBox="0 0 14 12" fill="none" xmlns="http://www.w3.org/2000/svg">
<path d="M3.26308 8.76992H9.07557C9.95935 8.76992 10.6784 8.07068 10.6784 7.2112V3.71201C10.6784 2.85253 9.95935 2.15332 9.07557 2.15332H3.26308C3.20503 2.15332 3.14935 2.17575 3.1083 2.21566C3.06726 2.25558 3.0442 2.30972 3.0442 2.36617C3.0442 2.42262 3.06726 2.47676 3.1083 2.51668C3.14935 2.55659 3.20503 2.57902 3.26308 2.57902H9.07557C9.71798 2.57902 10.2406 3.0873 10.2406 3.71201V7.21123C10.2406 7.83597 9.71798 8.34425 9.07557 8.34425H3.26308C3.20545 8.34488 3.15041 8.36758 3.10989 8.40742C3.06937 8.44727 3.04664 8.50105 3.04664 8.55709C3.04664 8.61312 3.06937 8.6669 3.10989 8.70675C3.15041 8.7466 3.20545 8.76929 3.26308 8.76992Z" fill="#363636"/>
<path d="M1.58756 9.30829H3.26418C3.32223 9.30829 3.3779 9.28586 3.41895 9.24595C3.46 9.20603 3.48306 9.15189 3.48306 9.09544V1.82784C3.48306 1.77139 3.46 1.71725 3.41895 1.67733C3.3779 1.63742 3.32223 1.61499 3.26418 1.61499H1.58756C0.71256 1.61499 0.000680447 2.30726 0.000680447 3.15815V7.76508C0.000680447 8.616 0.71256 9.30829 1.58756 9.30829ZM3.0453 8.88259H1.58756C0.95393 8.88259 0.43844 8.38128 0.43844 7.76511V3.15815C0.43844 2.54197 0.95393 2.04069 1.58756 2.04069H3.0453V8.88259Z" fill="#363636"/>
<path d="M0.21903 7.42408H2.1565C2.21455 7.42408 2.27022 7.40165 2.31127 7.36173C2.35232 7.32182 2.37538 7.26768 2.37538 7.21123V3.71204C2.37538 3.65559 2.35232 3.60145 2.31127 3.56153C2.27022 3.52162 2.21455 3.49919 2.1565 3.49919H0.21903C0.16098 3.49919 0.105307 3.52162 0.0642586 3.56153C0.0232105 3.60145 0.000150681 3.65559 0.000150681 3.71204V7.21125C0.000157356 7.2677 0.023222 7.32183 0.0642691 7.36174C0.105316 7.40165 0.160985 7.42408 0.21903 7.42408ZM1.93762 6.99838H0.43791V3.92489H1.93762V6.99838ZM9.07614 8.76995C9.13419 8.76995 9.18987 8.74752 9.23091 8.7076C9.27196 8.66769 9.29502 8.61355 9.29502 8.5571V2.36617C9.29502 2.30972 9.27196 2.25558 9.23091 2.21566C9.18987 2.17575 9.13419 2.15332 9.07614 2.15332C9.01809 2.15332 8.96242 2.17575 8.92137 2.21566C8.88032 2.25558 8.85726 2.30972 8.85726 2.36617V8.5571C8.85726 8.61355 8.88032 8.66769 8.92137 8.7076C8.96242 8.74752 9.01809 8.76995 9.07614 8.76995ZM4.3708 3.65572H7.96899C8.02704 3.65572 8.08272 3.63329 8.12376 3.59337C8.16481 3.55346 8.18787 3.49932 8.18787 3.44287C8.18787 3.38642 8.16481 3.33228 8.12376 3.29236C8.08272 3.25244 8.02704 3.23002 7.96899 3.23002H4.3708C4.31275 3.23002 4.25708 3.25244 4.21603 3.29236C4.17498 3.33228 4.15192 3.38642 4.15192 3.44287C4.15192 3.49932 4.17498 3.55346 4.21603 3.59337C4.25708 3.63329 4.31275 3.65572 4.3708 3.65572ZM4.3708 5.00156H7.96899C8.02704 5.00156 8.08272 4.97914 8.12376 4.93922C8.16481 4.8993 8.18787 4.84516 8.18787 4.78871C8.18787 4.73226 8.16481 4.67812 8.12376 4.6382C8.08272 4.59829 8.02704 4.57586 7.96899 4.57586H4.3708C4.31275 4.57586 4.25708 4.59829 4.21603 4.6382C4.17498 4.67812 4.15192 4.73226 4.15192 4.78871C4.15192 4.84516 4.17498 4.8993 4.21603 4.93922C4.25708 4.97914 4.31275 5.00156 4.3708 5.00156ZM4.3708 6.34743H7.96899C8.02704 6.34743 8.08272 6.32501 8.12376 6.28509C8.16481 6.24517 8.18787 6.19103 8.18787 6.13458C8.18787 6.07813 8.16481 6.02399 8.12376 5.98408C8.08272 5.94416 8.02704 5.92173 7.96899 5.92173H4.3708C4.31275 5.92173 4.25708 5.94416 4.21603 5.98408C4.17498 6.02399 4.15192 6.07813 4.15192 6.13458C4.15192 6.19103 4.17498 6.24517 4.21603 6.28509C4.25708 6.32501 4.31275 6.34743 4.3708 6.34743ZM4.3708 7.69328H7.96899C8.02704 7.69328 8.08272 7.67085 8.12376 7.63093C8.16481 7.59102 8.18787 7.53688 8.18787 7.48043C8.18787 7.42398 8.16481 7.36984 8.12376 7.32992C8.08272 7.29 8.02704 7.26758 7.96899 7.26758H4.3708C4.31275 7.26758 4.25708 7.29 4.21603 7.32992C4.17498 7.36984 4.15192 7.42398 4.15192 7.48043C4.15192 7.53688 4.17498 7.59102 4.21603 7.63093C4.25708 7.67085 4.31275 7.69328 4.3708 7.69328ZM10.4601 7.15493H11.9824C12.4846 7.15493 12.8932 6.75757 12.8932 6.26916V4.65411C12.8932 4.1657 12.4846 3.76834 11.9824 3.76834H10.4601C10.402 3.76834 10.3463 3.79076 10.3053 3.83068C10.2642 3.8706 10.2412 3.92474 10.2412 3.98119C10.2412 4.03764 10.2642 4.09178 10.3053 4.1317C10.3463 4.17161 10.402 4.19404 10.4601 4.19404H11.9824C12.2432 4.19404 12.4555 4.40042 12.4555 4.65411V6.26916C12.4555 6.52285 12.2432 6.72923 11.9824 6.72923H10.4601C10.402 6.72923 10.3463 6.75165 10.3053 6.79157C10.2642 6.83149 10.2412 6.88563 10.2412 6.94208C10.2412 6.99853 10.2642 7.05267 10.3053 7.09259C10.3463 7.1325 10.402 7.15493 10.4601 7.15493Z" fill="#363636"/>
<path d="M11.5665 7.15512C11.6246 7.15512 11.6802 7.13269 11.7213 7.09277C11.7623 7.05286 11.7854 6.99872 11.7854 6.94227V3.9814C11.7854 3.92495 11.7623 3.87081 11.7213 3.8309C11.6802 3.79098 11.6246 3.76855 11.5665 3.76855C11.5085 3.76855 11.4528 3.79098 11.4117 3.8309C11.3707 3.87081 11.3476 3.92495 11.3476 3.9814V6.94229C11.3476 6.99874 11.3707 7.05287 11.4117 7.09278C11.4528 7.13269 11.5085 7.15512 11.5665 7.15512ZM12.6737 6.34762H13.0969C13.5947 6.34762 13.9997 5.9538 13.9997 5.46975V5.45395C13.9997 4.9699 13.5947 4.57608 13.0969 4.57608H12.6737C12.6156 4.57608 12.5599 4.5985 12.5189 4.63842C12.4778 4.67834 12.4548 4.73248 12.4548 4.78893V6.13477C12.4548 6.19122 12.4778 6.24536 12.5189 6.28528C12.5599 6.3252 12.6156 6.34762 12.6737 6.34762ZM13.0969 5.00175C13.3533 5.00175 13.5619 5.20459 13.5619 5.45392V5.46972C13.5619 5.71905 13.3533 5.9219 13.0969 5.9219H12.8925V5.00175H13.0969ZM8.93708 10.9235C8.99513 10.9235 9.0508 10.9011 9.09185 10.8612C9.1329 10.8212 9.15596 10.7671 9.15596 10.7107V8.55729C9.15596 8.50083 9.1329 8.4467 9.09185 8.40678C9.0508 8.36686 8.99513 8.34444 8.93708 8.34444C8.87903 8.34444 8.82335 8.36686 8.78231 8.40678C8.74126 8.4467 8.7182 8.50083 8.7182 8.55729V10.7107C8.7182 10.7671 8.74126 10.8212 8.78231 10.8612C8.82335 10.9011 8.87903 10.9235 8.93708 10.9235ZM7.82993 10.9235C7.88798 10.9235 7.94365 10.9011 7.9847 10.8612C8.02575 10.8212 8.04881 10.7671 8.04881 10.7107V8.55729C8.04881 8.50083 8.02575 8.4467 7.9847 8.40678C7.94365 8.36686 7.88798 8.34444 7.82993 8.34444C7.77188 8.34444 7.71621 8.36686 7.67516 8.40678C7.63411 8.4467 7.61105 8.50083 7.61105 8.55729V10.7107C7.61105 10.7671 7.63411 10.8212 7.67516 10.8612C7.71621 10.9011 7.77188 10.9235 7.82993 10.9235ZM5.89243 10.9235C5.95048 10.9235 6.00615 10.9011 6.0472 10.8612C6.08825 10.8212 6.11131 10.7671 6.11131 10.7107V8.55729C6.11131 8.50083 6.08825 8.4467 6.0472 8.40678C6.00615 8.36686 5.95048 8.34444 5.89243 8.34444C5.83438 8.34444 5.77871 8.36686 5.73766 8.40678C5.69661 8.4467 5.67355 8.50083 5.67355 8.55729V10.7107C5.67355 10.7671 5.69661 10.8212 5.73766 10.8612C5.77871 10.9011 5.83438 10.9235 5.89243 10.9235ZM4.78528 10.9235C4.84333 10.9235 4.899 10.9011 4.94005 10.8612C4.9811 10.8212 5.00416 10.7671 5.00416 10.7107V8.55729C5.00416 8.50083 4.9811 8.4467 4.94005 8.40678C4.899 8.36686 4.84333 8.34444 4.78528 8.34444C4.72723 8.34444 4.67156 8.36686 4.63051 8.40678C4.58946 8.4467 4.5664 8.50083 4.5664 8.55729V10.7107C4.5664 10.7671 4.58946 10.8212 4.63051 10.8612C4.67156 10.9011 4.72723 10.9235 4.78528 10.9235Z" fill="#363636"/>
<path d="M4.23185 12H9.49074C9.54879 12 9.60447 11.9776 9.64551 11.9377C9.68656 11.8977 9.70962 11.8436 9.70962 11.7871V10.7105C9.70962 10.654 9.68656 10.5999 9.64551 10.56C9.60447 10.5201 9.54879 10.4976 9.49074 10.4976H4.23185C4.1738 10.4976 4.11813 10.5201 4.07708 10.56C4.03603 10.5999 4.01297 10.654 4.01297 10.7105V11.7871C4.01297 11.8436 4.03603 11.8977 4.07708 11.9377C4.11813 11.9776 4.1738 12 4.23185 12ZM9.27186 11.5743H4.45073V10.9233H9.27186V11.5743ZM5.20059 2.57903C5.25864 2.57903 5.31431 2.5566 5.35536 2.51669C5.39641 2.47677 5.41947 2.42263 5.41947 2.36618V1.28951C5.41947 1.23306 5.39641 1.17892 5.35536 1.139C5.31431 1.09909 5.25864 1.07666 5.20059 1.07666C5.14254 1.07666 5.08686 1.09909 5.04581 1.139C5.00477 1.17892 4.98171 1.23306 4.98171 1.28951V2.36618C4.98171 2.42263 5.00477 2.47677 5.04581 2.51669C5.08686 2.5566 5.14254 2.57903 5.20059 2.57903ZM8.52201 2.57903C8.58006 2.57903 8.63573 2.5566 8.67678 2.51669C8.71783 2.47677 8.74089 2.42263 8.74089 2.36618V1.28951C8.74089 1.23306 8.71783 1.17892 8.67678 1.139C8.63573 1.09909 8.58006 1.07666 8.52201 1.07666C8.46396 1.07666 8.40828 1.09909 8.36724 1.139C8.32619 1.17892 8.30313 1.23306 8.30313 1.28951V2.36618C8.30313 2.42263 8.32619 2.47677 8.36724 2.51669C8.40828 2.5566 8.46396 2.57903 8.52201 2.57903Z" fill="#363636"/>
<path d="M4.64713 1.50237H9.0757C9.13375 1.50237 9.18943 1.47994 9.23047 1.44003C9.27152 1.40011 9.29458 1.34597 9.29458 1.28952V0.212849C9.29458 0.156398 9.27152 0.102259 9.23047 0.0623421C9.18943 0.0224252 9.13375 0 9.0757 0H4.64716C4.58911 0 4.53344 0.0224252 4.49239 0.0623421C4.45134 0.102259 4.42828 0.156398 4.42828 0.212849V1.28952C4.42827 1.31747 4.43393 1.34515 4.44492 1.37098C4.45592 1.3968 4.47204 1.42027 4.49236 1.44003C4.51269 1.4598 4.53682 1.47548 4.56337 1.48617C4.58993 1.49687 4.61839 1.50237 4.64713 1.50237ZM8.85682 1.07667H4.86604V0.425698H8.85682V1.07667Z" fill="#363636"/>
</svg>
