<svg width="35" height="35" viewBox="0 0 35 35" fill="none" xmlns="http://www.w3.org/2000/svg">
<path fill-rule="evenodd" clip-rule="evenodd" d="M0 2.51015V5.02029L0.727077 5.05047L1.45415 5.08065L1.47983 13.882L1.5054 22.6833H16.8989H32.2923V24.2583C32.2923 25.7015 32.2755 25.8488 32.0923 26.0185C31.8487 26.2441 31.6955 26.769 31.7649 27.1404C31.793 27.2913 31.9493 27.5511 32.112 27.7176C32.7209 28.3408 33.8986 27.9957 34.0538 27.1486C34.1329 26.7168 33.9435 26.1031 33.6878 25.9631C33.4989 25.8597 33.4953 25.6308 33.5203 15.469L33.5458 5.08065L34.2729 5.05047L35 5.02029V2.51015V0H17.5H0V2.51015ZM2.2063 2.56598V3.90029H1.70487H1.20344V2.56598V1.23167H1.70487H2.2063V2.56598ZM32.2923 1.79619V2.3607H17.5H2.70774V1.79619V1.23167H17.5H32.2923V1.79619ZM33.7966 2.56598V3.90029H33.2951H32.7937V2.56598V1.23167H33.2951H33.7966V2.56598ZM32.2923 12.0601V21.4516H17.5H2.70774V12.0601V2.66862H17.5H32.2923V12.0601ZM4.71347 29.4062V35H17.5H30.2865V29.4062V23.8123H29.6848H29.0831V28.7903V33.7683H17.5H5.91691V28.7903V23.8123H5.31519H4.71347V29.4062ZM7.12034 28.1745V32.5367H17.5H27.8797V28.1745C27.8797 24.3654 27.8606 23.8123 27.7292 23.8123C27.598 23.8123 27.5788 24.3427 27.5788 27.9692V32.1261H17.5H7.4212V27.9692C7.4212 24.3427 7.40205 23.8123 7.27077 23.8123C7.1394 23.8123 7.12034 24.3654 7.12034 28.1745ZM20.013 24.1106C19.9583 24.2011 16.0017 27.6185 14.4265 28.9357C13.9934 29.2979 13.639 29.6615 13.639 29.7437C13.639 29.8711 13.6638 29.8724 13.8076 29.7523C14.0291 29.5672 17.6906 26.4243 19.1297 25.1842C19.7502 24.6493 20.2579 24.1681 20.2579 24.1147C20.2579 23.991 20.0869 23.9881 20.013 24.1106ZM14.3535 26.2372C13.0215 27.3826 12.6017 27.8134 12.9328 27.6955C13.0582 27.6508 15.678 25.4043 15.8455 25.1977C15.9162 25.1105 15.9508 25.0151 15.9223 24.9859C15.8937 24.9567 15.1878 25.5198 14.3535 26.2372ZM18.9494 27.6735C16.809 29.5117 16.8921 29.434 16.9769 29.5208C17.0128 29.5576 17.8673 28.8821 18.8756 28.0196C21.0936 26.1228 20.9998 26.2104 20.8896 26.1407C20.8404 26.1096 19.9674 26.7993 18.9494 27.6735Z" fill="#363636"/>
</svg>
