<svg width="195" height="51" viewBox="0 0 195 51" fill="none" xmlns="http://www.w3.org/2000/svg">
<mask id="mask0_142_1226" style="mask-type:luminance" maskUnits="userSpaceOnUse" x="0" y="13" width="28" height="31">
<mask id="mask1_142_1226" style="mask-type:luminance" maskUnits="userSpaceOnUse" x="0" y="0" width="195" height="51">
<path d="M194.061 0H0V50.5519H194.061V0Z" fill="white"/>
</mask>
<g mask="url(#mask1_142_1226)">
<path d="M7.70333 28.7294C7.75596 28.7294 9.36764 29.3859 11.0648 30.095L16.288 32.2089C16.8854 32.4424 17.3734 32.8907 17.6559 33.4655C17.9384 34.0404 17.9949 34.6999 17.8142 35.3143C17.3932 36.9687 15.4065 38.5378 11.1504 37.9403C9.45974 37.7105 5.51932 36.8702 5.47985 36.8637C5.38776 36.8637 3.01298 35.9774 1.53286 36.7652C1.27732 36.8967 1.05368 37.0824 0.877556 37.3092C0.701431 37.536 0.577085 37.7984 0.513227 38.0782C-0.0393523 40.2841 2.23674 41.0522 2.24989 41.0588C3.04722 41.3337 3.86272 41.5531 4.69047 41.7153L5.29566 41.8794C8.35204 42.5755 11.4701 42.9669 14.604 43.0481C17.2945 43.0087 23.8137 42.3916 26.3924 37.7237C26.9807 36.2559 27.2063 34.6684 27.0502 33.0952C26.7344 31.3292 26.2082 29.5632 23.1032 27.5739C22.327 27.0815 19.8995 26.2609 17.755 25.565C16.6235 25.2039 15.5447 24.8362 14.979 24.6064C11.2162 23.0964 10.5386 21.7177 10.4794 21.0284C10.4549 20.2414 10.7434 19.4767 11.2819 18.9013C12.1898 17.9296 13.6896 17.4175 15.7552 17.4175C17.6458 17.3424 19.5352 17.5933 21.3402 18.1594C21.5836 18.2448 21.827 18.3236 22.0901 18.3892C22.4603 18.5216 22.8531 18.5799 23.2459 18.5608C23.6387 18.5416 24.0239 18.4454 24.3794 18.2776C24.5994 18.1262 24.7864 17.9317 24.9289 17.706C25.0713 17.4803 25.1664 17.2281 25.2082 16.9646C25.2872 16.5378 25.3859 15.1132 23.1295 14.2072C22.9453 14.135 18.3273 12.3361 11.0517 13.3472C9.33614 13.5727 7.67573 14.1065 6.15086 14.9228C3.40112 16.4328 1.97361 18.7897 2.02623 21.7046C2.05408 22.7673 2.32597 23.8095 2.82094 24.7508C3.31592 25.6921 4.02077 26.5074 4.88122 27.1341C5.71883 27.7985 6.65553 28.3279 7.65728 28.7031" fill="white"/>
</g>
</mask>
<g mask="url(#mask0_142_1226)">
<path d="M30.4321 9.78247H-2.82129V46.3834H30.4321V9.78247Z" fill="#F1AE34"/>
</g>
<mask id="mask2_142_1226" style="mask-type:luminance" maskUnits="userSpaceOnUse" x="32" y="6" width="44" height="44">
<mask id="mask3_142_1226" style="mask-type:luminance" maskUnits="userSpaceOnUse" x="0" y="0" width="195" height="51">
<path d="M194.061 0H0V50.5519H194.061V0Z" fill="white"/>
</mask>
<g mask="url(#mask3_142_1226)">
<path d="M54.1604 35.3799C52.6334 35.3825 51.14 34.9329 49.8691 34.088C48.5983 33.2431 47.6072 32.0409 47.0214 30.6336C46.4355 29.2263 46.2812 27.6771 46.578 26.1822C46.8748 24.6873 47.6093 23.314 48.6886 22.2359C49.7679 21.1579 51.1434 20.4236 52.641 20.1261C54.1387 19.8287 55.691 19.9813 57.1017 20.5648C58.5123 21.1483 59.7178 22.1364 60.5654 23.404C61.4131 24.6715 61.8649 26.1616 61.8636 27.6855C61.8584 29.7235 61.0454 31.6766 59.602 33.1182C58.1587 34.5599 56.2024 35.373 54.1604 35.3799ZM54.1604 6.13859C49.8903 6.13859 45.7161 7.40229 42.1656 9.7699C38.6151 12.1375 35.8479 15.5027 34.2138 19.4399C32.5797 23.3771 32.1521 27.7094 32.9852 31.8891C33.8182 36.0688 35.8745 39.9081 38.8939 42.9215C41.9133 45.9349 45.7603 47.9871 49.9484 48.8185C54.1364 49.6499 58.4775 49.2231 62.4225 47.5923C66.3676 45.9615 69.7395 43.1997 72.1119 39.6564C74.4842 36.113 75.7505 31.9471 75.7505 27.6855C75.7565 24.8524 75.2022 22.0461 74.1192 19.4272C73.0363 16.8084 71.446 14.4287 69.4396 12.4245C67.4333 10.4203 65.0502 8.83098 62.4272 7.74781C59.8041 6.66464 56.9925 6.10886 54.1538 6.11232L54.1604 6.13859Z" fill="white"/>
</g>
</mask>
<g mask="url(#mask2_142_1226)">
<path d="M79.0322 2.85596H29.2803V52.5085H79.0322V2.85596Z" fill="#F1AE34"/>
</g>
<mask id="mask4_142_1226" style="mask-type:luminance" maskUnits="userSpaceOnUse" x="82" y="13" width="43" height="29">
<mask id="mask5_142_1226" style="mask-type:luminance" maskUnits="userSpaceOnUse" x="0" y="0" width="195" height="51">
<path d="M194.061 0H0V50.5519H194.061V0Z" fill="white"/>
</mask>
<g mask="url(#mask5_142_1226)">
<path d="M82.4653 17.3912C82.4475 16.9302 82.5273 16.4707 82.6994 16.0426C82.8715 15.6145 83.132 15.2273 83.4641 14.9065C83.7962 14.5856 84.1923 14.3382 84.6266 14.1803C85.0609 14.0225 85.5237 13.9578 85.9847 13.9904C88.0898 13.9904 89.412 15.8943 91.9052 15.8943C95.0694 15.8943 95.9049 13.9904 100.187 13.9904C105.088 13.9904 105.364 15.8943 108.39 15.8943C111.588 15.8943 112.16 13.9904 117.791 13.9904C120.777 13.9904 124.073 15.7302 124.073 19.4658C124.073 24.5669 124.073 38.0649 124.073 38.1437C124.073 39.0718 123.704 39.9619 123.046 40.6181C122.389 41.2743 121.497 41.643 120.567 41.643C119.637 41.643 118.745 41.2743 118.088 40.6181C117.43 39.9619 117.061 39.0718 117.061 38.1437V22.8074C117.061 21.1071 117.061 17.6866 114.081 17.6144C114.081 17.6144 106.779 16.6099 106.779 29.3726C106.779 29.5762 106.779 38.0452 106.779 38.1109C106.794 39.039 106.438 39.9349 105.791 40.6016C105.144 41.2683 104.258 41.6512 103.328 41.666C102.399 41.6808 101.501 41.3263 100.833 40.6805C100.165 40.0347 99.7811 39.1506 99.7663 38.2225V22.8074C99.7663 21.6848 99.9571 17.6144 96.7403 17.6144C90.5172 17.6144 89.5041 23.9629 89.5041 29.1691V38.1109C89.5189 39.039 89.1638 39.9349 88.5167 40.6016C87.8697 41.2683 86.9837 41.6512 86.0538 41.666C85.1239 41.6808 84.2262 41.3263 83.5581 40.6805C82.8901 40.0347 82.5065 39.1506 82.4916 38.2225V17.3912" fill="white"/>
</g>
</mask>
<g mask="url(#mask4_142_1226)">
<path d="M127.343 10.675H79.1768V44.8994H127.343V10.675Z" fill="#F1AE34"/>
</g>
<mask id="mask6_142_1226" style="mask-type:luminance" maskUnits="userSpaceOnUse" x="130" y="0" width="30" height="42">
<mask id="mask7_142_1226" style="mask-type:luminance" maskUnits="userSpaceOnUse" x="0" y="0" width="195" height="51">
<path d="M194.061 0H0V50.5519H194.061V0Z" fill="white"/>
</mask>
<g mask="url(#mask7_142_1226)">
<path d="M145.006 25.1512C145.03 24.3797 145.356 23.6484 145.915 23.1144C146.473 22.5804 147.219 22.2864 147.992 22.2953H151.768C152.301 22.3229 152.834 22.2422 153.335 22.0583C153.836 21.8744 154.295 21.591 154.683 21.2252C155.425 20.392 155.833 19.3139 155.827 18.1986C155.856 17.6785 155.773 17.1582 155.584 16.6727C155.394 16.1873 155.102 15.7481 154.728 15.3848C154.354 15.0214 153.907 14.7423 153.415 14.5663C152.924 14.3903 152.4 14.3215 151.88 14.3646H148.019C145.387 14.3646 145.387 13.7672 145.387 12.1849C145.387 12.1521 145.466 8.90233 148.052 8.0226C148.922 7.71554 149.839 7.56224 150.762 7.5696H155.413C156.205 7.56762 156.976 7.31124 157.611 6.83831C158.246 6.36537 158.711 5.70103 158.939 4.94354C159.045 4.60565 159.101 4.25385 159.103 3.89968C159.102 3.41687 159.006 2.93896 158.82 2.49324C158.634 2.04751 158.362 1.6427 158.02 1.30191C157.677 0.961129 157.27 0.691037 156.823 0.507072C156.376 0.323107 155.897 0.228879 155.413 0.229742H150.972C148.394 0.251519 145.843 0.768624 143.46 1.75285C136.658 4.75971 136.336 10.9047 136.336 10.9441V11.0426C135.994 13.1697 135.441 14.3252 133.421 14.3252C132.974 14.3033 132.527 14.3781 132.112 14.5447C131.696 14.7113 131.322 14.9656 131.014 15.2903C130.36 16.0959 130.007 17.1029 130.014 18.1396C130.004 19.1121 130.334 20.0576 130.946 20.8145C131.558 21.5714 132.414 22.0925 133.369 22.2888C134.111 22.3402 134.805 22.6702 135.313 23.2123C135.821 23.7544 136.104 24.4683 136.105 25.2103C136.105 25.2891 136.105 33.141 136.105 37.2836C136.067 37.892 136.15 38.5019 136.35 39.0778C136.55 39.6538 136.862 40.1843 137.27 40.6385C137.901 41.253 138.737 41.6151 139.618 41.6561H141.394C142.101 41.6274 142.785 41.3998 143.368 40.9996C144.111 40.494 145.006 39.437 145.006 37.323V25.1512Z" fill="white"/>
</g>
</mask>
<g mask="url(#mask6_142_1226)">
<path d="M162.401 -3.07886H126.727V44.9127H162.401V-3.07886Z" fill="#F1AE34"/>
</g>
<mask id="mask8_142_1226" style="mask-type:luminance" maskUnits="userSpaceOnUse" x="158" y="13" width="30" height="38">
<mask id="mask9_142_1226" style="mask-type:luminance" maskUnits="userSpaceOnUse" x="0" y="0" width="195" height="51">
<path d="M194.061 0H0V50.5519H194.061V0Z" fill="white"/>
</mask>
<g mask="url(#mask9_142_1226)">
<path d="M170.346 36.4763C170.611 37.0553 170.746 37.6849 170.741 38.3211C170.775 39.4277 170.533 40.5253 170.038 41.5162C169.544 42.5071 168.811 43.3604 167.906 44.0001C165.577 45.9237 162.262 45.7858 162.222 45.7858H160.413C159.798 45.7883 159.207 46.0258 158.762 46.4494C158.316 46.8731 158.05 47.4508 158.019 48.0639C158.019 49.4951 158.979 50.3617 160.584 50.3617H162.229C163.883 50.386 165.53 50.149 167.11 49.6592C170.717 48.4901 173.714 45.9464 175.451 42.582C176.017 41.5381 180.951 30.4561 184.542 22.3743L187.279 16.2358C187.436 15.8959 187.461 15.5103 187.351 15.1526C187.285 14.9524 187.178 14.7677 187.038 14.6097C186.898 14.4518 186.727 14.3238 186.536 14.2335C185.668 13.8915 184.707 13.8675 183.823 14.1655C182.939 14.4636 182.189 15.0645 181.707 15.8616C181.707 15.9535 177.609 24.7247 177.313 25.3352C176.517 26.9174 175.563 27.8366 174.681 27.8366C173.649 27.8366 173.004 27.7118 171.524 25.2105C171.412 25.0135 166.965 17.1812 166.261 15.9535C165.715 15.1212 164.899 14.5006 163.95 14.1948C163.001 13.8891 161.976 13.9166 161.045 14.2729C160.837 14.3717 160.65 14.5108 160.497 14.6821C160.343 14.8534 160.225 15.0535 160.15 15.2708C160.035 15.6643 160.065 16.0861 160.235 16.4591C160.235 16.5444 169.774 35.3077 170.346 36.496" fill="white"/>
</g>
</mask>
<g mask="url(#mask8_142_1226)">
<path d="M190.725 10.6555H154.729V53.6444H190.725V10.6555Z" fill="#F1AE34"/>
</g>
<mask id="mask10_142_1226" style="mask-type:luminance" maskUnits="userSpaceOnUse" x="185" y="33" width="9" height="9">
<mask id="mask11_142_1226" style="mask-type:luminance" maskUnits="userSpaceOnUse" x="0" y="0" width="195" height="51">
<path d="M194.061 0H0V50.5519H194.061V0Z" fill="white"/>
</mask>
<g mask="url(#mask11_142_1226)">
<path d="M189.264 35.9446H189.12V37.0279H189.264C189.692 37.0279 190.034 36.8637 190.034 36.4436C190.034 36.0234 189.764 35.9446 189.284 35.9446H189.264ZM190.245 39.3388C189.685 38.3409 189.363 37.7303 189.212 37.7303H189.12V39.3388H188.218V35.2487H189.574C190.488 35.2487 190.975 35.7279 190.975 36.3582C190.96 36.6196 190.862 36.8695 190.696 37.0714C190.529 37.2734 190.302 37.4169 190.047 37.4809C190.245 37.4809 190.81 38.4328 191.304 39.3322L190.245 39.3388ZM189.587 34.1917C188.955 34.1576 188.327 34.3133 187.785 34.6389C187.242 34.9645 186.81 35.4449 186.544 36.0181C186.278 36.5913 186.191 37.2309 186.293 37.8543C186.395 38.4777 186.682 39.0561 187.117 39.515C187.552 39.9739 188.115 40.292 188.733 40.4283C189.351 40.5647 189.995 40.5129 190.584 40.2798C191.172 40.0466 191.677 39.6427 192.032 39.1204C192.388 38.598 192.579 37.9812 192.58 37.3495C192.601 36.9436 192.54 36.5375 192.399 36.156C192.258 35.7745 192.042 35.4255 191.762 35.1302C191.482 34.8348 191.145 34.5994 190.771 34.4381C190.397 34.2767 189.994 34.1929 189.587 34.1917ZM189.587 41.4134C188.526 41.371 187.522 40.9205 186.786 40.1563C186.051 39.392 185.64 38.3733 185.64 37.3134C185.64 36.2536 186.051 35.2349 186.786 34.4706C187.522 33.7064 188.526 33.2559 189.587 33.2135C190.14 33.1914 190.692 33.281 191.21 33.4771C191.728 33.6732 192.2 33.9716 192.6 34.3545C192.999 34.7374 193.317 35.1969 193.534 35.7054C193.751 36.2138 193.863 36.7608 193.863 37.3134C193.863 37.8661 193.751 38.4131 193.534 38.9215C193.317 39.43 192.999 39.8894 192.6 40.2723C192.2 40.6552 191.728 40.9537 191.21 41.1497C190.692 41.3458 190.14 41.4355 189.587 41.4134Z" fill="white"/>
</g>
</mask>
<g mask="url(#mask10_142_1226)">
<path d="M196.982 29.9573H182.207V44.729H196.982V29.9573Z" fill="#F1AE34"/>
</g>
</svg>
