<svg width="31" height="35" viewBox="0 0 31 35" fill="none" xmlns="http://www.w3.org/2000/svg">
<path fill-rule="evenodd" clip-rule="evenodd" d="M0 17.5V35H15.4981H30.9962L30.9981 17.5L31 0H15.5H0V17.5ZM29.7693 17.5279L29.7394 33.8296L15.4722 33.8579L1.20491 33.8861V17.5562V1.22611H15.5021H29.7994L29.7693 17.5279ZM2.30029 17.5V32.6592H15.6639H29.0274L29.0289 32.3527C29.0296 32.1842 28.9485 31.1282 28.8485 30.006C28.6698 28.0023 28.6704 27.9632 28.8797 27.8141C29.0751 27.6749 29.0854 27.5846 29.0039 26.7331C28.6191 22.7171 28.6225 22.7971 28.8319 22.7589C29.0749 22.7147 29.0777 22.4731 28.8623 20.2309C28.65 18.023 28.6518 17.7229 28.8773 17.7229C29.0356 17.7229 29.0469 17.5941 28.9782 16.5804C28.9355 15.9521 28.8568 15.0868 28.8031 14.6576C28.6497 13.4302 28.6696 12.8185 28.8631 12.8185C29.0732 12.8185 29.0735 12.3677 28.8641 10.3105C28.6493 8.20026 28.6516 7.80255 28.8781 7.80255C29.0372 7.80255 29.0487 7.67994 28.9802 6.71576C28.9378 6.11809 28.833 4.95183 28.7474 4.1242C28.6617 3.29658 28.5912 2.55678 28.5905 2.4801C28.5895 2.36941 25.8868 2.34076 15.4448 2.34076H2.30029V17.5ZM28.1967 3.14889C28.2417 3.37605 28.5954 7.07435 28.5912 7.27309C28.5901 7.31901 22.8772 7.35669 15.8959 7.35669H3.20255L3.12872 6.38137C3.08808 5.845 3.00834 5.00611 2.95138 4.51723C2.89453 4.02846 2.84798 3.46411 2.84798 3.26325V2.89809H15.4975H28.147L28.1967 3.14889ZM28.1955 8.05334C28.3084 8.63753 28.5898 12.1701 28.531 12.2668C28.4912 12.3326 23.6998 12.3726 15.8731 12.3726C5.8952 12.3726 3.2698 12.3436 3.23388 12.2333C3.19181 12.1044 3.04131 10.5525 2.88248 8.61067L2.81632 7.80255H15.4817H28.147L28.1955 8.05334ZM28.1947 13.0693C28.221 13.2071 28.2985 13.9471 28.3668 14.7134C28.4352 15.4797 28.52 16.3701 28.5552 16.6919L28.6194 17.2771H15.911H3.20255L3.12872 16.3018C3.08808 15.7654 3.00834 14.9265 2.95138 14.4376C2.89453 13.9488 2.84798 13.3845 2.84798 13.1836V12.8185H15.4975H28.147L28.1947 13.0693ZM28.1946 18.0852C28.2843 18.6936 28.4995 21.0884 28.5176 21.6799L28.5345 22.2373L15.907 22.2656C5.86124 22.2881 3.2697 22.2654 3.23125 22.1541C3.18754 22.0282 3.06869 20.7923 2.88281 18.5311L2.81632 17.7229H15.4788H28.1412L28.1946 18.0852ZM28.1952 22.9897C28.2217 23.1276 28.2995 23.8925 28.368 24.6895C28.4366 25.4865 28.5207 26.3767 28.5551 26.668L28.6176 27.1975H15.9069H3.19631L3.125 26.2221C3.08578 25.6858 3.00746 24.8795 2.95083 24.4307C2.89431 23.9817 2.84798 23.4175 2.84798 23.1767V22.7389H15.4975H28.147L28.1952 22.9897ZM28.1992 27.8329C28.233 27.9225 28.2617 28.2301 28.2629 28.5163C28.2641 28.8024 28.3089 29.3627 28.3624 29.7611C28.4161 30.1596 28.4932 30.8745 28.534 31.3495L28.608 32.2134H15.9436C5.91032 32.2134 3.26948 32.1844 3.23201 32.074C3.18645 31.9394 3.02608 30.295 2.88379 28.5025L2.81479 27.6338L15.4762 27.6519C26.4758 27.6675 28.1458 27.6912 28.1992 27.8329Z" fill="#363636"/>
</svg>
