<svg width="52" height="35" viewBox="0 0 52 35" fill="none" xmlns="http://www.w3.org/2000/svg">
<path d="M50.5293 0.0501952C50.6672 0.0502892 50.7998 0.104849 50.8975 0.201562C50.995 0.298342 51.0498 0.429838 51.0498 0.566797V4.32363C51.0498 4.46076 50.9952 4.59303 50.8975 4.68984C50.7998 4.78652 50.6672 4.84014 50.5293 4.84023H49.5674V15.6312C49.5674 15.7684 49.5118 15.9006 49.4141 15.9975C49.3163 16.094 49.1838 16.1479 49.0459 16.1479C48.908 16.1478 48.7754 16.0941 48.6777 15.9975C48.58 15.9006 48.5254 15.7684 48.5254 15.6312V4.84023H46.1875V30.8021H47.8779C48.0159 30.8022 48.1484 30.8568 48.2461 30.9535C48.3438 31.0503 48.3984 31.1817 48.3984 31.3187V33.6332C48.3984 33.7702 48.3437 33.9016 48.2461 33.9984C48.1484 34.0952 48.0159 34.1498 47.8779 34.1498H10.6768C10.5388 34.1497 10.4063 34.0952 10.3086 33.9984C10.211 33.9017 10.1562 33.7702 10.1562 33.6332V31.3187C10.1563 31.1817 10.2109 31.0503 10.3086 30.9535C10.4063 30.8568 10.5388 30.8022 10.6768 30.8021H12.3545V4.84023H9.4707C9.33283 4.84014 9.2002 4.78652 9.10254 4.68984C9.00477 4.59303 8.9502 4.46076 8.9502 4.32363V0.566797C8.9502 0.429838 9.00499 0.298341 9.10254 0.201562C9.20021 0.10485 9.3328 0.0502896 9.4707 0.0501952H50.5293ZM11.1982 33.1176H47.3564V31.8354H11.1982V33.1176ZM13.3965 30.8021H45.1455V4.84023H13.3965V30.8021ZM9.99219 3.80801H50.0078V1.08242H9.99219V3.80801Z" fill="#363636" stroke="#363636" stroke-width="0.1"/>
<path d="M11.3536 9.45355C11.5488 9.25829 11.5488 8.94171 11.3536 8.74645L8.17157 5.56447C7.97631 5.3692 7.65973 5.3692 7.46447 5.56447C7.2692 5.75973 7.2692 6.07631 7.46447 6.27157L10.2929 9.1L7.46447 11.9284C7.2692 12.1237 7.2692 12.4403 7.46447 12.6355C7.65973 12.8308 7.97631 12.8308 8.17157 12.6355L11.3536 9.45355ZM-4.37114e-08 9.6L11 9.6L11 8.6L4.37114e-08 8.6L-4.37114e-08 9.6Z" fill="#F59E0B"/>
</svg>
