<svg width="40" height="40" viewBox="0 0 40 40" fill="none" xmlns="http://www.w3.org/2000/svg">
<circle cx="20" cy="20" r="20" fill="white"/>
<circle cx="20" cy="20" r="19" stroke="#A4A4A4" stroke-opacity="0.5" stroke-width="2"/>
<path d="M23.8401 11.8585C22.6353 11.289 21.343 11 20 11C17.596 11 15.3358 11.9362 13.636 13.636C11.9362 15.3358 11 17.596 11 20C11 21.343 11.289 22.6353 11.8585 23.8401C11.9121 23.9532 12.0041 24.0436 12.1181 24.0952C12.3299 24.1907 12.5875 24.1333 12.7376 23.9557C12.8699 23.7993 12.8995 23.5747 12.8119 23.3894C12.3096 22.3263 12.0547 21.1862 12.0547 20C12.0547 15.6188 15.6188 12.0547 20 12.0547C21.1862 12.0547 22.3263 12.3096 23.3894 12.812C23.6527 12.9364 23.967 12.8239 24.0915 12.5606C24.2159 12.2973 24.1034 11.983 23.8401 11.8585ZM28.1415 16.1599C28.017 15.8966 27.7027 15.7841 27.4394 15.9085C27.1761 16.033 27.0636 16.3473 27.188 16.6106C27.6904 17.6737 27.9453 18.8138 27.9453 20C27.9453 24.3812 24.3812 27.9453 20 27.9453C18.8138 27.9453 17.6737 27.6904 16.6106 27.188C16.3473 27.0636 16.033 27.1761 15.9085 27.4394C15.7841 27.7027 15.8966 28.017 16.1599 28.1415C16.6849 28.3897 17.2265 28.5846 17.7816 28.7255C18.6862 28.9551 19.4658 28.9391 20 29C22.404 29 24.6642 28.0638 26.364 26.364C28.0638 24.6642 29 22.404 29 20C29 18.657 28.711 17.3647 28.1415 16.1599Z" fill="#A4A4A4"/>
<path d="M13.1445 28.613C14.1153 28.613 14.9023 27.826 14.9023 26.8552C14.9023 25.8844 14.1153 25.0974 13.1445 25.0974C12.1737 25.0974 11.3867 25.8844 11.3867 26.8552C11.3867 27.826 12.1737 28.613 13.1445 28.613Z" fill="#A4A4A4"/>
<path d="M26.8555 14.9026C27.8263 14.9026 28.6133 14.1156 28.6133 13.1448C28.6133 12.174 27.8263 11.387 26.8555 11.387C25.8847 11.387 25.0977 12.174 25.0977 13.1448C25.0977 14.1156 25.8847 14.9026 26.8555 14.9026Z" fill="#A4A4A4"/>
<path d="M20.0002 21.5492C20.8557 21.5492 21.5492 20.8557 21.5492 20.0002C21.5492 19.1447 20.8557 18.4512 20.0002 18.4512C19.1447 18.4512 18.4512 19.1447 18.4512 20.0002C18.4512 20.8557 19.1447 21.5492 20.0002 21.5492Z" fill="#A4A4A4"/>
<path d="M25.9699 18.1992H25.0924C25.0291 18.0194 24.9562 17.8431 24.8741 17.6711L25.4943 17.0509C25.7003 16.8449 25.7003 16.5109 25.4943 16.3053L23.6932 14.5042C23.4875 14.2982 23.1536 14.2982 22.9475 14.5042L22.3274 15.1244C22.1555 15.0425 21.9793 14.9693 21.7993 14.9061V14.0286C21.7993 13.7375 21.5634 13.5012 21.272 13.5012H18.7253C18.4338 13.5012 18.1979 13.7375 18.1979 14.0286V14.9061C18.0182 14.9694 17.8419 15.0423 17.6699 15.1244L17.0497 14.5042C16.8437 14.2982 16.5097 14.2982 16.3041 14.5042L14.503 16.3053C14.297 16.5109 14.297 16.8449 14.503 17.0509L15.1232 17.6711C15.0413 17.843 14.9681 18.0192 14.9048 18.1992H14.0273C13.7363 18.1992 13.5 18.435 13.5 18.7265V21.2732C13.5 21.5647 13.7363 21.8006 14.0273 21.8006H14.9048C14.9681 21.9806 15.0413 22.1567 15.1232 22.3286L14.503 22.9488C14.297 23.1548 14.297 23.4888 14.503 23.6944L16.3041 25.4955C16.5097 25.7015 16.8437 25.7015 17.0497 25.4955L17.6699 24.8753C17.8418 24.9572 18.0179 25.0304 18.1979 25.0936V25.9711C18.1979 26.2622 18.4338 26.4985 18.7253 26.4985H21.272C21.5634 26.4985 21.7993 26.2622 21.7993 25.9711V25.0936C21.9793 25.0304 22.1555 24.9572 22.3274 24.8753L22.9475 25.4955C23.1536 25.7015 23.4875 25.7015 23.6932 25.4955L25.4943 23.6944C25.7003 23.4888 25.7003 23.1548 25.4943 22.9488L24.8741 22.3286C24.956 22.1567 25.0291 21.9806 25.0924 21.8006H25.9699C26.261 21.8006 26.4973 21.5647 26.4973 21.2732V18.7265C26.4973 18.435 26.261 18.1992 25.9699 18.1992ZM19.9986 22.6036C18.563 22.6036 17.3949 21.4355 17.3949 19.9999C17.3949 18.5642 18.563 17.3961 19.9986 17.3961C21.4343 17.3961 22.6023 18.5642 22.6023 19.9999C22.6023 21.4355 21.4343 22.6036 19.9986 22.6036Z" fill="#A4A4A4"/>
</svg>
