<svg width="33" height="34" viewBox="0 0 33 34" fill="none" xmlns="http://www.w3.org/2000/svg">
<path fill-rule="evenodd" clip-rule="evenodd" d="M0.216385 1.6061C0.253507 3.05763 0.282717 3.27754 0.519519 3.89112C0.663613 4.26453 0.781526 4.58704 0.781526 4.60769C0.781526 4.62845 0.605683 4.64535 0.390763 4.64535C0.14214 4.64535 0.000781463 4.69032 0.00214913 4.7689C0.00703367 5.0578 0.388516 6.61597 0.576864 7.11628C0.689404 7.41526 0.781428 7.67095 0.781428 7.68459C0.781526 7.69823 0.605683 7.7093 0.390763 7.7093C0.14214 7.7093 0.000781463 7.75427 0.00214913 7.83285C0.00693598 8.11325 0.403854 9.75938 0.584386 10.2476L0.778791 10.7733H0.389395C0.175257 10.7733 0 10.8128 0 10.8612C0 11.1473 0.410203 12.8914 0.57999 13.3271C0.690869 13.6117 0.781526 13.8651 0.781526 13.8903C0.781526 13.9155 0.600896 13.936 0.380212 13.936C0.0133836 13.936 -0.0166073 13.9552 0.0317496 14.1584C0.0608614 14.2808 0.132957 14.6561 0.19206 14.9925C0.285159 15.5228 0.493729 16.2299 0.733071 16.827C0.792467 16.9751 0.744599 17 0.401216 17C0.180533 17 0 17.0354 0 17.0786C0 17.1219 0.0895824 17.5847 0.199094 18.1072C0.535345 19.7118 0.96919 20.6298 1.83258 21.5636L2.27365 22.0407H16.7673H31.261V24.1606C31.261 26.2558 31.2583 26.2835 31.0287 26.5341C30.4161 27.2029 30.7915 28.2856 31.6869 28.4326C32.1549 28.5094 32.582 28.3179 32.8232 27.9229C33.1301 27.4204 33.0287 26.7665 32.5863 26.395C32.4562 26.2857 32.4333 25.9507 32.4333 24.1536V22.0407H32.6612C32.7867 22.0407 32.9114 22.0183 32.9386 21.9908C33.0197 21.9088 32.7276 20.4627 32.4741 19.6912C32.3442 19.296 32.2379 18.9512 32.2379 18.9253C32.2379 18.8993 32.4067 18.8779 32.613 18.8779H32.9881L32.8492 18.1119C32.7728 17.6907 32.604 17.0225 32.4741 16.6273C32.3442 16.232 32.2379 15.8873 32.2379 15.8613C32.2379 15.8353 32.4147 15.814 32.6306 15.814C32.9874 15.814 33.0186 15.7937 32.9732 15.5916C32.9456 15.4692 32.8338 14.9536 32.7247 14.4456C32.6156 13.9375 32.4615 13.3949 32.3821 13.2396C32.1663 12.8175 32.2006 12.75 32.6306 12.75C32.9874 12.75 33.0187 12.7297 32.9733 12.5276C32.9458 12.4053 32.8533 11.9512 32.7678 11.5185C32.6823 11.0858 32.5281 10.5076 32.4252 10.2336C32.3222 9.95963 32.238 9.7244 32.238 9.71076C32.2379 9.69712 32.3845 9.68605 32.5635 9.68605C32.7427 9.68605 32.912 9.66292 32.9399 9.63475C33.0274 9.54629 32.7533 8.17107 32.49 7.3777C32.3514 6.95982 32.2379 6.59659 32.2379 6.5706C32.2379 6.5446 32.4167 6.52326 32.6352 6.52326C32.9669 6.52326 33.0246 6.49469 32.9845 6.35029C32.958 6.25511 32.9086 6.02166 32.8746 5.8314C32.7432 5.09506 32.5042 4.18882 32.374 3.93372C32.1755 3.5445 32.2038 3.4593 32.531 3.4593H32.8241V1.72965V0H16.4997H0.175257L0.216385 1.6061ZM31.6518 1.72965V2.27326H16.5097H1.36767V1.72965V1.18605H16.5097H31.6518V1.72965ZM30.6279 3.16536C31.001 3.67951 31.5469 4.86101 31.5515 5.16424C31.554 5.32822 30.8023 5.33721 17.1125 5.33721H2.67077L2.37457 4.91715C1.87527 4.20888 1.3029 2.86598 1.44084 2.72633C1.4723 2.6946 7.97107 2.6686 15.8827 2.6686H30.2675L30.6279 3.16536ZM30.6941 6.375C31.0376 6.83459 31.6395 8.24885 31.5361 8.35352C31.5108 8.37902 25.0146 8.40077 17.0999 8.40186C6.22573 8.40324 2.67585 8.37537 2.57142 8.2877C2.33471 8.08894 1.80191 7.09404 1.5863 6.44814L1.38027 5.8307L15.8526 5.85581L30.3248 5.88081L30.6941 6.375ZM30.5158 9.19473C30.8266 9.56853 31.4359 10.8142 31.5174 11.2427L31.5785 11.564H17.1641H2.7496L2.44481 11.1933C2.07378 10.7422 1.5695 9.70413 1.49467 9.23762L1.43977 8.89535H15.8533H30.2667L30.5158 9.19473ZM30.6279 12.4561C31.001 12.9702 31.5469 14.1517 31.5515 14.4549C31.554 14.6189 30.8021 14.6279 17.1078 14.6279H2.66149L2.3096 14.109C1.92714 13.545 1.46536 12.4783 1.46536 12.159C1.46536 11.9596 1.48324 11.9593 15.8664 11.9593H30.2675L30.6279 12.4561ZM30.6858 15.6422C31.0719 16.2088 31.3992 16.9067 31.503 17.3851L31.5696 17.6919H17.1152H2.6608L2.42214 17.3706C2.06938 16.896 1.78178 16.3302 1.56803 15.6904L1.37822 15.1221L15.8556 15.1233L30.333 15.1245L30.6858 15.6422ZM30.5352 18.5073C30.8506 18.8847 31.426 20.0736 31.5158 20.5334L31.5785 20.8547H17.1739H2.76943L2.56907 20.6323C2.20869 20.2323 1.83795 19.5504 1.60652 18.8619L1.3793 18.186H15.8231H30.2667L30.5352 18.5073ZM3.1261 28.5145V34H15.9236H28.7211V28.5145V23.0291H28.1349H27.5488V27.9215V32.814H15.9236H4.29839V27.9215V23.0291H3.71225H3.1261V28.5145ZM5.47068 27.3285V31.6279H15.9236H26.3765V27.3285C26.3765 23.5727 26.3579 23.0291 26.23 23.0291C26.102 23.0291 26.0834 23.5562 26.0834 27.1802V31.3314H15.9236H5.76375V27.1802C5.76375 23.5562 5.74519 23.0291 5.61722 23.0291C5.48924 23.0291 5.47068 23.5727 5.47068 27.3285ZM17.177 25.1245C16.1383 26.0052 14.7391 27.1911 14.0675 27.7599C13.3958 28.3286 12.8095 28.8262 12.7646 28.8655C12.7195 28.9048 12.7245 28.9631 12.7755 28.995C12.8265 29.0269 13.4568 28.5532 14.1761 27.9423C14.8955 27.3313 16.3192 26.1248 17.3401 25.2611C18.361 24.3974 19.2109 23.653 19.2288 23.607C19.3294 23.3484 18.8765 23.6833 17.177 25.1245ZM13.4658 25.6043C12.1474 26.7256 11.8863 26.9849 12.0811 26.9809C12.1826 26.9787 14.9835 24.6218 15.0281 24.501C15.1199 24.2524 14.7401 24.5205 13.4658 25.6043ZM17.8424 27.0729C16.1489 28.511 15.9379 28.7145 16.0649 28.7863C16.1334 28.825 19.8312 25.683 19.8312 25.5862C19.8312 25.5388 19.7982 25.5019 19.7579 25.5043C19.7177 25.5065 18.8557 26.2124 17.8424 27.0729Z" fill="#363636"/>
</svg>
