<svg width="40" height="40" viewBox="0 0 40 40" fill="none" xmlns="http://www.w3.org/2000/svg">
<circle cx="20" cy="20" r="20" fill="white"/>
<circle cx="20" cy="20" r="19" stroke="#A4A4A4" stroke-opacity="0.5" stroke-width="2"/>
<path d="M27.8833 12.9654L27.0831 12.1233C26.9271 11.959 26.6739 11.9589 26.5178 12.1231C26.5177 12.1232 26.5175 12.1232 26.5175 12.1233L21.7168 17.1759C21.6418 17.2549 21.5997 17.362 21.5996 17.4736V18.3158C21.5996 18.5483 21.7787 18.7368 21.9997 18.7368H22.7999C22.9059 18.7368 23.0076 18.6924 23.0826 18.6136L27.8833 13.5608C28.0395 13.3965 28.0396 13.1301 27.8836 12.9656L27.8834 12.9656L27.8833 12.9654Z" fill="#A4A4A4"/>
<path d="M22.8016 19.5788H22.0014C21.3388 19.578 20.8019 19.0129 20.8012 18.3157V17.4735C20.8008 17.3076 20.8317 17.1432 20.892 16.99C20.9524 16.8367 21.041 16.6975 21.1528 16.5805L23.9047 13.6841H14.0003C12.896 13.6853 12.0013 14.6271 12 15.7894V23.3683C12.0013 24.5306 12.896 25.4724 14.0003 25.4736H17.6008V27.5789C17.6008 27.8114 17.7799 27.9999 18.0008 27.9999C18.0874 27.9999 18.1716 27.9704 18.2409 27.9156L21.335 25.4736H25.2018C26.306 25.4723 27.2009 24.5304 27.202 23.3683V15.4703L23.65 19.2087C23.5389 19.3264 23.4066 19.4197 23.261 19.4832C23.1154 19.5467 22.9592 19.5792 22.8016 19.5788ZM14.8004 16.2104H18.801C19.0218 16.2104 19.2009 16.3989 19.2009 16.6315C19.2009 16.8639 19.0218 17.0525 18.801 17.0525H14.8004C14.5795 17.0525 14.4004 16.8641 14.4004 16.6315C14.4004 16.3989 14.5794 16.2104 14.8004 16.2104H14.8004ZM14.8004 18.7367H18.801C19.0218 18.7367 19.2009 18.9251 19.2009 19.1577C19.2009 19.3903 19.0218 19.5788 18.801 19.5788H14.8004C14.5795 19.5788 14.4004 19.3903 14.4004 19.1577C14.4004 18.9253 14.5795 18.7367 14.8004 18.7367ZM24.8017 21.6841C24.8017 21.9167 24.6226 22.1052 24.4017 22.1052H14.8004C14.5794 22.1052 14.4003 21.9167 14.4003 21.6841C14.4003 21.4516 14.5794 21.263 14.8004 21.263H24.4017C24.6226 21.263 24.8017 21.4515 24.8017 21.6841H24.8017Z" fill="#A4A4A4"/>
</svg>
